<?xml version="1.0" encoding="utf-8"?>
<!-- Generator: Adobe Illustrator 19.0.0, SVG Export Plug-In . SVG Version: 6.00 Build 0)  -->
<svg version="1.1" id="圖層_1" xmlns="http://www.w3.org/2000/svg" xmlns:xlink="http://www.w3.org/1999/xlink" x="0px" y="0px"
	 viewBox="0 0 30 30" style="enable-background:new 0 0 30 30;" xml:space="preserve">
<style type="text/css">
	.st0{fill:#404040;}
</style>
<g id="XMLID_727_">
	<g id="XMLID_315_">
		<g id="XMLID_658_">
			<path id="XMLID_841_" class="st0" d="M24.1,25.9l-8.5-3.3L3,10.1c-1.5-1.5-1.5-4,0-5.5c1.5-1.5,4-1.5,5.5,0l12.6,12.6L24.1,25.9z
				 M16.3,21.6l6,2.3l-2.1-6.2L7.7,5.4c-1.1-1.1-2.8-1.1-3.9,0c-1.1,1.1-1.1,2.8,0,3.9L16.3,21.6z"/>
		</g>
		<g id="XMLID_317_">
			
				<rect id="XMLID_840_" x="6.3" y="5.1" transform="matrix(0.7071 0.7071 -0.7071 0.7071 7.9569 -2.4032)" class="st0" width="1.2" height="6.6"/>
		</g>
	</g>
	<g id="XMLID_21_">
		<path id="XMLID_839_" class="st0" d="M29.4,26.6H0.6C0.3,26.6,0,26.3,0,26c0-0.3,0.3-0.6,0.6-0.6h28.8c0.3,0,0.6,0.3,0.6,0.6
			C30,26.3,29.7,26.6,29.4,26.6z"/>
	</g>
</g>
</svg>
