<?xml version="1.0" encoding="utf-8"?>
<!-- Generator: Adobe Illustrator 19.0.0, SVG Export Plug-In . SVG Version: 6.00 Build 0)  -->
<svg version="1.1" id="圖層_1" xmlns="http://www.w3.org/2000/svg" xmlns:xlink="http://www.w3.org/1999/xlink" x="0px" y="0px"
	 viewBox="0 0 30 30" style="enable-background:new 0 0 30 30;" xml:space="preserve">
<style type="text/css">
	.st0{fill:#d22614;}
</style>
<g id="XMLID_693_">
	<path id="XMLID_784_" class="st0" d="M22,28.7H8c-0.8,0-1.5-0.7-1.5-1.5V2.8c0-0.8,0.7-1.5,1.5-1.5h14c0.8,0,1.5,0.7,1.5,1.5v24.5
		C23.5,28.1,22.8,28.7,22,28.7z M8,2.4c-0.2,0-0.4,0.2-0.4,0.4v24.5c0,0.2,0.2,0.4,0.4,0.4h14c0.2,0,0.4-0.2,0.4-0.4V2.8
		c0-0.2-0.2-0.4-0.4-0.4H8z"/>
	<circle id="XMLID_701_" class="st0" cx="15" cy="25.8" r="1.1"/>
	<g id="XMLID_698_">
		<path id="XMLID_699_" class="st0" d="M20.7,26.4h-2.2c-0.3,0-0.6-0.3-0.6-0.6c0-0.3,0.3-0.6,0.6-0.6h2.2c0.3,0,0.6,0.3,0.6,0.6
			C21.3,26.1,21,26.4,20.7,26.4z"/>
		<path id="XMLID_697_" class="st0" d="M11.5,26.4H9.3c-0.3,0-0.6-0.3-0.6-0.6c0-0.3,0.3-0.6,0.6-0.6h2.2c0.3,0,0.6,0.3,0.6,0.6
			C12.1,26.1,11.8,26.4,11.5,26.4z"/>
	</g>
	<g id="XMLID_696_">
		<path id="XMLID_695_" class="st0" d="M16.5,4.4h-3.1c-0.3,0-0.6-0.3-0.6-0.6s0.3-0.6,0.6-0.6h3.1c0.3,0,0.6,0.3,0.6,0.6
			S16.9,4.4,16.5,4.4z"/>
	</g>
	<path id="XMLID_767_" class="st0" d="M22.8,6.2H7.2c-0.3,0-0.6-0.3-0.6-0.6s0.3-0.6,0.6-0.6h15.7c0.3,0,0.6,0.2,0.6,0.6
		C23.4,6,23.1,6.2,22.8,6.2z"/>
	<path id="XMLID_782_" class="st0" d="M22.8,24.2H7.2c-0.3,0-0.6-0.3-0.6-0.6c0-0.3,0.3-0.6,0.6-0.6h15.7c0.3,0,0.6,0.3,0.6,0.6
		C23.4,24,23.1,24.2,22.8,24.2z"/>
</g>
</svg>
