<?xml version="1.0" encoding="utf-8"?>
<!-- Generator: Adobe Illustrator 19.0.0, SVG Export Plug-In . SVG Version: 6.00 Build 0)  -->
<svg version="1.1" id="圖層_1" xmlns="http://www.w3.org/2000/svg" xmlns:xlink="http://www.w3.org/1999/xlink" x="0px" y="0px"
	 viewBox="0 0 30 30" style="enable-background:new 0 0 30 30;" xml:space="preserve">
<style type="text/css">
	.st0{fill:#d22614;}
</style>
<g id="XMLID_677_">
	<g id="XMLID_687_">
		<path id="XMLID_836_" class="st0" d="M27.1,24.7c-0.6,0-1.2-0.2-1.8-0.7l-1.3-1.1l2.7-3.2l1.3,1.1c0.6,0.5,1,1.1,1.1,1.8
			c0.1,0.5-0.1,1.1-0.4,1.3C28.2,24.5,27.6,24.7,27.1,24.7z M25.5,22.8l0.5,0.4c0.6,0.5,1.4,0.6,1.7,0.2c0.1-0.2,0.2-0.4,0.1-0.5
			c0-0.4-0.3-0.8-0.7-1.1l0,0l-0.5-0.4L25.5,22.8z"/>
	</g>
	<g id="XMLID_686_">
		<path id="XMLID_833_" class="st0" d="M24.3,23c-0.1,0-0.3,0-0.4-0.1l-9.6-7.7c-0.1,0-0.1-0.1-0.1-0.2c-1.8-3.2-1.8-3.5-1.8-3.7
			s0.2-0.4,0.4-0.5c0.8-0.3,2.9,0.6,4.1,1.1c0,0,0.1,0,0.1,0.1l9.6,7.7c0.1,0.1,0.2,0.2,0.2,0.4c0,0.2,0,0.3-0.1,0.4l-1.9,2.3
			C24.6,23,24.4,23,24.3,23z M15.1,14.4l9.1,7.3l1.2-1.4L16.3,13c-1-0.4-1.8-0.8-2.5-1C14.1,12.7,14.6,13.7,15.1,14.4z"/>
	</g>
	<g id="XMLID_685_">
		<path id="XMLID_832_" class="st0" d="M1.6,29c-0.1,0-0.3,0-0.4-0.1C1.1,28.8,1,28.6,1,28.4V1.6C1,1.3,1.3,1,1.6,1h21
			c0.3,0,0.6,0.3,0.6,0.6v15.6H22v-15H2.1v25.5L22,23v-1.8h1.1v2.3c0,0.3-0.2,0.5-0.5,0.6L1.6,29L1.6,29z"/>
	</g>
	<g id="XMLID_684_">
		<path id="XMLID_831_" class="st0" d="M2.4,28.1l-0.7-1l12-8.9c0.2-0.1,0.4-0.2,0.6,0l8.4,4.6l-0.6,1.1L14,19.4L2.4,28.1z"/>
	</g>
	<g id="XMLID_683_">
		<path id="XMLID_830_" class="st0" d="M17.7,5.7H5.5c-0.3,0-0.6-0.3-0.6-0.6c0-0.3,0.3-0.6,0.6-0.6h12.2c0.3,0,0.6,0.3,0.6,0.6
			C18.2,5.4,18,5.7,17.7,5.7z"/>
	</g>
	<g id="XMLID_680_">
		<path id="XMLID_829_" class="st0" d="M17.7,9.6H5.5c-0.3,0-0.6-0.3-0.6-0.6s0.3-0.6,0.6-0.6h12.2c0.3,0,0.6,0.3,0.6,0.6
			S18,9.6,17.7,9.6z"/>
	</g>
	<g id="XMLID_679_">
		<path id="XMLID_828_" class="st0" d="M13.4,13.6H5.5c-0.3,0-0.6-0.3-0.6-0.6s0.3-0.6,0.6-0.6h7.9c0.3,0,0.6,0.3,0.6,0.6
			S13.7,13.6,13.4,13.6z"/>
	</g>
	<g id="XMLID_678_">
		<path id="XMLID_827_" class="st0" d="M15.8,17.5H5.5c-0.3,0-0.6-0.3-0.6-0.6s0.3-0.6,0.6-0.6h10.3c0.3,0,0.6,0.3,0.6,0.6
			S16.1,17.5,15.8,17.5z"/>
	</g>
</g>
</svg>
