<?xml version="1.0" encoding="utf-8"?>
<!-- Generator: Adobe Illustrator 19.0.0, SVG Export Plug-In . SVG Version: 6.00 Build 0)  -->
<svg version="1.1" id="圖層_1" xmlns="http://www.w3.org/2000/svg" xmlns:xlink="http://www.w3.org/1999/xlink" x="0px" y="0px"
	 viewBox="0 0 20 20" style="enable-background:new 0 0 20 20;" xml:space="preserve">
<style type="text/css">
	.st0{fill:#404040;}
</style>
<g id="XMLID_2_">
	<path id="XMLID_3_" class="st0" d="M19.4,17.8l-4-4c1.1-1.4,1.8-3.3,1.8-5.2c0-4.7-3.8-8.5-8.5-8.5S0.3,3.9,0.3,8.6
		s3.8,8.5,8.5,8.5c1.8,0,3.5-0.6,4.9-1.6l4.1,4.1c0.5,0.5,1.2,0.5,1.7,0C19.9,19.1,19.9,18.3,19.4,17.8z M13.2,12.7l-0.7,0.6
		c-1,0.8-2.3,1.3-3.8,1.3c-3.3,0-6-2.7-6-6s2.7-6,6-6s6,2.7,6,6C14.7,10.2,14.1,11.6,13.2,12.7z"/>
</g>
</svg>
