<?xml version="1.0" encoding="utf-8"?>
<!-- Generator: Adobe Illustrator 19.0.0, SVG Export Plug-In . SVG Version: 6.00 Build 0)  -->
<svg version="1.1" id="圖層_1" xmlns="http://www.w3.org/2000/svg" xmlns:xlink="http://www.w3.org/1999/xlink" x="0px" y="0px"
	 viewBox="0 0 19 7" style="enable-background:new 0 0 19 7;" xml:space="preserve">
<style type="text/css">
	.st0{fill:#fff;}
</style>
<g id="XMLID_916_">
	<g id="XMLID_902_">
		<g id="XMLID_909_">
			<path id="XMLID_995_" class="st0" d="M9.5,6.7c-0.1,0-0.2,0-0.3-0.1L0.3,1.6C0,1.4-0.1,0.9,0.1,0.6S0.7,0.2,1,0.4l8.8,5.1
				c0.3,0.2,0.4,0.6,0.3,0.9C10,6.6,9.7,6.7,9.5,6.7z"/>
		</g>
	</g>
	<g id="XMLID_900_">
		<g id="XMLID_901_">
			<path id="XMLID_994_" class="st0" d="M9.5,6.7C9.3,6.7,9,6.6,8.9,6.4C8.7,6.1,8.8,5.6,9.2,5.4L18,0.4c0.3-0.2,0.8-0.1,0.9,0.3
				s0.1,0.8-0.3,0.9L9.8,6.6C9.7,6.7,9.6,6.7,9.5,6.7z"/>
		</g>
	</g>
</g>
</svg>
