<?xml version="1.0" encoding="utf-8"?>
<!-- Generator: Adobe Illustrator 19.0.0, SVG Export Plug-In . SVG Version: 6.00 Build 0)  -->
<svg version="1.1" id="圖層_1" xmlns="http://www.w3.org/2000/svg" xmlns:xlink="http://www.w3.org/1999/xlink" x="0px" y="0px"
	 viewBox="0 0 100 100" style="enable-background:new 0 0 100 100;" xml:space="preserve">
<style type="text/css">
	.st0{fill:#404040;}
</style>
<g id="XMLID_663_">
	<path id="XMLID_512_" class="st0" d="M68,48L41.8,32.7c-2.4-1.4-4.3-0.3-4.3,2.5l0.1,30.3c0,2.8,2,3.9,4.4,2.5l26-15
		C70.4,51.6,70.4,49.4,68,48z"/>
	<g id="XMLID_508_">
		<path id="XMLID_509_" class="st0" d="M93.3,25C79.5,1.1,48.9-7.1,25,6.7S-7.1,51.1,6.7,75C20.5,98.9,51.1,107.1,75,93.3
			C98.9,79.5,107.1,48.9,93.3,25z M72.3,88.6c-21.3,12.3-48.7,5-61-16.3s-5-48.6,16.4-60.9C49-1,76.4,6.3,88.7,27.7
			C101,49,93.6,76.3,72.3,88.6z"/>
	</g>
</g>
</svg>
