<?xml version="1.0" encoding="utf-8"?>
<!-- Generator: Adobe Illustrator 19.0.0, SVG Export Plug-In . SVG Version: 6.00 Build 0)  -->
<svg version="1.1" id="圖層_1" xmlns="http://www.w3.org/2000/svg" xmlns:xlink="http://www.w3.org/1999/xlink" x="0px" y="0px"
	 viewBox="0 0 92 46" style="enable-background:new 0 0 92 46;" xml:space="preserve">
<style type="text/css">
	.st0{fill:#FFFFFF;}
	.st1{fill:#EE3E2A;}
</style>
<g id="XMLID_629_">
	<g id="XMLID_624_">
		<path id="XMLID_623_" class="st0" d="M7.6,35.7c-0.4-1.8-1.9-2.1-2.8-2.1c-1.8,0-3.3,1.4-3.3,4c0,2.4,0.9,4.2,3.4,4.2
			c0.9,0,2.4-0.4,2.9-2.8H9c-0.6,3.8-3.7,4-4.4,4C2.3,43,0,41.5,0,37.6c0-3.1,1.8-5.3,4.7-5.3c2.6,0,4,1.6,4.2,3.3H7.6z"/>
		<path id="XMLID_622_" class="st0" d="M16.6,42.8h-1.2v-4.8c0-1-0.3-1.7-1.5-1.7c-1,0-2.1,0.6-2.1,2.5v4h-1.2V32.6h1.2v3.8h0
			c0.4-0.5,1-1.2,2.2-1.2c1.1,0,2.6,0.5,2.6,2.6V42.8z"/>
		<path id="XMLID_621_" class="st0" d="M23.2,42.8v-1.1l0,0C22.7,42.5,22,43,20.9,43c-1.1,0-2.4-0.5-2.4-2.3v-5.3h1.2v4.9
			c0,1.2,0.6,1.6,1.4,1.6c1.6,0,2-1.4,2-2.5v-4.1h1.2v7.4H23.2z"/>
		<path id="XMLID_620_" class="st0" d="M32.3,42.8h-1.2v-4.6c0-1.3-0.4-1.9-1.6-1.9c-0.7,0-2,0.5-2,2.5v4h-1.2v-7.4h1.2v1h0
			c0.3-0.4,1-1.3,2.2-1.3c1.1,0,2.6,0.5,2.6,2.6V42.8z"/>
		<path id="XMLID_451_" class="st0" d="M40.3,42.2c0,1.1,0,3.7-3.4,3.7c-0.9,0-2.6-0.2-2.8-2.2h1.2c0.2,1.2,1.4,1.2,1.7,1.2
			c2.2,0,2.1-1.7,2.1-2.6v-0.3h0V42c-0.3,0.5-1,1-2,1c-2.5,0-3.3-2.4-3.3-4.1c0-2.1,1.1-3.7,3.1-3.7c1.3,0,1.9,0.8,2.2,1.3h0v-1h1.2
			V42.2z M37.1,41.9c0.8,0,2-0.5,2-2.5c0-1.2-0.2-3.1-2-3.1c-1.9,0-2,1.8-2,2.8C35.1,40.7,35.7,41.9,37.1,41.9"/>
		<path id="XMLID_450_" class="st0" d="M49.3,35.7c-0.4-1.8-1.9-2.1-2.8-2.1c-1.8,0-3.3,1.4-3.3,4c0,2.4,0.9,4.2,3.4,4.2
			c0.9,0,2.4-0.4,2.9-2.8h1.3c-0.6,3.8-3.7,4-4.5,4c-2.3,0-4.6-1.5-4.6-5.4c0-3.1,1.8-5.3,4.7-5.3c2.6,0,4,1.6,4.2,3.3H49.3z"/>
		<path id="XMLID_449_" class="st0" d="M58.3,42.8h-1.2v-4.8c0-1-0.3-1.7-1.5-1.7c-1,0-2.1,0.6-2.1,2.5v4h-1.2V32.6h1.2v3.8h0
			c0.4-0.5,1-1.2,2.2-1.2c1.1,0,2.6,0.5,2.6,2.6V42.8z"/>
		<path id="XMLID_446_" class="st0" d="M66.4,40.4c0,0.4-0.4,1.4-1.3,2c-0.3,0.2-0.8,0.5-2,0.5c-2.1,0-3.3-1.6-3.3-3.7
			c0-2.3,1.1-4.1,3.6-4.1c2.1,0,3.2,1.7,3.2,4.3h-5.4c0,1.5,0.7,2.4,2.2,2.4c1.2,0,1.9-0.9,1.9-1.5H66.4z M65.3,38.5
			c-0.1-1.1-0.6-2.2-2.1-2.2c-1.1,0-2.1,1.1-2.1,2.2H65.3z"/>
		<path id="XMLID_445_" class="st0" d="M74.1,42.8h-1.2v-4.6c0-1.3-0.4-1.9-1.6-1.9c-0.7,0-2,0.5-2,2.5v4H68v-7.4h1.2v1h0
			c0.3-0.4,1-1.3,2.2-1.3c1.1,0,2.6,0.5,2.6,2.6V42.8z"/>
		<path id="XMLID_442_" class="st0" d="M82.1,42.2c0,1.1,0,3.7-3.4,3.7c-0.9,0-2.6-0.2-2.8-2.2H77c0.2,1.2,1.4,1.2,1.7,1.2
			c2.2,0,2.1-1.7,2.1-2.6v-0.3h0V42c-0.3,0.5-1,1-2,1c-2.5,0-3.3-2.4-3.3-4.1c0-2.1,1.1-3.7,3.1-3.7c1.3,0,1.9,0.8,2.2,1.3h0v-1h1.2
			V42.2z M78.8,41.9c0.8,0,2-0.5,2-2.5c0-1.2-0.2-3.1-2-3.1c-1.9,0-2,1.8-2,2.8C76.9,40.7,77.5,41.9,78.8,41.9"/>
		<path id="XMLID_441_" class="st0" d="M92,32.6v6.6c0,2.1-1.3,3.8-4.1,3.8c-2.7,0-3.9-1.8-3.9-3.7v-6.8h1.4V39
			c0,2.2,1.3,2.8,2.6,2.8c1.3,0,2.7-0.6,2.7-2.8v-6.4H92z"/>
	</g>
	<g id="XMLID_625_">
		<polygon id="XMLID_440_" class="st1" points="7.5,7 0,7 0,0.2 23.2,0.2 23.2,7 15.7,7 15.7,26.9 7.5,26.9 		"/>
		<polygon id="XMLID_439_" class="st1" points="24.5,0.2 47.1,0.2 47.1,7 32.8,7 32.8,10.4 47.1,10.4 47.1,16.7 32.8,16.7 
			32.8,20.1 47.1,20.1 47.1,26.9 24.5,26.9 		"/>
		<path id="XMLID_436_" class="st1" d="M48.5,0.2H62c8.9,0,12.1,6.6,12.1,13.3c0,8.2-4.4,13.4-13.7,13.4H48.5V0.2z M56.7,20.1H60
			c5.1,0,5.9-4.2,5.9-6.7c0-1.7-0.5-6.4-6.5-6.4h-2.6V20.1z"/>
		<polygon id="XMLID_435_" class="st1" points="86,16.6 83.4,12.4 81,16.6 74.9,16.6 80.7,8.2 75.2,0.1 81.2,0.1 83.4,4.1 85.7,0.1 
			91.8,0.1 86.3,8.2 92,16.6 		"/>
	</g>
</g>
</svg>
