<?xml version="1.0" encoding="utf-8"?>
<!-- Generator: Adobe Illustrator 19.0.0, SVG Export Plug-In . SVG Version: 6.00 Build 0)  -->
<svg version="1.1" id="圖層_1" xmlns="http://www.w3.org/2000/svg" xmlns:xlink="http://www.w3.org/1999/xlink" x="0px" y="0px"
	 viewBox="0 0 25 25" style="enable-background:new 0 0 25 25;" xml:space="preserve">
<style type="text/css">
	.st0{fill:#fff;}
</style>
<path id="XMLID_637_" class="st0" d="M1.7,3.3c0,0,3.8,5.1,10.5,5.4c0,0-0.9-3,1.9-5.3C16.9,1.1,20.3,3,21,3.9c0,0,1.9-0.3,3.3-1.2
	c0,0-0.4,1.8-2.1,2.8c0,0,1.9-0.3,2.8-0.8c0,0-0.9,1.5-2.6,2.7c0,0,0.7,6.3-4.8,11.6C12.2,24.2,3.2,23.1,0,20.4c0,0,4.4,0.5,7.5-2.1
	c0,0-3.7-0.1-4.7-3.5c0,0,1.8,0.1,2.1-0.2c0,0-3.9-1-4-5.1c0,0,1.2,0.6,2.3,0.6C3.2,10.1-0.6,7.4,1.7,3.3z"/>
</svg>
