<?xml version="1.0" encoding="utf-8"?>
<!-- Generator: Adobe Illustrator 19.0.0, SVG Export Plug-In . SVG Version: 6.00 Build 0)  -->
<svg version="1.1" id="圖層_1" xmlns="http://www.w3.org/2000/svg" xmlns:xlink="http://www.w3.org/1999/xlink" x="0px" y="0px"
	 viewBox="0 0 150 150" style="enable-background:new 0 0 150 150;" xml:space="preserve">
<style type="text/css">
	.st0{fill:#E9644A;}
	.st1{fill:#FFFFFF;}
</style>
<g id="XMLID_479_">
	<path id="XMLID_480_" class="st0" d="M75,150c41.4,0,75-33.6,75-75S116.4,0,75,0S0,33.6,0,75S33.6,150,75,150"/>
	<path id="XMLID_483_" class="st1" d="M92.2,46.6v16c-0.4,0.5-0.8,0.8-1.3,1.1c-0.5,0.3-0.9,0.5-1.2,0.5c-0.4,0-0.7-0.1-0.8-0.3
		c-0.2-0.3-0.3-0.6-0.3-1.1V46.6h-4.3v17.6c0,1.3,0.3,2.2,0.8,2.8c0.5,0.6,1.3,0.9,2.2,0.9c0.8,0,1.7-0.2,2.5-0.6
		c0.8-0.5,1.7-1.1,2.5-2v2.3h4.3V46.6H92.2z M79,47.6c-1.1-1.1-2.6-1.6-4.4-1.6c-2,0-3.5,0.5-4.7,1.5c-1.1,1-1.7,2.2-1.7,3.9v10.9
		c0,1.8,0.6,3.2,1.7,4.3c1.1,1.1,2.7,1.6,4.5,1.6c1.9,0,3.5-0.5,4.6-1.6c1.1-1,1.7-2.4,1.7-4.2V51.6C80.7,50,80.1,48.7,79,47.6z
		 M76.3,62.8c0,0.5-0.2,1-0.5,1.3c-0.3,0.3-0.8,0.5-1.4,0.5c-0.6,0-1-0.2-1.3-0.5c-0.3-0.3-0.5-0.8-0.5-1.3V51.3
		c0-0.5,0.2-0.8,0.5-1.1c0.3-0.3,0.8-0.4,1.3-0.4c0.5,0,1,0.1,1.4,0.4c0.3,0.3,0.5,0.6,0.5,1.1V62.8z M62.9,39.1l-3,11.4h-0.3
		l-3.1-11.4h-4.9l5.8,17.3v11.3h4.9V55.9l5.6-16.7H62.9z M96.6,89.5c0.3,0.3,0.4,0.9,0.4,1.7v1.9h-3.3v-1.9c0-0.8,0.1-1.4,0.4-1.7
		c0.3-0.3,0.7-0.6,1.3-0.6C95.9,88.9,96.3,89.1,96.6,89.5z M83.3,89.4c-0.3-0.3-0.7-0.5-1.2-0.5c-0.3,0-0.5,0-0.8,0.2
		c-0.3,0.1-0.5,0.3-0.8,0.6v11.9c0.3,0.3,0.6,0.6,0.9,0.7c0.3,0.1,0.6,0.2,0.9,0.2c0.5,0,0.8-0.1,1.1-0.4c0.2-0.3,0.3-0.7,0.3-1.3
		v-9.9C83.7,90.2,83.6,89.7,83.3,89.4z M83.3,89.4c-0.3-0.3-0.7-0.5-1.2-0.5c-0.3,0-0.5,0-0.8,0.2c-0.3,0.1-0.5,0.3-0.8,0.6v11.9
		c0.3,0.3,0.6,0.6,0.9,0.7c0.3,0.1,0.6,0.2,0.9,0.2c0.5,0,0.8-0.1,1.1-0.4c0.2-0.3,0.3-0.7,0.3-1.3v-9.9
		C83.7,90.2,83.6,89.7,83.3,89.4z M105,74.6H45c-6.6,0-12,5.4-12,12v12.2c0,6.6,5.4,12,12,12h60c6.6,0,12-5.4,12-12V86.6
		C117,80,111.6,74.6,105,74.6z M61.2,83h-4.5v22.2h-4.3V83h-4.4v-3.8h13.3V83z M73.8,105.2h-3.9v-2.1c-0.7,0.8-1.4,1.4-2.2,1.8
		c-0.8,0.4-1.5,0.6-2.2,0.6c-0.9,0-1.6-0.3-2-0.9c-0.4-0.5-0.6-1.4-0.6-2.5V86.1h3.8v14.7c0,0.4,0.1,0.8,0.3,1
		c0.1,0.2,0.4,0.3,0.8,0.3c0.3,0,0.6-0.1,1.1-0.4c0.5-0.3,0.8-0.6,1.2-1V86.1h3.9V105.2z M87.7,101.3c0,1.4-0.3,2.4-0.9,3.1
		c-0.6,0.7-1.5,1.1-2.6,1.1c-0.8,0-1.4-0.1-2-0.4c-0.6-0.3-1.1-0.7-1.6-1.3v1.5h-3.9v-26h3.9v8.3c0.5-0.5,1.1-1,1.6-1.3
		c0.6-0.3,1.2-0.5,1.8-0.5c1.2,0,2.1,0.4,2.8,1.2c0.6,0.8,1,2,1,3.6V101.3z M101,96.1h-7.3v3.6c0,1,0.1,1.7,0.3,2.1
		c0.3,0.4,0.7,0.6,1.3,0.6c0.6,0,1.1-0.2,1.3-0.5c0.3-0.3,0.4-1.1,0.4-2.2v-0.9h4v1c0,2-0.5,3.5-1.5,4.4c-0.9,1-2.4,1.5-4.3,1.5
		c-1.7,0-3.1-0.5-4.1-1.6c-1-1.1-1.5-2.5-1.5-4.4v-8.6c0-1.6,0.5-3,1.7-4.1c1.1-1,2.5-1.6,4.2-1.6c1.7,0,3.1,0.5,4,1.5
		c0.9,1,1.4,2.3,1.4,4.1V96.1z M82.1,88.9c-0.3,0-0.5,0-0.8,0.2c-0.3,0.1-0.5,0.3-0.8,0.6v11.9c0.3,0.3,0.6,0.6,0.9,0.7
		c0.3,0.1,0.6,0.2,0.9,0.2c0.5,0,0.8-0.1,1.1-0.4c0.2-0.3,0.3-0.7,0.3-1.3v-9.9c0-0.6-0.1-1.1-0.4-1.4C83,89.1,82.6,88.9,82.1,88.9z
		 M83.3,89.4c-0.3-0.3-0.7-0.5-1.2-0.5c-0.3,0-0.5,0-0.8,0.2c-0.3,0.1-0.5,0.3-0.8,0.6v11.9c0.3,0.3,0.6,0.6,0.9,0.7
		c0.3,0.1,0.6,0.2,0.9,0.2c0.5,0,0.8-0.1,1.1-0.4c0.2-0.3,0.3-0.7,0.3-1.3v-9.9C83.7,90.2,83.6,89.7,83.3,89.4z M83.3,89.4
		c-0.3-0.3-0.7-0.5-1.2-0.5c-0.3,0-0.5,0-0.8,0.2c-0.3,0.1-0.5,0.3-0.8,0.6v11.9c0.3,0.3,0.6,0.6,0.9,0.7c0.3,0.1,0.6,0.2,0.9,0.2
		c0.5,0,0.8-0.1,1.1-0.4c0.2-0.3,0.3-0.7,0.3-1.3v-9.9C83.7,90.2,83.6,89.7,83.3,89.4z"/>
</g>
</svg>
