<svg version="1.1" xmlns="http://www.w3.org/2000/svg" x="0" y="0" viewBox="0 0 18.3 18.4" xml:space="preserve"><style type="text/css">.st0{fill:#FFF}.st1,.st2{fill:none;stroke:#FFF;stroke-linecap:round;stroke-linejoin:round;stroke-miterlimit:10}.st2{stroke-width:1.5}</style><g id="圖層_1"><path id="XMLID_492_" class="st0" d="M13.8 1.2H3.4C3 1.5 1 2.4 1 4v4.4h3.9c.3-2 2.1-3.6 4.2-3.6s3.9 1.5 4.2 3.6h3.8V4c0-1.6-1-3.2-3.3-2.8zm2.7 4.2c0 .5-.4.9-.9.9h-2.1c-.5 0-.9-.4-.9-.9V3.3c0-.5.4-.9.9-.9h2.1c.5 0 .9.4.9.9v2.1z"/><circle id="XMLID_436_" class="st1" cx="9.2" cy="9.3" r="4.3"/><path id="XMLID_223_" class="st2" d="M14.9 17.3H3.4c-1.2 0-2.3-1-2.3-2.3V3.4c0-1.2 1-2.3 2.3-2.3H15c1.2 0 2.3 1 2.3 2.3V15c-.1 1.2-1.1 2.3-2.4 2.3z"/></g></svg>