<svg version="1.1" id="圖層_1" xmlns="http://www.w3.org/2000/svg" x="0" y="0" viewBox="-109 115.9 251.3 33.3" xml:space="preserve"><path d="M-98.9 134.3c0 .4.1 10.3.1 10.8 0 1.4.7 1.5 1.7 1.5h1.8c.2 0 .3.1.3.3v1.1c0 .3-.2.3-.4.3-.5 0-2.2-.1-6.3-.1-4.3 0-6.2.1-6.6.1-.3 0-.3-.1-.3-.3v-1.2c0-.2.1-.3.3-.3h1.7c.9 0 1.8-.1 2-1.2.1-.6.2-9.9.2-12.2v-3c0-1-.1-8.8-.1-9.3-.1-1-.6-1.5-1.8-1.5h-2.2c-.3 0-.3-.1-.3-.3v-1.1c0-.2.1-.3.3-.3.5 0 2.8.1 7 .1 4.1 0 5.5-.1 6.1-.1.3 0 .3.2.3.4v1c0 .3-.2.3-.3.3H-97c-.9 0-1.6.3-1.6 1.2 0 .4-.1 9.9-.1 10.4v3.4zM-87.7 128.8c0 7.3.3 13.3.4 14.7.1 2.1.6 3.2 2.1 3.2h1.1c.3 0 .3.2.3.4v1c0 .3 0 .3-.3.3-.4 0-3-.1-4.6-.1-1.1 0-4 .1-4.5.1-.2 0-.3-.1-.3-.4v-1.1c0-.1.1-.3.3-.3h1.5c1.1 0 1.7-.9 1.9-3.6 0-.8.3-6.8.3-13.7v-5.5c0-2.6-1.5-4.6-3.4-4.6h-1.4c-.2 0-.3-.1-.3-.3v-1.2c0-.2.1-.3.3-.3.2 0 .6 0 1.3.1s1.9 0 3.8 0c.7 0 1.4 0 1.9-.1h1.2c.5 0 .8.1 1 .4.4.4 8.9 11 9.7 12.2.6.7 7.3 9 8 9.9h.2v-4.5c0-3.8 0-5.9-.1-8.1-.1-1.6-.3-5.8-.5-6.6-.3-1-1.2-1.6-2.3-1.6h-1.4c-.3 0-.3-.2-.3-.4v-1c0-.3 0-.3.3-.3.5 0 1.9.1 4.8.1 2.6 0 3.6-.1 4.1-.1.3 0 .4.2.4.3v1c0 .3-.1.4-.3.4h-1.2c-.9 0-1.3.7-1.4 2.3-.2 2.9-.6 10.1-.6 14.5v11.4c0 .6 0 1.2-.5 1.2-.6 0-1.1-.3-1.5-.7-.3-.4-2.7-3.1-5.3-6.3-3-3.7-6.4-7.7-6.9-8.4-.6-.6-7.5-9.2-8-9.8h-.3v5.5zM-49.5 119.6h-1.2c-1.4 0-4.5 0-6.3.6-1.4.6-3 3.4-3.8 4.9-.1.2-.3.4-.5.3l-.9-.3c-.2-.1-.2-.2-.2-.4.4-1.6 1.9-7.3 2.1-7.9.1-.6.3-.8.5-.8.3 0 .4.2.7.4.9.9 1.7 1.1 2.9 1.1 2.3.1 4.1.3 8.3.3h2.3c4.7 0 6.5-.2 8.5-.3.8 0 2.5-.6 3.1-1.1.3-.3.5-.4.8-.4s.3.2.4.7c.1.8.9 6.1 1.3 8.2 0 .3 0 .3-.2.4l-.9.3c-.2 0-.3-.1-.4-.3-.6-1.2-2.2-4-3.4-4.8-1.2-.7-5.1-.8-6.6-.8h-1v22.9c0 3.3.4 4.1 1.5 4.1h2.5c.2 0 .3.2.3.4v.9c0 .3-.1.4-.4.4-.4 0-1.8-.1-6.5-.1-4.4 0-6.2.1-6.8.1-.3 0-.3-.1-.3-.4v-1c0-.3.1-.3.3-.3h2.5c.9 0 1.4-.5 1.4-1.2.1-1.1.1-14.3.1-15.1v-10.8zM-21.5 135.7c0 2.3.1 6.5.1 7.3 0 2.2.8 3.1 1.7 3.4.7.2 1.7.3 3.4.3.8 0 2.8-.1 3.6-.2.8-.1 2.4-.5 3.5-1.5.8-.7 3.2-3.5 4-4.6.2-.2.3-.3.5-.2l.7.4c.1.1.2.2.1.4l-2.1 6.4c-.1.4-.4.6-.9.6-.2 0-1.2 0-3.8-.1h-18c-.9 0-1.5.1-1.8.1-.3 0-.3-.1-.3-.3v-1c0-.3.1-.3.4-.3h1.5c2 0 2.1-.3 2.1-1.8V130.2c0-3.5-.1-8.9-.2-9.5-.2-1.2-.6-1.5-1.9-1.5h-1.6c-.2 0-.3-.1-.3-.3v-1.1c0-.2 0-.3.3-.3.9 0 2.5.2 6 .1h1.2c1.9 0 11.8-.1 13.7-.1h1.7c.2 0 .3.1.3.3.2.6 1.8 6.4 2 6.8.1.3 0 .4-.1.5l-.8.3c-.1 0-.3 0-.4-.2-.2-.3-3.7-4.2-4.7-4.8-.9-.5-2.1-1.1-3.3-1.1l-6.5-.2-.1 12.4c1.3 0 4.4-.1 4.9-.2.9-.2 1.5-.5 2-1.5.3-.6.7-1.6.7-2.4 0-.3.2-.3.3-.3l1.1.1c.2 0 .3.1.3.3-.1.7-.1 3.5-.1 4.6 0 1.7.2 3.8.3 4.7 0 .2-.1.3-.3.3l-.9.2c-.2 0-.3 0-.3-.3-.2-.7-.5-1.6-.7-2.1-.4-.9-1.2-1.5-2.1-1.5-1.5-.2-3.6-.3-5-.3l-.2 2.6zM5.8 136.9c0 2.6.1 7.4.2 8 .1.9.4 1.6 1.1 1.6h2.1c.3 0 .3.1.3.3v1c0 .3-.1.4-.5.4-.6 0-1.4-.1-5.9-.1-4.2 0-5.2.1-5.7.1-.3 0-.3-.1-.3-.4v-1c0-.2.1-.3.3-.3H-1c.9 0 1.6-.3 1.6-1.4.1-4.3.1-8.3.1-12.4v-11.3c0-1.5-.6-2.1-1.4-2.1h-1.7c-.2 0-.3-.1-.3-.3v-1.2c0-.2.1-.3.3-.3.3 0 1.7.1 5.9.1 2.4 0 6.4-.1 7.7-.1 3.4 0 6.1 1.2 7.8 2.7 1.5 1.4 2.3 3.2 2.3 4.8 0 5.4-3.3 7.7-8 8.4v.2c1.2.4 2 1.2 2.6 2 .5.7 3.2 4.7 3.5 5.2.3.4 3 4.3 3.7 4.9.8.7 2 .8 3.1.8.3 0 .3.1.3.3v.9c0 .3-.1.4-.3.4-.3 0-1.5-.1-4.2-.1-1.2 0-2.8.1-3.8.1-.5-.4-1.3-1.5-1.9-2.5-.8-1.2-2.5-4.3-2.8-5-.4-.8-1.6-2.8-2.3-3.7-1.1-1.5-2.1-2.7-3.9-2.7-.2 0-.9 0-1.4.1v2.6zm.1-3.8c.6.1 1.1.2 1.6.2 6.7 0 8.1-5.4 8.1-7.4s-.8-3.8-1.9-4.8c-1.5-1.4-3.5-1.8-5.7-1.8-.7 0-1.2 0-1.5.3-.3.2-.5.7-.5 1.2l-.1 12.3zM45.1 118c0-.3.1-.3.3-.3.3 0 2.3.1 5.1.1 3.6 0 4.7-.1 5.1-.1.3 0 .3.1.3.3v1.1c0 .2-.1.3-.3.3h-1c-1 0-2.1.4-3.1 2-1.4 2.3-4 9-5.2 11.8-.9 1.9-6 14.4-6.5 15.4-.2.3-.5.6-.9.6-.5 0-.7-.5-.9-1-1.5-3.7-5.1-13.5-6.5-17.5-1.1-3.1-3-8.6-3.5-9.8-.4-.9-.9-1.4-1.8-1.4h-1c-.2 0-.3-.1-.3-.4v-1c0-.3.1-.3.3-.3.4 0 1.9.1 6.4.1 4 0 6-.1 6.4-.1s.4.1.4.3v.9c0 .3-.1.4-.3.4H36c-1.1 0-1.8.4-1.8 1.1 0 .3 0 .9.1 1.5.3 1.5 1.9 6.6 2.8 9.1.6 1.6 2.9 8.4 3.6 10.8h.1v-.1c1-2.4 3.8-9.5 4.2-10.8.7-2 3.4-8.5 3.4-10.3 0-.5-.4-1.2-1.6-1.2h-1.2c-.2 0-.3-.2-.3-.4V118z"/><path d="M64.5 134.3c0 .4.1 10.3.1 10.8 0 1.4.7 1.5 1.7 1.5h1.8c.2 0 .3.1.3.3v1.1c0 .3-.2.3-.4.3-.5 0-2.2-.1-6.3-.1-4.3 0-6.2.1-6.6.1-.3 0-.3-.1-.3-.3v-1.2c0-.2.1-.3.3-.3h1.7c.9 0 1.8-.1 2-1.2.1-.6.2-9.9.2-12.2v-3c0-1-.1-8.8-.1-9.3-.1-1-.6-1.5-1.8-1.5h-2.2c-.3 0-.3-.1-.3-.3v-1.1c0-.2.1-.3.3-.3.5 0 2.8.1 7 .1 4.1 0 5.5-.1 6.1-.1.3 0 .3.2.3.4v1c0 .3-.2.3-.3.3h-1.6c-.9 0-1.6.3-1.6 1.2 0 .4-.1 9.9-.1 10.4v3.4zM79.5 135.7c0 2.3.1 6.5.1 7.3 0 2.2.8 3.1 1.7 3.4.7.2 1.7.3 3.4.3.8 0 2.8-.1 3.6-.2.8-.1 2.4-.5 3.5-1.5.8-.7 3.2-3.5 4-4.6.2-.2.3-.3.5-.2l.7.4c.1.1.2.2.1.4l-2.1 6.4c-.1.4-.4.6-.9.6-.2 0-1.2 0-3.8-.1h-18c-.9 0-1.5.1-1.8.1-.3 0-.3-.1-.3-.3v-1c0-.3.1-.3.4-.3H72c2 0 2.1-.3 2.1-1.8V130.2c0-3.5-.1-8.9-.2-9.5-.2-1.2-.6-1.5-1.9-1.5h-1.6c-.2 0-.3-.1-.3-.3v-1.1c0-.2 0-.3.3-.3.9 0 2.5.2 6 .1h1.2c1.9 0 11.8-.1 13.7-.1H93c.2 0 .3.1.3.3.2.6 1.8 6.4 2 6.8.1.3 0 .4-.1.5l-.8.3c-.1 0-.3 0-.4-.2-.2-.3-3.7-4.2-4.7-4.8-.9-.5-2.1-1.1-3.3-1.1l-6.5-.2-.1 12.4c1.3 0 4.4-.1 4.9-.2.9-.2 1.5-.5 2-1.5.3-.6.7-1.6.7-2.4 0-.3.2-.3.3-.3l1.1.1c.2 0 .3.1.3.3-.1.7-.1 3.5-.1 4.6 0 1.7.2 3.8.3 4.7 0 .2-.1.3-.3.3l-.9.2c-.2 0-.3 0-.3-.3-.2-.7-.5-1.6-.7-2.1-.4-.9-1.2-1.5-2.1-1.5-1.5-.2-3.6-.3-5-.3l-.1 2.6zM99.1 120.9c-.4-1.2-1.1-1.5-1.8-1.5h-1.2c-.2 0-.3-.1-.3-.3V118c0-.2.1-.3.3-.3.3 0 1.6.1 5.5.1 3.1 0 4.9-.1 5.3-.1.3 0 .3.1.3.3v1.1c0 .2-.1.3-.4.3h-.8c-.9 0-1.3.6-1 1.5l6.3 19.9h.1c.3-.9 6.1-16.7 6.1-18.4 0-.8-.3-1.7-.8-2.3-.3-.5-.9-.8-1.5-.8h-.9c-.2 0-.3-.1-.3-.3v-1c0-.2.1-.3.3-.3.3 0 1.9.1 5.6.1 3.6 0 5.2-.1 5.6-.1.3 0 .3.1.3.4v1c0 .2-.1.3-.3.3H124c-.9 0-1.2.9-.9 1.7l6.2 19.9h.2c1.3-3.8 6.2-18 6.2-20.3 0-.6-.4-1.2-1.5-1.2H133c-.3 0-.3-.1-.3-.3v-1c0-.2.1-.3.3-.3.4 0 1.9.1 4.6.1 2.4 0 3.7-.1 4-.1.2 0 .3.1.3.2v1.2c0 .2 0 .3-.3.3h-.9c-.7 0-1.5.4-1.9 1.4-.4.9-9.2 25-10.1 27.2-.2.4-.5 1.1-1.1 1.1-.6 0-.9-.4-1.1-.9l-7.8-22.6h-.2c-.4 1.2-8 22.3-8.2 22.7-.2.4-.6.8-1.1.8-.4 0-.7-.3-.9-.7l-9.2-27.7z"/></svg>