<svg version="1.1" id="logo" xmlns="http://www.w3.org/2000/svg" x="0" y="0" viewBox="0 0 292 59" xml:space="preserve"><g id="XMLID_3_"><path id="XMLID_30_" d="M194.4 15h-.9v-1h-2v1.4h-.9V3.8h3.7V15zm-.9-1.8V4.7h-2v8.5h2zm11.2 2.9h-7.6v1.1h-.9V7.4c-.3.5-.6.8-.9 1l-.6-.7c1.1-1.2 2.2-3.1 3.1-5.5l.8.3c-.2.7-.6 1.7-1.3 2.9h2.9c-.1-.5-.4-1.3-.9-2.6l.8-.2c.4.8.7 1.8 1 2.9h3.2v.8H201v2.3h3.2v.9H201v2.4h3.2v.9H201v2.5h3.7v.8zm-4.6-7.5V6.3h-3v2.3h3zm0 3.3V9.5h-3v2.4h3zm0 3.3v-2.5h-3v2.5h3z"/><path id="XMLID_22_" d="M212.5 6.3l-.6.1c-.1 2.7-.5 4.8-1.1 6.3.5.5 1 1.1 1.6 1.8l-.5.7c-.5-.6-1-1.1-1.5-1.6-.6 1-1.4 2.2-2.7 3.6l-.7-.7c1.3-1.2 2.2-2.4 2.7-3.6-.7-.7-1.5-1.3-2.3-1.9.3-1.1.7-2.6 1-4.2-.5 0-1 .1-1.4.1v-.8c.4 0 .9 0 1.5-.1.2-1.2.4-2.4.5-3.7l.8.1c-.1 1.3-.3 2.4-.5 3.4.4 0 1-.1 1.6-.2V4.1h.8v1.4c.2 0 .4-.1.6-.1v.9zm-1.5.3c-.7.1-1.3.2-1.7.2-.3 1.5-.6 2.8-.9 4 .4.3 1 .8 1.6 1.4.6-1.6.9-3.5 1-5.6zm10.8 2c-.4 1.3-.9 1.9-1.6 1.9-.6 0-1.1-.3-1.6-1s-.9-1.6-1.3-2.7H214v2.7c1.1-.2 2.1-.5 3-.9l.2.8c-1.3.5-2.6.8-4 1.1l-.3-.8c.2-.2.3-.4.3-.6V3.8c2.7-.2 5.2-.6 7.4-1.3l.5.8c-1 .3-2.1.6-3.3.8 0 .8.1 1.4.2 1.9h3.6v.8h-3.3c.2.7.4 1.2.7 1.7.3.5.5.8.7 1 .2.2.3.2.5.2s.3-.1.4-.3c.1-.2.3-.6.6-1.4l.6.6zm-1 8.6h-.8v-.9h-5.7v.9h-.9V11h7.4v6.2zm-3.7-11.3c-.1-.7-.2-1.3-.2-1.7-.9.1-1.9.3-2.9.4v1.3h3.1zm2.9 7.3v-1.4h-5.7v1.4h5.7zm0 2.3V14h-5.7v1.5h5.7z"/><path id="XMLID_11_" d="M229.2 5H224v-.8h2.5c-.1-.3-.3-.9-.7-1.6l.8-.3c.3.6.6 1.2.8 1.9h1.8V5zm-.2 2.5h-4.7v-.9h4.7v.9zm0 2.4h-4.7v-.8h4.7v.8zm-.2 7h-.8V16h-2.4v1.3h-.9v-5.6h4.2v5.2zm-.8-1.8v-2.6h-2.4v2.6h2.4zm3.5-3.5c-.3 1.8-.7 3.3-1.2 4.5l-.8-.3c.5-1.2.9-2.6 1.1-4.4l.9.2zm7.2-6.4h-4v2.7h3.7v.8h-8.2v-.8h3.7V5.2h-4v-.8h4v-2h.9v1.9h4v.9zm-2.3 8.8c0 1-.1 1.7-.2 2.1-.1.4-.3.6-.6.7-.3.1-.8.2-1.6.2-.7 0-1.2-.1-1.4-.4-.2-.2-.3-.5-.3-.9v-4.4h.9v4.5c0 .2.1.3.2.3s.5.1 1.1.1c.4 0 .6 0 .7-.1.1-.1.2-.3.3-.6.1-.3.1-.9.1-1.7l.8.2zm-.8-3l-.5.7c-.8-.7-1.7-1.3-2.7-1.8l.5-.7c1.1.7 2 1.3 2.7 1.8zm3.1 4.4l-.8.4c-.4-1.5-1-2.9-1.7-4.3l.8-.4c.8 1.4 1.4 2.8 1.7 4.3z"/><g id="XMLID_1_"><path id="XMLID_50_" d="M258.3 50.8l-3.5-7c-1.1-2.2-2.8-3.4-4.8-3.5 2.7-.4 4.9-1.5 6.7-3.2 1.8-1.8 2.6-3.8 2.6-6.2 0-2.6-1.1-5.1-3.3-6.9-2.2-1.9-4.9-3-7.9-3h-19v1.4c3 0 5 1.6 5 4.7v25.7c0 2.5-1.1 4-3.2 4.4-2.4-.6-4.5-2.7-6.3-6.4l-3.5-7c-1.1-2.2-2.7-3.4-4.8-3.5 2.7-.4 4.9-1.5 6.7-3.2 1.8-1.8 2.6-3.8 2.6-6.2 0-2.6-1.1-5.1-3.3-6.9-2.2-1.9-4.9-3-7.9-3H195v1.4c4 0 5 1.6 5 4.7v25.7c0 2-.6 3.3-1.9 4-1.4-.6-2.4-1.9-3.2-3.7L181.7 21h-.9l6.9-18-.8-.2-15.3 40.7-3.7 9.8c-.6 1.6-1.3 2.7-2.4 3.3-1.1-.8-1.4-2-1.4-3.9V27c0-3.1 1-4.7 4-4.7v-1h-10.5l-11.9 29.2-11.8-26.7c-.4-.8-.6-1.7-.6-2.5h-12.1v1c3 0 5 1.6 5 4.7v25.7c0 3.2-2 4.8-5 4.8v.5h10v-.4c-3 0-4-1.6-4-4.8V25.4L141.7 58h1.9L157 25.4v27.3c0 3.1-1 4.7-5 4.7v.6H171.9v-.7c-3 0-3.9-1.4-2.9-4.1l2.6-7.2h13.1l2.9 7.2c1.1 2.7.3 4.1-2.7 4.1v.7H211v-.6c-3 0-4-1.5-4-4.6V40h.6c1.7 0 3.1.6 4.1 1.3 1.1.7 2 1.8 2.5 3l3.2 7.1c1.3 2.9 1.9 5.6 1.9 6.6h25.6v-.6c-3 0-5-1.5-5-4.6V40h1.4c1.7 0 3.1.6 4.1 1.3 1.1.7 2 1.8 2.5 3l3.2 7.1c1.3 2.9 1.9 5.6 1.9 6.6h13v-.6c-3 0-5.5-2.2-7.7-6.6zM172.2 45c.3-1 2.3-5.9 6-15.6 3.7 9.3 5.8 14.6 6.3 15.6h-12.3zm36.8-6h-2V23h2c2.9 0 5.2.6 7 2.2 1.8 1.6 2.7 3.5 2.7 5.9 0 2.4-.9 4.2-2.7 5.8-1.8 1.5-4.1 2.1-7 2.1zm33.8 0H240V23h2.8c2.9 0 5.2.6 7 2.2 1.8 1.6 2.7 3.5 2.7 5.9 0 2.4-.9 4.2-2.7 5.8-1.9 1.5-4.2 2.1-7 2.1z"/><path id="XMLID_53_" d="M283 21v1.4c3 0 3 1.6.8 4.7L276.1 38l-6.8-10.8c-2-3.1-1.3-4.7 1.7-4.7V21h-16v1.4c3 0 4.3 1.6 6.2 4.7l7 11.2c1.1 1.8 2 2.9 2.1 3.4.3.9.7 2.5.7 4.8v6.4c0 3.1-2 4.6-5 4.6v.5h16v-.6c-3 0-5-1.5-5-4.6V41.2c0-1.2 0-2 .1-2.2.2-.5.3-.8.6-1.1l7.3-10.7c2.1-3.1 4.5-4.7 7-4.8V21h-9z"/><path id="XMLID_54_" d="M39 42H22v1.3c4 .8 5 2.7 5 5.9v1.3c0 2.2-.6 3.9-2 5.2-1.4 1.3-3.3 1.9-5.8 1.9-2.6 0-4.8-.8-6.6-2.4-1.9-1.6-3.2-3.6-3.9-6.1-.8-2.6-1.2-5.6-1.2-8.9 0-4.9 1.2-9.1 3.5-12.6 2.3-3.6 5.4-5.4 9.1-5.4 6.6 0 10.7 3.4 12.4 10.1l.9-.3-.6-11h-1c-.1 2-1.3 2.1-3.6 1.3-3.2-1.1-5.9-1.5-7.9-1.6-4 0-7.6.9-10.7 2.7-3.1 1.8-5.4 4.1-7.1 7.1-1.7 3-2.5 6.3-2.5 9.7 0 5.4 1.8 9.9 5.6 13.5 3.6 3.6 8.2 5.3 13.8 5.2 3.1-.1 6-.7 8.5-1.7 2.3-.9 4.1-2.2 6.1-3.7v-4.4c0-3.2 2-5.2 5-5.9V42z"/><path id="XMLID_55_" d="M58.1 57.4c-5.6 0-8.1-2.1-8.1-6.2V39h4.3c3.6 0 5.4 2 5.4 6H61V32h-1.3c0 4-1.8 6-5.4 6H50V22h8.9c5.5 0 8.5 2.9 8.8 8.1l1-.2-.6-8.9H38v1.4c4-.1 5 1.5 5 4.7v25.7c0 3-1 4.5-5 4.6v.6h32.4l.6-10.4h-.8c-.3 6.5-4.3 9.8-12.1 9.8z"/><path id="XMLID_56_" d="M71.8 21l-.6 9h1c.4-5.2 3.1-8 8.2-8H86v30.8c0 3.1-1 4.6-4 4.6v.6h16v-.6c-4 0-5-1.5-5-4.6V22h5.8c5.1 0 7.9 2.8 8.2 8.1l1-.1-.6-9H71.8z"/></g></g></svg>