<svg version="1.1" id="圖層_1" xmlns="http://www.w3.org/2000/svg" x="0" y="0" viewBox="-285.8 289.9 14.3 16.3" xml:space="preserve"><style type="text/css">.st0{fill:#FFF}</style><g id="圖層_1_2_"><g id="Shape_1_"><g id="XMLID_1_"><path id="XMLID_2_" class="st0" d="M-278.1 290.3c-4.6 0-7.1 3.4-7.1 6.1 0 1.8.7 3.3 2 3.8.3.1.4 0 .4-.3s.1-.6.3-.8c.1-.3 0-.4-.1-.6-.4-.4-.6-1.1-.6-2 0-2.6 1.9-4.8 4.9-4.8 2.7 0 4.1 1.6 4.1 3.8 0 2.9-1.2 5.2-3.1 5.2-1.1 0-1.9-.8-1.5-1.9.3-1.2.8-2.6.8-3.5 0-.8-.4-1.5-1.2-1.5-1.2 0-2 1.1-2 2.6 0 .9.4 1.5.4 1.5s-1.2 4.6-1.2 5.4c-.1.7-.3 1.5-.1 2.2.4.1.8.4 1.2.4.4-.6.8-1.4.9-2.1.1-.4.7-2.7.7-2.7.4.7 1.4 1.2 2.4 1.2 3.1 0 5.3-2.9 5.3-6.8-.4-2.6-2.8-5.2-6.5-5.2z"/></g></g></g></svg>