<svg version="1.1" id="圖層_1" xmlns="http://www.w3.org/2000/svg" x="0" y="0" viewBox="-109 115.9 174.1 33.3" xml:space="preserve"><path d="M-100.3 137.1c0 2.6.1 7.4.2 8 .1.9.4 1.6 1.1 1.6h2.1c.3 0 .3.1.3.3v1c0 .3-.1.4-.5.4-.6 0-1.4-.1-5.9-.1-4.2 0-5.2.1-5.7.1-.3 0-.3-.1-.3-.4v-1c0-.2.1-.3.3-.3h1.5c.9 0 1.6-.3 1.6-1.4.1-4.3.1-8.3.1-12.4v-11.3c0-1.5-.6-2.1-1.4-2.1h-1.7c-.2 0-.3-.1-.3-.3V118c0-.2.1-.3.3-.3.3 0 1.7.1 5.9.1 2.4 0 6.4-.1 7.7-.1 3.4 0 6.1 1.2 7.8 2.7 1.5 1.4 2.3 3.2 2.3 4.8 0 5.4-3.3 7.7-8 8.4v.2c1.2.4 2 1.2 2.6 2 .5.7 3.2 4.7 3.5 5.2.3.4 3 4.3 3.7 4.9.8.7 2 .8 3.1.8.3 0 .3.1.3.3v.9c0 .3-.1.4-.3.4-.3 0-1.5-.1-4.2-.1-1.2 0-2.8.1-3.8.1-.5-.4-1.3-1.5-1.9-2.5-.8-1.2-2.5-4.3-2.8-5-.4-.8-1.6-2.8-2.3-3.7-1.1-1.5-2.1-2.7-3.9-2.7-.2 0-.9 0-1.4.1v2.6zm.1-3.9c.6.1 1.1.2 1.6.2 6.7 0 8.1-5.4 8.1-7.4s-.8-3.8-1.9-4.8c-1.5-1.4-3.5-1.8-5.7-1.8-.7 0-1.2 0-1.5.3-.3.2-.5.7-.5 1.2l-.1 12.3z"/><path d="M-70.8 135.9c0 2.3.1 6.5.1 7.3 0 2.2.8 3.1 1.7 3.4.7.2 1.7.3 3.4.3.8 0 2.8-.1 3.6-.2.8-.1 2.4-.5 3.5-1.5.8-.7 3.2-3.5 4-4.6.2-.2.3-.3.5-.2l.7.4c.1.1.2.2.1.4l-2.1 6.5c-.1.4-.4.6-.9.6-.2 0-1.2 0-3.8-.1h-18c-.9 0-1.5.1-1.8.1-.3 0-.3-.1-.3-.3v-1c0-.3.1-.3.4-.3h1.5c2 0 2.2-.3 2.2-1.8V130.5c0-3.5-.1-8.9-.2-9.5-.2-1.2-.6-1.5-1.9-1.5h-1.6c-.2 0-.3-.1-.3-.3v-1.1c0-.2 0-.3.3-.3.9 0 2.5.2 6 .1h1.2c1.9 0 11.8-.1 13.7-.1h1.7c.2 0 .3.1.3.3.2.6 1.8 6.4 2 6.8.1.3 0 .4-.1.5l-.8.3c-.1 0-.3 0-.4-.2-.2-.3-3.7-4.2-4.7-4.8-.9-.5-2.1-1.1-3.3-1.1l-6.5-.2-.1 12.4c1.3 0 4.4-.1 4.9-.2.9-.2 1.5-.5 2-1.5.3-.6.7-1.6.7-2.4 0-.3.2-.3.3-.3l1.1.1c.2 0 .3.1.3.3-.1.7-.1 3.5-.1 4.6 0 1.7.2 3.8.3 4.7 0 .2-.1.3-.3.3l-.9.2c-.2 0-.3 0-.3-.3-.2-.7-.5-1.6-.7-2.1-.4-.9-1.2-1.5-2.2-1.5-1.5-.2-3.6-.3-5-.3l-.2 2.5zM-48.8 128.3v-7.9c-.1-.7-.6-.9-1.5-.9h-2.2c-.2 0-.3-.1-.3-.3v-1.1c0-.3.1-.3.3-.3.5 0 2.1.1 6.4.1.8 0 3.3-.1 4.7-.1 5.2 0 7.7.5 10.1 2.2 2 1.5 3.3 3.9 3.3 6.5 0 5.3-4.1 8.7-11.4 8.7-1.5 0-2.8 0-3.9-.2v10.4c.1.9.6 1.4 1.3 1.4h2.4c.3 0 .3.2.3.3v1c0 .3 0 .4-.3.4-.6 0-2-.1-6.6-.1-3.8 0-5.5.1-5.9.1-.3 0-.3-.2-.3-.3v-1.1c0-.3 0-.3.3-.3h1.4c1.5 0 1.8-.2 1.9-1.3 0-.4.1-7.1.1-12.1v-5.1zm5.4 5.2c.8.3 2 .3 3.1.3 1.9 0 4.1-1.5 5.2-2.9.9-1.3 1-2.9 1-4.5 0-5.8-4.7-7.2-6.8-7.2-.8 0-1.8 0-2.5.3v14zM-1 120.7c3.2 2.6 5.8 6.9 5.8 12.7 0 3.2-.9 6.5-3.2 9.5-2.8 3.4-6.4 6.1-12.9 6.1-2.6 0-6.3-.8-9.7-2.8-3.1-1.8-6.3-6.5-6.3-12.7 0-2.6.7-6.7 4-10.7 3.8-4.6 8.4-5.5 12.1-5.5 3.2 0 6.7.6 10.2 3.4zm-16.5.9c-2.6 2.5-3.9 7-3.9 10.4 0 11.2 6.9 15.1 10.5 15.1 8.7 0 10.1-9.6 10.1-13.2 0-9.4-6.4-14.7-10.5-14.7-.8 0-3.3-.5-6.2 2.4zM16.1 137.1c0 2.6.1 7.4.2 8 .1.9.4 1.6 1.1 1.6h2.2c.3 0 .3.1.3.3v1c0 .3-.1.4-.5.4-.6 0-1.4-.1-5.9-.1-4.2 0-5.2.1-5.7.1-.3 0-.3-.1-.3-.4v-1c0-.2.1-.3.3-.3h1.5c.9 0 1.6-.3 1.6-1.4.1-4.3.1-8.3.1-12.4v-11.3c0-1.5-.6-2.1-1.4-2.1H7.9c-.2 0-.3-.1-.3-.3V118c0-.2.1-.3.3-.3.3 0 1.7.1 5.9.1 2.4 0 6.4-.1 7.7-.1 3.4 0 6.1 1.2 7.8 2.7 1.5 1.4 2.3 3.2 2.3 4.8 0 5.4-3.3 7.7-8 8.4v.2c1.2.4 2 1.2 2.6 2 .5.7 3.2 4.7 3.5 5.2.3.4 3 4.3 3.7 4.9.8.7 2 .8 3.1.8.3 0 .3.1.3.3v.9c0 .3-.1.4-.3.4-.3 0-1.5-.1-4.2-.1-1.2 0-2.8.1-3.8.1-.5-.4-1.3-1.5-1.9-2.5-.8-1.2-2.5-4.3-2.8-5-.4-.8-1.6-2.8-2.3-3.7-1.1-1.5-2.1-2.7-3.9-2.7-.2 0-.9 0-1.4.1v2.6zm.1-3.9c.6.1 1.1.2 1.6.2 6.7 0 8.1-5.4 8.1-7.4s-.8-3.8-1.9-4.8c-1.5-1.4-3.5-1.8-5.7-1.8-.7 0-1.2 0-1.5.3-.3.2-.5.7-.5 1.2l-.1 12.3zM46.9 119.7h-1.2c-1.4 0-4.5 0-6.3.6-1.4.6-3 3.4-3.8 4.9-.1.2-.3.4-.5.3l-.9-.3c-.2-.1-.2-.2-.2-.4.4-1.6 1.9-7.3 2.1-7.9.1-.6.3-.8.5-.8.3 0 .4.2.7.4.9.9 1.7 1.1 2.9 1.1 2.3.1 4.1.3 8.3.3h2.3c4.7 0 6.5-.2 8.5-.3.8 0 2.5-.6 3.1-1.1.3-.3.5-.4.8-.4s.3.2.4.7c.1.8.9 6.1 1.3 8.2 0 .3 0 .3-.2.4l-.9.3c-.2 0-.3-.1-.4-.3-.6-1.2-2.2-4-3.4-4.8-1.2-.7-5.1-.8-6.6-.8h-1.2v22.9c0 3.3.4 4.1 1.5 4.1h2.5c.2 0 .3.2.3.4v.9c0 .3-.1.4-.4.4-.4 0-1.8-.1-6.4-.1-4.4 0-6.2.1-6.8.1-.3 0-.3-.1-.3-.4v-1c0-.3.1-.3.3-.3h2.5c.9 0 1.4-.5 1.4-1.2.1-1.1.1-14.3.1-15.1v-10.8z"/></svg>