<svg version="1.1" id="圖層_1" xmlns="http://www.w3.org/2000/svg" x="0" y="0" viewBox="-108.8 115.9 381.9 33.3" xml:space="preserve"><path d="M-106.7 138.7c.2 0 .3.1.3.3.1 1.4.4 3 1.6 4.9 1.3 2.1 3.5 3.1 5.7 3.1 2.3 0 5.6-1.5 5.6-5 0-4-1.8-5.2-6.4-7-1.4-.5-4.2-1.7-6.3-3.6-1.5-1.4-2.1-3.5-2.1-6.1 0-2.4.9-4.4 3-6 1.7-1.5 3.6-2.1 6.1-2.1 2.8 0 4.6.7 5.4 1 .4.2.7.1.9-.1l.6-.6c.2-.2.3-.3.6-.3s.3.3.3.7c0 .7.7 6.7.7 7.1 0 .2-.1.3-.3.3l-.7.2c-.2 0-.3 0-.4-.3-.4-1.2-1.1-2.9-2.7-4.6-1.1-1.2-2.5-1.8-4.5-1.8-3.4 0-4.8 2.8-4.8 4.3s.2 2.8 1.2 3.9c1.1 1.1 3.5 2.1 5.2 2.7 2.5.8 4.6 1.6 6.2 3.4 1.4 1.5 2.2 3.3 2.2 6.1 0 5.2-3.4 9.5-9.1 9.5-3.5 0-5.6-.8-7.3-2.1-.5-.3-.8-.5-1-.5-.3 0-.4.3-.7.8-.3.4-.4.5-.8.5-.3 0-.5-.3-.5-.7.1-.5.7-7.5.8-8 0-.3.1-.3.3-.3l.9.3zM-77.8 135.8c0 2.3.1 6.5.1 7.3 0 2.2.8 3.1 1.7 3.4.7.2 1.7.3 3.4.3.8 0 2.8-.1 3.6-.2.8-.1 2.4-.5 3.5-1.5.8-.7 3.2-3.5 4-4.6.2-.2.3-.3.5-.2l.7.4c.1.1.2.2.1.4l-2.1 6.4c-.1.4-.4.6-.9.6-.2 0-1.2 0-3.8-.1h-18c-.9 0-1.5.1-1.8.1-.3 0-.3-.1-.3-.3v-1c0-.3.1-.3.4-.3h1.5c2 0 2.1-.3 2.1-1.8V130.3c0-3.5-.1-8.9-.2-9.5-.2-1.2-.6-1.5-1.9-1.5h-1.6c-.2 0-.3-.1-.3-.3v-1c0-.2 0-.3.3-.3.9 0 2.5.2 6 .1h1.2c1.9 0 11.8-.1 13.7-.1h1.7c.2 0 .3.1.3.3.2.6 1.8 6.4 2 6.8.1.3 0 .4-.1.5l-.8.3c-.1 0-.3 0-.4-.2-.2-.3-3.7-4.2-4.7-4.8-.9-.5-2.1-1.1-3.3-1.1l-6.5-.2-.1 12.4c1.3 0 4.4-.1 4.9-.2.9-.2 1.5-.5 2-1.5.3-.6.7-1.6.7-2.4 0-.3.2-.3.3-.3l1.1.1c.2 0 .3.1.3.3-.1.7-.1 3.5-.1 4.6 0 1.7.2 3.8.3 4.7 0 .2-.1.3-.3.3l-.9.2c-.2 0-.3 0-.3-.3-.2-.7-.5-1.6-.7-2.1-.4-.9-1.2-1.5-2.2-1.5-1.5-.2-3.6-.3-5-.3l-.1 2.5zM-52.2 136.4c-.3 1-2.5 7.1-2.7 8.3-.1.3-.1.7-.1.9 0 .6.7 1 1.5 1h1.8c.3 0 .4.1.4.2v1.1c0 .3-.1.4-.3.4-.6 0-2.4-.1-5.4-.1-3.2 0-4.1.1-4.7.1-.3 0-.3-.3-.3-.6v-.7c0-.3.1-.3.3-.3h1.3c1.2 0 2-.6 2.8-1.9.4-.8 3.5-8.5 4.8-12.1.3-.9 3.8-10.1 4.2-11.3.1-.4.3-1.2.1-1.5-.1-.1-.3-.4-.3-.5 0-.2.1-.3.4-.4 1.4-.3 3.7-1.6 4.3-2.1.3-.3.4-.4.6-.4.3 0 .4.5.5.8.8 2.7 4.1 12.3 4.9 15 1 3.4 3.8 11.4 4.4 12.5.8 1.5 1.9 2 2.8 2h1.4c.3 0 .3.1.3.3v.9c0 .3-.1.5-.4.5-.8 0-1.6-.1-6.4-.1-3.6 0-5.1.1-6 .1-.3 0-.4-.3-.4-.5v-1c0-.3.1-.3.3-.3h1.1c1.2 0 1.5-.4 1.3-1.6-.3-1.5-2.1-7.1-2.6-8.6h-9.9zm9.6-1.7c-.4-1.2-3.4-11.1-3.6-11.9-.2-.5-.3-.8-.4-.8-.3 0-.4.2-.6.6-.2.6-4 11.1-4.3 12.1h8.9zM-20.2 137c0 2.6.1 7.4.2 8 .1.9.4 1.6 1.1 1.6h2.1c.3 0 .3.1.3.3v1c0 .3-.1.4-.5.4-.6 0-1.4-.1-5.9-.1-4.2 0-5.2.1-5.7.1-.3 0-.3-.1-.3-.4v-1c0-.2.1-.3.3-.3h1.5c.9 0 1.6-.3 1.6-1.4.1-4.3.1-8.3.1-12.4v-11.3c0-1.5-.6-2.1-1.4-2.1h-1.7c-.2 0-.3-.1-.3-.3V118c0-.2.1-.3.3-.3.3 0 1.7.1 5.9.1 2.4 0 6.4-.1 7.7-.1 3.4 0 6.1 1.2 7.8 2.7 1.5 1.4 2.3 3.2 2.3 4.8 0 5.4-3.3 7.7-8 8.4v.2c1.2.4 2 1.2 2.6 2 .5.7 3.2 4.7 3.5 5.2.3.4 3 4.3 3.7 4.9.8.7 2 .8 3.1.8.3 0 .3.1.3.3v.9c0 .3-.1.4-.3.4-.3 0-1.5-.1-4.2-.1-1.2 0-2.8.1-3.8.1-.5-.4-1.3-1.5-1.9-2.5-.8-1.2-2.5-4.3-2.8-5-.4-.8-1.6-2.8-2.3-3.7-1.1-1.5-2.1-2.7-3.9-2.7-.2 0-.9 0-1.4.1v2.5zm.1-3.9c.6.1 1.1.2 1.6.2 6.7 0 8.1-5.4 8.1-7.4s-.8-3.8-1.9-4.8c-1.5-1.4-3.5-1.8-5.7-1.8-.7 0-1.2 0-1.5.3s-.5.7-.5 1.2l-.1 12.3zM29 141.2c.1.1.2.3.1.4-2.6 3.7-6.7 7.2-12.8 7.2-5.5 0-8.6-1.6-11.3-4C1.8 142 .4 137 .4 133.2c0-4.2 1.4-8.3 4.4-11.5 2.3-2.5 6-4.6 11.2-4.6 4 0 7.1 1.2 8.7 2.1.6.3.8.3.9 0l.3-1.1c.1-.3.2-.3.7-.3s.6.1.6.7c0 .8.9 7.7 1 8.9 0 .3 0 .4-.2.4l-.8.3c-.2.1-.3-.1-.5-.4-.5-1.5-1.5-3.7-3.4-5.6-1.9-1.8-4.1-3.2-7.5-3.2-6.9 0-9.7 6.2-9.7 12.4 0 2.7.8 7.7 4 11.2 2.8 3 5.3 3.4 7.4 3.4 4.7 0 8.5-2.4 10.3-5 .2-.3.4-.4.5-.3l.7.6zM39.9 133.3c-.5 0-.6.2-.6.6v1.8c0 1.5.1 6.5.2 9.5 0 1 .5 1.5 1.5 1.5h1.5c.3 0 .4.1.4.3v1c0 .3-.1.4-.4.4-.8 0-2.2-.1-5.8-.1-4.2 0-5.5.1-6.4.1-.3 0-.4-.2-.4-.4v-1c0-.3.1-.3.4-.3h2.2c1 0 1.2-1 1.2-2 0-2.1.1-7 .1-9.7v-5.5c0-1.3-.1-6.6-.1-7.3 0-2.1-.3-2.8-1.6-2.8h-1.9c-.3 0-.4-.2-.4-.4v-.9c0-.2.1-.4.4-.4.8 0 2.2.1 6.4.1 3.9 0 5.4-.1 6.2-.1.3 0 .4.2.4.4v.9c0 .3-.1.4-.4.4h-1.5c-1.5 0-1.7.7-1.8 2.4 0 .6-.2 6.3-.2 7.4v1.7c0 .4.1.6.5.6H54c.7 0 .9-.1.9-.6v-1.3c0-1.5-.2-7.6-.2-8 0-1.4-.2-2.1-1.2-2.1h-2c-.3 0-.3-.1-.3-.4v-1c0-.2 0-.3.3-.3.8 0 2.7.1 6.1.1 3.3 0 5-.1 5.7-.1.4 0 .5.2.5.4v.9c0 .3-.1.4-.5.4h-1.5c-1.3 0-1.4.7-1.4 2.2 0 .6-.1 6.5-.1 7.8v4.6c0 1.9.1 8 .1 10.4 0 1.5.4 2.2 1.7 2.2h1.7c.3 0 .3.1.3.3v1c0 .3-.1.4-.4.4-.7 0-2.2-.1-5.8-.1-4 0-5.4.1-6.6.1-.3 0-.3-.2-.3-.4v-1c0-.2 0-.3.3-.3h2.3c1 0 1.1-.8 1.1-1.9.1-2.1.2-8.9.2-9.7v-1.2c0-.4-.3-.5-.9-.5H39.9zM96.5 137c0 2.6.1 7.4.2 8 .1.9.4 1.6 1.1 1.6h2.1c.3 0 .3.1.3.3v1c0 .3-.1.4-.5.4-.6 0-1.4-.1-5.9-.1-4.2 0-5.2.1-5.7.1-.3 0-.3-.1-.3-.4v-1c0-.2.1-.3.3-.3h1.5c.9 0 1.6-.3 1.6-1.4.1-4.3.1-8.3.1-12.4v-11.3c0-1.5-.6-2.1-1.4-2.1h-1.7c-.2 0-.3-.1-.3-.3V118c0-.2.1-.3.3-.3.3 0 1.7.1 5.9.1 2.4 0 6.4-.1 7.7-.1 3.4 0 6.1 1.2 7.8 2.7 1.5 1.4 2.3 3.2 2.3 4.8 0 5.4-3.3 7.7-8 8.4v.2c1.2.4 2 1.2 2.6 2 .5.7 3.2 4.7 3.5 5.2.3.4 3 4.3 3.7 4.9.8.7 2 .8 3.1.8.3 0 .3.1.3.3v.9c0 .3-.1.4-.3.4-.3 0-1.5-.1-4.2-.1-1.2 0-2.8.1-3.8.1-.5-.4-1.3-1.5-1.9-2.5-.8-1.2-2.5-4.3-2.8-5-.4-.8-1.6-2.8-2.3-3.7-1.1-1.5-2.1-2.7-3.9-2.7-.2 0-.9 0-1.4.1v2.5zm.1-3.9c.6.1 1.1.2 1.6.2 6.7 0 8.1-5.4 8.1-7.4s-.8-3.8-1.9-4.8c-1.5-1.4-3.5-1.8-5.7-1.8-.7 0-1.2 0-1.5.3-.3.2-.5.7-.5 1.2l-.1 12.3z"/><path d="M126 135.8c0 2.3.1 6.5.1 7.3 0 2.2.8 3.1 1.7 3.4.7.2 1.7.3 3.4.3.8 0 2.8-.1 3.6-.2.8-.1 2.4-.5 3.5-1.5.8-.7 3.2-3.5 4-4.6.2-.2.3-.3.5-.2l.7.4c.1.1.2.2.1.4l-2.1 6.4c-.1.4-.4.6-.9.6-.2 0-1.2 0-3.8-.1h-18c-.9 0-1.5.1-1.8.1-.3 0-.3-.1-.3-.3v-1c0-.3.1-.3.4-.3h1.5c2 0 2.1-.3 2.1-1.8V130.3c0-3.5-.1-8.9-.2-9.5-.2-1.2-.6-1.5-1.9-1.5H117c-.2 0-.3-.1-.3-.3v-1c0-.2 0-.3.3-.3.9 0 2.5.2 6 .1h1.2c1.9 0 11.8-.1 13.7-.1h1.7c.2 0 .3.1.3.3.2.6 1.8 6.4 2 6.8.1.3 0 .4-.1.5l-.8.3c-.1 0-.3 0-.4-.2-.2-.3-3.7-4.2-4.7-4.8-.9-.5-2.1-1.1-3.3-1.1l-6.5-.2-.1 12.4c1.3 0 4.4-.1 4.9-.2.9-.2 1.5-.5 2-1.5.3-.6.7-1.6.7-2.4 0-.3.2-.3.3-.3l1.1.1c.2 0 .3.1.3.3-.1.7-.1 3.5-.1 4.6 0 1.7.2 3.8.3 4.7 0 .2-.1.3-.3.3l-.9.2c-.2 0-.3 0-.3-.3-.2-.7-.5-1.6-.7-2.1-.4-.9-1.2-1.5-2.1-1.5-1.5-.2-3.6-.3-5-.3l-.2 2.5zM146.8 138.7c.2 0 .3.1.3.3.1 1.4.4 3 1.6 4.9 1.3 2.1 3.5 3.1 5.7 3.1 2.3 0 5.6-1.5 5.6-5 0-4-1.8-5.2-6.4-7-1.4-.5-4.2-1.7-6.3-3.6-1.5-1.4-2.1-3.5-2.1-6.1 0-2.4.9-4.4 3-6 1.7-1.5 3.6-2.1 6.1-2.1 2.8 0 4.6.7 5.4 1 .4.2.7.1.9-.1l.6-.6c.2-.2.3-.3.6-.3s.3.3.3.7c0 .7.7 6.7.7 7.1 0 .2-.1.3-.3.3l-.7.2c-.2 0-.3 0-.4-.3-.4-1.2-1.1-2.9-2.7-4.6-1.1-1.2-2.5-1.8-4.5-1.8-3.4 0-4.8 2.8-4.8 4.3s.2 2.8 1.2 3.9c1.1 1.1 3.5 2.1 5.2 2.7 2.5.8 4.6 1.6 6.2 3.4 1.4 1.5 2.2 3.3 2.2 6.1 0 5.2-3.4 9.5-9.1 9.5-3.5 0-5.6-.8-7.3-2.1-.5-.3-.8-.5-1-.5s-.4.3-.7.8c-.3.4-.4.5-.8.5s-.5-.3-.5-.7c.1-.5.7-7.5.8-8 0-.3.1-.3.3-.3l.9.3zM168.8 121.6c0-1.5-.3-2.1-1.5-2.1h-2c-.3 0-.3-.1-.3-.4v-1c0-.3.1-.3.4-.3.4 0 2.5.1 6.6.1 3.6 0 5.7-.1 6.2-.1.3 0 .3.1.3.3v1.1c0 .3-.1.3-.3.3h-1.8c-1.3 0-2.1.8-2.1 1.7 0 .5-.1 3.1-.1 5.6v5.3c0 2.2 0 5.2.1 6.6.1 2 .5 4 1.5 5.3 1.5 2 3.8 2.7 5.8 2.7s4.4-.8 5.8-2.1c1.6-1.6 2.5-4.1 2.5-7.3v-7.7c0-3.4-.3-7.2-.5-8.2-.1-1.1-.8-1.9-1.8-1.9h-1.5c-.3 0-.3-.1-.3-.3V118c0-.3.1-.3.3-.3.4 0 2.4.1 5.2.1 2.7 0 4-.1 4.4-.1.4 0 .4.1.4.3v1c0 .3 0 .4-.3.4h-1.5c-1.5 0-1.7 1.2-1.8 1.7-.1.5-.1 6.5-.1 7.1 0 .6-.1 8.1-.3 9.8-.3 3.5-1.3 6.2-3.6 8.3-1.8 1.6-4.6 2.7-7.8 2.7-2.1 0-4.6-.3-6.2-1-2.5-1-4.2-3-5.1-5.8-.6-1.9-.8-4.7-.8-10.4v-10.2zM222.7 139.4c.1.1.1.2.1.4-.2.3-1.9 7.4-2.1 8.6-1.1 0-13.5-.1-17.9-.1-3.9 0-5.4.1-5.9.1-.3 0-.3-.1-.3-.4v-1c0-.3 0-.3.3-.3h1.7c1.5 0 1.8-.6 1.8-1.2 0-.8.2-11.5.2-14.1V129c0-2.8-.1-7.3-.2-8-.1-1.1-.3-1.5-1.4-1.5h-1.8c-.3 0-.3-.3-.3-.4v-1c0-.3.1-.3.3-.3.4 0 2 .1 5.9.1 4.6 0 6.5-.1 6.8-.1s.4.2.4.4v1c0 .2-.1.3-.4.3h-2.3c-1.3 0-1.5.4-1.5 1.6 0 .6-.2 7.1-.2 10.1v3.7c0 .8 0 10.1.2 11.9h2.4c2.4 0 5.5 0 7.2-.2 2.4-.3 5.2-5.5 5.8-7.1.2-.2.3-.3.5-.2l.7.1zM234.4 119.6h-1.2c-1.4 0-4.5 0-6.3.6-1.4.6-3 3.4-3.8 4.9-.1.2-.3.4-.5.3l-.9-.3c-.2-.1-.2-.2-.2-.4.4-1.6 1.9-7.3 2.1-7.9.1-.6.3-.8.5-.8.3 0 .4.2.7.4.9.9 1.7 1.1 2.9 1.1 2.3.1 4.1.3 8.3.3h2.3c4.7 0 6.5-.2 8.5-.3.8 0 2.5-.6 3.1-1.1.3-.3.5-.4.8-.4s.3.2.4.7c.1.8.9 6.1 1.3 8.2 0 .3 0 .3-.2.4l-.9.3c-.2 0-.3-.1-.4-.3-.6-1.2-2.2-4-3.4-4.8-1.2-.7-5.1-.8-6.6-.8h-1.2v22.9c0 3.3.4 4.1 1.5 4.1h2.5c.2 0 .3.2.3.4v.9c0 .3-.1.4-.4.4-.4 0-1.8-.1-6.5-.1-4.4 0-6.2.1-6.8.1-.3 0-.3-.1-.3-.4v-1c0-.3.1-.3.3-.3h2.5c.9 0 1.4-.5 1.4-1.2.1-1.1.1-14.3.1-15.1v-10.8zM255.6 138.7c.2 0 .3.1.3.3.1 1.4.4 3 1.6 4.9 1.3 2.1 3.5 3.1 5.7 3.1 2.3 0 5.6-1.5 5.6-5 0-4-1.8-5.2-6.4-7-1.4-.5-4.2-1.7-6.3-3.6-1.5-1.4-2.2-3.5-2.2-6.1 0-2.4.9-4.4 3-6 1.7-1.5 3.6-2.1 6.1-2.1 2.8 0 4.6.7 5.4 1 .4.2.7.1.9-.1l.6-.6c.2-.2.3-.3.6-.3s.3.3.3.7c0 .7.7 6.7.7 7.1 0 .2-.1.3-.3.3l-.7.2c-.2 0-.3 0-.4-.3-.4-1.2-1.1-2.9-2.7-4.6-1.1-1.2-2.5-1.8-4.5-1.8-3.4 0-4.8 2.8-4.8 4.3s.2 2.8 1.2 3.9c1.1 1.1 3.5 2.1 5.2 2.7 2.5.8 4.6 1.6 6.2 3.4 1.4 1.5 2.2 3.3 2.2 6.1 0 5.2-3.4 9.5-9.1 9.5-3.5 0-5.6-.8-7.3-2.1-.5-.3-.8-.5-1-.5s-.4.3-.7.8c-.3.4-.4.5-.8.5s-.5-.3-.5-.7c.1-.5.7-7.5.8-8 0-.3.1-.3.3-.3l1 .3z"/></svg>