<?xml version="1.0" encoding="utf-8"?>
<!-- Generator: Adobe Illustrator 19.0.0, SVG Export Plug-In . SVG Version: 6.00 Build 0)  -->
<svg version="1.1" id="圖層_1" xmlns="http://www.w3.org/2000/svg" xmlns:xlink="http://www.w3.org/1999/xlink" x="0px" y="0px"
	 viewBox="-108.8 115.9 217.3 33.3" style="enable-background:new -108.8 115.9 217.3 33.3;" xml:space="preserve">
<g>
	<path d="M-79.8,141.2c0.1,0.1,0.2,0.3,0.1,0.4c-2.6,3.7-6.7,7.2-12.8,7.2c-5.5,0-8.6-1.6-11.3-4c-3.2-2.8-4.6-7.8-4.6-11.6
		c0-4.2,1.4-8.3,4.4-11.5c2.3-2.5,6-4.6,11.2-4.6c4,0,7.1,1.2,8.7,2.1c0.6,0.3,0.8,0.3,0.9,0l0.3-1.1c0.1-0.3,0.2-0.3,0.7-0.3
		s0.6,0.1,0.6,0.7c0,0.8,0.9,7.7,1,8.9c0,0.3,0,0.4-0.2,0.4l-0.8,0.3c-0.2,0.1-0.3-0.1-0.5-0.4c-0.5-1.5-1.5-3.7-3.4-5.6
		c-1.9-1.8-4.1-3.2-7.5-3.2c-6.9,0-9.7,6.2-9.7,12.4c0,2.7,0.8,7.7,4,11.2c2.8,3,5.3,3.4,7.4,3.4c4.7,0,8.5-2.4,10.3-5
		c0.2-0.3,0.4-0.4,0.5-0.3L-79.8,141.2z"/>
	<path d="M-51.7,120.6c3.2,2.6,5.8,6.9,5.8,12.7c0,3.2-0.9,6.5-3.2,9.5c-2.8,3.4-6.5,6.1-12.9,6.1c-2.6,0-6.3-0.8-9.7-2.8
		c-3.1-1.8-6.3-6.5-6.3-12.7c0-2.6,0.7-6.7,4-10.7c3.8-4.6,8.4-5.5,12.1-5.5C-58.7,117.2-55.2,117.8-51.7,120.6z M-68.2,121.5
		c-2.6,2.5-3.9,7-3.9,10.4c0,11.2,6.9,15.1,10.5,15.1c8.7,0,10.1-9.6,10.1-13.2c0-9.4-6.4-14.7-10.5-14.7
		C-62.8,119.1-65.3,118.6-68.2,121.5z"/>
	<path d="M-38,128.8c0,7.3,0.3,13.3,0.4,14.7c0.1,2.2,0.6,3.2,2.1,3.2h1.1c0.3,0,0.3,0.2,0.3,0.4v1c0,0.3,0,0.3-0.3,0.3
		c-0.4,0-3-0.1-4.6-0.1c-1.1,0-4,0.1-4.5,0.1c-0.2,0-0.3-0.1-0.3-0.4v-1.1c0-0.1,0.1-0.3,0.3-0.3h1.5c1.1,0,1.7-0.9,1.9-3.6
		c0-0.8,0.3-6.8,0.3-13.7V124c0-2.6-1.5-4.6-3.4-4.6h-1.4c-0.2,0-0.3-0.1-0.3-0.3v-1.2c0-0.2,0.1-0.3,0.3-0.3c0.2,0,0.6,0,1.3,0.1
		c0.8,0,1.9,0,3.8,0c0.7,0,1.4,0,1.9-0.1c0.6,0,0.9,0,1.2,0c0.5,0,0.8,0.1,1,0.4c0.4,0.4,8.9,11,9.7,12.2c0.6,0.7,7.3,9,8,9.9h0.2
		v-4.5c0-3.8,0-5.9-0.1-8.1c-0.1-1.6-0.3-5.8-0.5-6.6c-0.3-1-1.2-1.6-2.3-1.6h-1.4c-0.3,0-0.3-0.2-0.3-0.4v-1c0-0.3,0-0.3,0.3-0.3
		c0.5,0,1.9,0.1,4.8,0.1c2.6,0,3.6-0.1,4.1-0.1c0.3,0,0.4,0.2,0.4,0.3v1c0,0.3-0.1,0.4-0.3,0.4h-1.2c-0.9,0-1.3,0.7-1.4,2.3
		c-0.2,2.9-0.6,10.1-0.6,14.5v11.4c0,0.6,0,1.2-0.5,1.2c-0.6,0-1.1-0.3-1.5-0.7c-0.3-0.4-2.7-3.1-5.3-6.3c-3-3.7-6.4-7.7-6.9-8.4
		c-0.6-0.6-7.5-9.2-8-9.8H-38V128.8z"/>
	<path d="M0.2,119.6H-1c-1.4,0-4.5,0-6.3,0.6c-1.4,0.6-3,3.4-3.8,4.9c-0.1,0.2-0.3,0.4-0.5,0.3l-0.9-0.3c-0.2-0.1-0.2-0.2-0.2-0.4
		c0.4-1.6,1.9-7.3,2.1-7.9c0.1-0.6,0.3-0.8,0.5-0.8c0.3,0,0.4,0.2,0.7,0.4c0.9,0.9,1.7,1.1,2.9,1.1c2.3,0.1,4.1,0.3,8.3,0.3h2.3
		c4.7,0,6.5-0.2,8.5-0.3c0.8,0,2.5-0.6,3.1-1.1c0.3-0.3,0.5-0.4,0.8-0.4s0.3,0.2,0.4,0.7c0.1,0.8,0.9,6.1,1.3,8.2
		c0,0.3,0,0.3-0.2,0.4l-0.9,0.3c-0.2,0-0.3-0.1-0.4-0.3c-0.6-1.2-2.2-4-3.4-4.8c-1.2-0.7-5.1-0.8-6.6-0.8H5.7v22.9
		c0,3.3,0.4,4.1,1.5,4.1h2.5c0.2,0,0.3,0.2,0.3,0.4v0.9c0,0.3-0.1,0.4-0.4,0.4c-0.4,0-1.8-0.1-6.5-0.1c-4.4,0-6.2,0.1-6.8,0.1
		c-0.3,0-0.3-0.1-0.3-0.4v-1c0-0.3,0.1-0.3,0.3-0.3h2.5c0.9,0,1.4-0.5,1.4-1.2c0.1-1.1,0.1-14.3,0.1-15.1V119.6z"/>
	<path d="M26.1,136.4c-0.3,1-2.5,7.1-2.7,8.3c-0.1,0.3-0.1,0.7-0.1,0.9c0,0.6,0.7,1,1.5,1h1.8c0.3,0,0.4,0.1,0.4,0.2v1.1
		c0,0.3-0.1,0.4-0.3,0.4c-0.6,0-2.4-0.1-5.4-0.1c-3.2,0-4.1,0.1-4.7,0.1c-0.3,0-0.3-0.3-0.3-0.6V147c0-0.3,0.1-0.3,0.3-0.3h1.3
		c1.2,0,2-0.6,2.8-1.9c0.4-0.8,3.5-8.5,4.8-12.1c0.3-0.9,3.8-10.1,4.2-11.3c0.1-0.4,0.3-1.2,0.1-1.5c-0.1-0.1-0.3-0.4-0.3-0.5
		c0-0.2,0.1-0.3,0.4-0.4c1.4-0.3,3.7-1.6,4.3-2.1c0.3-0.3,0.4-0.4,0.6-0.4c0.3,0,0.4,0.5,0.5,0.8c0.8,2.7,4.1,12.3,4.9,15
		c1,3.4,3.8,11.4,4.4,12.5c0.8,1.5,1.9,2,2.8,2h1.4c0.3,0,0.3,0.1,0.3,0.3v0.9c0,0.3-0.1,0.5-0.4,0.5c-0.8,0-1.6-0.1-6.4-0.1
		c-3.6,0-5.1,0.1-6,0.1c-0.3,0-0.4-0.3-0.4-0.5V147c0-0.3,0.1-0.3,0.3-0.3h1.1c1.2,0,1.5-0.4,1.3-1.6c-0.3-1.5-2.1-7.1-2.6-8.6H26.1
		z M35.6,134.7c-0.4-1.2-3.4-11.1-3.6-11.9c-0.2-0.5-0.3-0.8-0.4-0.8c-0.3,0-0.4,0.2-0.6,0.6c-0.2,0.6-4,11.1-4.3,12.1H35.6z"/>
	<path d="M78.2,141.2c0.1,0.1,0.2,0.3,0.1,0.4c-2.6,3.7-6.7,7.2-12.8,7.2c-5.5,0-8.6-1.6-11.3-4c-3.2-2.8-4.6-7.8-4.6-11.6
		c0-4.2,1.4-8.3,4.4-11.5c2.3-2.5,6-4.6,11.2-4.6c4,0,7.1,1.2,8.7,2.1c0.6,0.3,0.8,0.3,0.9,0l0.3-1.1c0.1-0.3,0.2-0.3,0.7-0.3
		c0.5,0,0.6,0.1,0.6,0.7c0,0.8,0.9,7.7,1,8.9c0,0.3,0,0.4-0.2,0.4l-0.8,0.3c-0.2,0.1-0.3-0.1-0.5-0.4c-0.5-1.5-1.5-3.7-3.4-5.6
		c-1.9-1.8-4.1-3.2-7.5-3.2c-6.9,0-9.7,6.2-9.7,12.4c0,2.7,0.8,7.7,4,11.2c2.8,3,5.3,3.4,7.4,3.4c4.7,0,8.5-2.4,10.3-5
		c0.2-0.3,0.4-0.4,0.5-0.3L78.2,141.2z"/>
	<path d="M90.3,119.6h-1.2c-1.4,0-4.5,0-6.3,0.6c-1.4,0.6-3,3.4-3.8,4.9c-0.1,0.2-0.3,0.4-0.5,0.3l-0.9-0.3
		c-0.2-0.1-0.2-0.2-0.2-0.4c0.4-1.6,1.9-7.3,2.1-7.9c0.1-0.6,0.3-0.8,0.5-0.8c0.3,0,0.4,0.2,0.7,0.4c0.9,0.9,1.7,1.1,2.9,1.1
		c2.3,0.1,4.1,0.3,8.3,0.3h2.3c4.7,0,6.5-0.2,8.5-0.3c0.8,0,2.5-0.6,3.1-1.1c0.3-0.3,0.5-0.4,0.8-0.4c0.3,0,0.3,0.2,0.4,0.7
		c0.1,0.8,0.9,6.1,1.3,8.2c0,0.3,0,0.3-0.2,0.4l-0.9,0.3c-0.2,0-0.3-0.1-0.4-0.3c-0.6-1.2-2.2-4-3.4-4.8c-1.2-0.7-5.1-0.8-6.6-0.8
		h-1.2v22.9c0,3.3,0.4,4.1,1.5,4.1h2.5c0.2,0,0.3,0.2,0.3,0.4v0.9c0,0.3-0.1,0.4-0.4,0.4c-0.4,0-1.8-0.1-6.4-0.1
		c-4.4,0-6.2,0.1-6.8,0.1c-0.3,0-0.3-0.1-0.3-0.4v-1c0-0.3,0.1-0.3,0.3-0.3h2.5c0.9,0,1.4-0.5,1.4-1.2c0.1-1.1,0.1-14.3,0.1-15.1
		V119.6z"/>
</g>
</svg>
