<?xml version="1.0" encoding="utf-8"?>
<!-- Generator: Adobe Illustrator 19.0.0, SVG Export Plug-In . SVG Version: 6.00 Build 0)  -->
<svg version="1.1" id="圖層_1" xmlns="http://www.w3.org/2000/svg" xmlns:xlink="http://www.w3.org/1999/xlink" x="0px" y="0px"
	 viewBox="-32 125.2 264.6 33.3" style="enable-background:new -32 125.2 264.6 33.3;" xml:space="preserve">
<g>
	<path d="M-3.1,150.5c0.1,0.1,0.2,0.3,0.1,0.4c-2.6,3.7-6.7,7.2-12.8,7.2c-5.5,0-8.6-1.6-11.3-4c-3.2-2.8-4.6-7.8-4.6-11.6
		c0-4.2,1.4-8.3,4.4-11.5c2.3-2.5,6-4.6,11.2-4.6c4,0,7.1,1.2,8.7,2.1c0.6,0.3,0.8,0.3,0.9,0l0.3-1.1c0.1-0.3,0.2-0.3,0.7-0.3
		s0.6,0.1,0.6,0.7c0,0.8,0.9,7.7,1,8.9c0,0.3,0,0.4-0.2,0.4l-0.8,0.3c-0.2,0.1-0.3-0.1-0.5-0.4c-0.5-1.5-1.5-3.7-3.4-5.6
		c-1.9-1.8-4.1-3.2-7.5-3.2c-6.9,0-9.7,6.2-9.7,12.4c0,2.7,0.8,7.7,4,11.2c2.8,3,5.3,3.4,7.4,3.4c4.7,0,8.5-2.4,10.3-5
		c0.2-0.3,0.4-0.4,0.5-0.3L-3.1,150.5z"/>
	<path d="M7.3,146.2c0,2.6,0.1,7.4,0.2,8c0.1,0.9,0.4,1.6,1.1,1.6h2.2c0.3,0,0.3,0.1,0.3,0.3v1c0,0.3-0.1,0.4-0.5,0.4
		c-0.6,0-1.4-0.1-5.9-0.1c-4.2,0-5.2,0.1-5.7,0.1c-0.3,0-0.3-0.1-0.3-0.4v-1c0-0.2,0.1-0.3,0.3-0.3h1.5c0.9,0,1.6-0.3,1.6-1.4
		c0.1-4.3,0.1-8.3,0.1-12.4v-11.3c0-1.5-0.6-2.1-1.4-2.1H-1c-0.2,0-0.3-0.1-0.3-0.3v-1.2c0-0.2,0.1-0.3,0.3-0.3
		c0.3,0,1.7,0.1,5.9,0.1c2.4,0,6.4-0.1,7.7-0.1c3.4,0,6.1,1.2,7.8,2.7c1.5,1.4,2.3,3.2,2.3,4.8c0,5.4-3.3,7.7-8,8.4v0.2
		c1.2,0.4,2,1.2,2.6,2c0.5,0.7,3.2,4.7,3.5,5.2c0.3,0.4,3,4.3,3.7,4.9c0.8,0.7,2,0.8,3.1,0.8c0.3,0,0.3,0.1,0.3,0.3v0.9
		c0,0.3-0.1,0.4-0.3,0.4c-0.3,0-1.5-0.1-4.2-0.1c-1.2,0-2.8,0.1-3.8,0.1c-0.5-0.4-1.3-1.5-1.9-2.5c-0.8-1.2-2.5-4.3-2.8-5
		c-0.4-0.8-1.6-2.8-2.3-3.7c-1.1-1.5-2.1-2.7-3.9-2.7c-0.2,0-0.9,0-1.4,0.1V146.2z M7.3,142.3c0.6,0.1,1.1,0.2,1.6,0.2
		c6.7,0,8.1-5.4,8.1-7.4c0-2-0.8-3.8-1.9-4.8c-1.5-1.4-3.5-1.8-5.7-1.8c-0.7,0-1.2,0-1.5,0.3c-0.3,0.2-0.5,0.7-0.5,1.2L7.3,142.3z"
		/>
	<path d="M36.8,145c0,2.3,0.1,6.5,0.1,7.3c0,2.2,0.8,3.1,1.7,3.4c0.7,0.2,1.7,0.3,3.4,0.3c0.8,0,2.8-0.1,3.6-0.2
		c0.8-0.1,2.4-0.5,3.5-1.5c0.8-0.7,3.2-3.5,4-4.6c0.2-0.2,0.3-0.3,0.5-0.2l0.7,0.4c0.1,0.1,0.2,0.2,0.1,0.4l-2.1,6.4
		c-0.1,0.4-0.4,0.6-0.9,0.6c-0.2,0-1.2,0-3.8-0.1c-2.7,0-7.1,0-14.3,0c-1.6,0-2.8,0-3.7,0c-0.9,0-1.5,0.1-1.8,0.1
		c-0.3,0-0.3-0.1-0.3-0.3v-1c0-0.3,0.1-0.3,0.4-0.3h1.5c2,0,2.1-0.3,2.1-1.8v-10.2v-4.2c0-3.5-0.1-8.9-0.2-9.5
		c-0.2-1.2-0.6-1.5-1.9-1.5h-1.6c-0.2,0-0.3-0.1-0.3-0.3v-1.1c0-0.2,0-0.3,0.3-0.3c0.9,0,2.5,0.2,6,0.1h1.2c1.9,0,11.8-0.1,13.7-0.1
		c0.7,0,1.5,0,1.7,0s0.3,0.1,0.3,0.3c0.2,0.6,1.8,6.4,2,6.8c0.1,0.3,0,0.4-0.1,0.5l-0.8,0.3c-0.1,0-0.3,0-0.4-0.2
		c-0.2-0.3-3.7-4.2-4.7-4.8c-0.9-0.5-2.1-1.1-3.3-1.1l-6.5-0.2l-0.1,12.4c1.3,0,4.4-0.1,4.9-0.2c0.9-0.2,1.5-0.5,2-1.5
		c0.3-0.6,0.7-1.6,0.7-2.4c0-0.3,0.2-0.3,0.3-0.3l1.1,0.1c0.2,0,0.3,0.1,0.3,0.3c-0.1,0.7-0.1,3.5-0.1,4.6c0,1.7,0.2,3.8,0.3,4.7
		c0,0.2-0.1,0.3-0.3,0.3l-0.9,0.2c-0.2,0-0.3,0-0.3-0.3c-0.2-0.7-0.5-1.6-0.7-2.2c-0.4-0.9-1.2-1.5-2.1-1.5c-1.5-0.2-3.6-0.3-5-0.3
		L36.8,145z"/>
	<path d="M62.3,145.7c-0.3,1-2.5,7.1-2.7,8.3c-0.1,0.3-0.1,0.7-0.1,0.9c0,0.6,0.7,1,1.5,1h1.8c0.3,0,0.4,0.1,0.4,0.2v1.1
		c0,0.3-0.1,0.4-0.3,0.4c-0.6,0-2.4-0.1-5.4-0.1c-3.2,0-4.1,0.1-4.7,0.1c-0.3,0-0.3-0.3-0.3-0.6v-0.8c0-0.3,0.1-0.3,0.3-0.3h1.3
		c1.2,0,2-0.6,2.8-1.9c0.4-0.8,3.5-8.5,4.8-12.1c0.3-0.9,3.8-10.1,4.2-11.3c0.1-0.4,0.3-1.2,0.1-1.5c-0.1-0.1-0.3-0.4-0.3-0.5
		c0-0.2,0.1-0.3,0.4-0.4c1.4-0.3,3.7-1.6,4.3-2.1c0.3-0.3,0.4-0.4,0.6-0.4c0.3,0,0.4,0.5,0.5,0.8c0.8,2.7,4.1,12.3,4.9,15
		c1,3.4,3.8,11.4,4.4,12.5c0.8,1.5,1.9,2,2.8,2H85c0.3,0,0.3,0.1,0.3,0.3v0.9c0,0.3-0.1,0.5-0.4,0.5c-0.8,0-1.6-0.1-6.4-0.1
		c-3.6,0-5.1,0.1-6,0.1c-0.3,0-0.4-0.3-0.4-0.5v-0.9c0-0.3,0.1-0.3,0.3-0.3h1.1c1.2,0,1.5-0.4,1.3-1.6c-0.3-1.5-2.1-7.1-2.6-8.6
		H62.3z M71.9,143.9c-0.4-1.2-3.4-11.1-3.6-11.9c-0.2-0.5-0.3-0.8-0.4-0.8c-0.3,0-0.4,0.2-0.6,0.6c-0.2,0.6-4,11.1-4.3,12.1H71.9z"
		/>
	<path d="M96.1,128.8h-1.2c-1.4,0-4.5,0-6.3,0.6c-1.4,0.6-3,3.4-3.8,4.9c-0.1,0.2-0.3,0.4-0.5,0.3l-0.9-0.3
		c-0.2-0.1-0.2-0.2-0.2-0.4c0.4-1.6,1.9-7.3,2.1-7.9c0.1-0.6,0.3-0.8,0.5-0.8c0.3,0,0.4,0.2,0.7,0.4c0.9,0.9,1.7,1.1,2.9,1.1
		c2.3,0.1,4.1,0.3,8.3,0.3h2.3c4.7,0,6.5-0.2,8.5-0.3c0.8,0,2.5-0.6,3.1-1.1c0.3-0.3,0.5-0.4,0.8-0.4s0.3,0.2,0.4,0.7
		c0.1,0.8,0.9,6.1,1.3,8.2c0,0.3,0,0.3-0.2,0.4l-0.9,0.3c-0.2,0-0.3-0.1-0.4-0.3c-0.6-1.2-2.2-4-3.4-4.8c-1.2-0.7-5.1-0.8-6.6-0.8
		h-1.2v22.9c0,3.3,0.4,4.1,1.5,4.1h2.5c0.2,0,0.3,0.2,0.3,0.4v0.9c0,0.3-0.1,0.4-0.4,0.4c-0.4,0-1.8-0.1-6.5-0.1
		c-4.4,0-6.2,0.1-6.8,0.1c-0.3,0-0.3-0.1-0.3-0.4v-1c0-0.3,0.1-0.3,0.3-0.3h2.5c0.9,0,1.4-0.5,1.4-1.2c0.1-1.1,0.1-14.3,0.1-15.1
		V128.8z"/>
	<path d="M124,143.5c0,0.4,0.1,10.3,0.1,10.8c0,1.4,0.7,1.5,1.7,1.5h1.8c0.2,0,0.3,0.1,0.3,0.3v1.1c0,0.3-0.2,0.3-0.4,0.3
		c-0.5,0-2.2-0.1-6.3-0.1c-4.3,0-6.2,0.1-6.6,0.1c-0.3,0-0.3-0.1-0.3-0.3v-1.2c0-0.2,0.1-0.3,0.3-0.3h1.7c0.9,0,1.8-0.1,2-1.2
		c0.1-0.6,0.2-9.9,0.2-12.2v-3c0-1-0.1-8.8-0.1-9.3c-0.1-1-0.6-1.5-1.8-1.5h-2.2c-0.3,0-0.3-0.1-0.3-0.3v-1.1c0-0.2,0.1-0.3,0.3-0.3
		c0.5,0,2.8,0.1,7,0.1c4.1,0,5.5-0.1,6.1-0.1c0.3,0,0.3,0.2,0.3,0.4v1c0,0.3-0.2,0.3-0.3,0.3h-1.6c-0.9,0-1.6,0.3-1.6,1.2
		c0,0.4-0.1,9.9-0.1,10.4V143.5z"/>
	<path d="M148.9,127.3c0-0.3,0.1-0.3,0.3-0.3c0.3,0,2.3,0.1,5.1,0.1c3.6,0,4.7-0.1,5.1-0.1c0.3,0,0.3,0.1,0.3,0.3v1.1
		c0,0.2-0.1,0.3-0.3,0.3h-1c-1,0-2.2,0.4-3.1,2c-1.4,2.3-4,9-5.2,11.8c-0.9,1.9-6,14.4-6.5,15.4c-0.2,0.3-0.5,0.6-0.9,0.6
		c-0.5,0-0.7-0.5-0.9-1c-1.5-3.7-5.1-13.5-6.5-17.5c-1.1-3.1-3-8.6-3.5-9.8c-0.4-0.9-0.9-1.4-1.8-1.4h-1c-0.2,0-0.3-0.1-0.3-0.4v-1
		c0-0.3,0.1-0.3,0.3-0.3c0.4,0,1.9,0.1,6.4,0.1c4,0,6-0.1,6.4-0.1c0.3,0,0.4,0.1,0.4,0.3v0.9c0,0.3-0.1,0.4-0.3,0.4h-2.1
		c-1.1,0-1.8,0.4-1.8,1.1c0,0.3,0,0.9,0.1,1.5c0.3,1.5,1.9,6.6,2.8,9.1c0.6,1.6,2.9,8.4,3.6,10.8h0.1v-0.1c1-2.4,3.8-9.5,4.2-10.8
		c0.7-2,3.4-8.5,3.4-10.3c0-0.5-0.4-1.2-1.6-1.2h-1.2c-0.2,0-0.3-0.2-0.3-0.4V127.3z"/>
	<path d="M168.2,143.5c0,0.4,0.1,10.3,0.1,10.8c0,1.4,0.7,1.5,1.7,1.5h1.8c0.2,0,0.3,0.1,0.3,0.3v1.1c0,0.3-0.2,0.3-0.4,0.3
		c-0.5,0-2.2-0.1-6.3-0.1c-4.3,0-6.2,0.1-6.6,0.1c-0.3,0-0.3-0.1-0.3-0.3v-1.2c0-0.2,0.1-0.3,0.3-0.3h1.7c0.9,0,1.8-0.1,2-1.2
		c0.1-0.6,0.2-9.9,0.2-12.2v-3c0-1-0.1-8.8-0.1-9.3c-0.1-1-0.6-1.5-1.8-1.5h-2.2c-0.3,0-0.3-0.1-0.3-0.3v-1.1c0-0.2,0.1-0.3,0.3-0.3
		c0.5,0,2.8,0.1,7,0.1c4.1,0,5.5-0.1,6.1-0.1c0.3,0,0.3,0.2,0.3,0.4v1c0,0.3-0.2,0.3-0.3,0.3h-1.6c-0.9,0-1.6,0.3-1.6,1.2
		c0,0.4-0.1,9.9-0.1,10.4V143.5z"/>
	<path d="M184.5,128.8h-1.2c-1.4,0-4.5,0-6.3,0.6c-1.4,0.6-3,3.4-3.8,4.9c-0.1,0.2-0.3,0.4-0.5,0.3l-0.9-0.3
		c-0.2-0.1-0.2-0.2-0.2-0.4c0.4-1.6,1.9-7.3,2.1-7.9c0.1-0.6,0.3-0.8,0.5-0.8c0.3,0,0.4,0.2,0.7,0.4c0.9,0.9,1.7,1.1,2.9,1.1
		c2.3,0.1,4.1,0.3,8.3,0.3h2.3c4.7,0,6.5-0.2,8.5-0.3c0.8,0,2.5-0.6,3.1-1.1c0.3-0.3,0.5-0.4,0.8-0.4c0.3,0,0.3,0.2,0.4,0.7
		c0.1,0.8,0.9,6.1,1.3,8.2c0,0.3,0,0.3-0.2,0.4l-0.9,0.3c-0.2,0-0.3-0.1-0.4-0.3c-0.6-1.2-2.2-4-3.4-4.8c-1.2-0.7-5.1-0.8-6.6-0.8
		H190v22.9c0,3.3,0.4,4.1,1.5,4.1h2.5c0.2,0,0.3,0.2,0.3,0.4v0.9c0,0.3-0.1,0.4-0.4,0.4c-0.4,0-1.8-0.1-6.4-0.1
		c-4.4,0-6.2,0.1-6.8,0.1c-0.3,0-0.3-0.1-0.3-0.4v-1c0-0.3,0.1-0.3,0.3-0.3h2.5c0.9,0,1.4-0.5,1.4-1.2c0.1-1.1,0.1-14.3,0.1-15.1
		V128.8z"/>
	<path d="M219.4,149.5c0,1.6,0.1,4.5,0.1,4.9c0.1,1.4,0.8,1.5,1.7,1.5h1.4c0.2,0,0.3,0.1,0.3,0.3v1c0,0.3-0.1,0.4-0.3,0.4
		c-0.5,0-2.2-0.1-6.1-0.1c-4.2,0-5.6,0.1-6,0.1c-0.2,0-0.3-0.2-0.3-0.4v-1c0-0.2,0.1-0.3,0.3-0.3h1.8c1.1,0,1.5-0.4,1.5-1.1
		c0-0.6,0.1-4,0.1-8v-2.1c-0.7-1.3-7.7-13.7-8.9-15.2c-0.5-0.6-1.5-0.9-2.2-0.9h-0.8c-0.3,0-0.3-0.1-0.3-0.3v-1.2
		c0-0.2,0.1-0.3,0.3-0.3c0.3,0,2.4,0.1,5.7,0.1c4.4,0,5.9-0.1,6.4-0.1c0.3,0,0.3,0.1,0.3,0.3v1c0,0.3-0.1,0.4-0.3,0.4h-1.1
		c-0.9,0-1.3,0.3-1.2,1.2c0.1,0.8,5.2,10.3,6.4,12.7c1.5-2.4,7-11.4,7.1-12.4c0.1-0.8-0.2-1.5-1.5-1.5h-1.1c-0.3,0-0.3-0.1-0.3-0.3
		v-1.1c0-0.2,0.1-0.3,0.3-0.3c0.4,0,2.2,0.1,5.2,0.1c2.8,0,3.7-0.1,4.1-0.1c0.3,0,0.3,0.1,0.3,0.3v1c0,0.3-0.1,0.4-0.3,0.4h-0.9
		c-0.6,0-1.6,0.3-2.3,1c-0.7,0.8-7.8,11.8-9.5,14.6V149.5z"/>
</g>
</svg>
