<?xml version="1.0" encoding="utf-8"?>
<!-- Generator: Adobe Illustrator 19.0.0, SVG Export Plug-In . SVG Version: 6.00 Build 0)  -->
<svg version="1.1" id="圖層_1" xmlns="http://www.w3.org/2000/svg" xmlns:xlink="http://www.w3.org/1999/xlink" x="0px" y="0px"
	 viewBox="-109 115.9 146.9 33.3" style="enable-background:new -109 115.9 146.9 33.3;" xml:space="preserve">
<g>
	<path d="M-99.5,135.8c0,2.3,0.1,6.5,0.1,7.3c0,2.2,0.8,3.1,1.7,3.4c0.7,0.2,1.7,0.3,3.4,0.3c0.8,0,2.8-0.1,3.6-0.2
		c0.8-0.1,2.4-0.5,3.5-1.5c0.8-0.7,3.2-3.5,4-4.6c0.2-0.2,0.3-0.3,0.5-0.2l0.7,0.4c0.1,0.1,0.2,0.2,0.1,0.4l-2.1,6.4
		c-0.1,0.4-0.4,0.6-0.9,0.6c-0.2,0-1.2,0-3.8-0.1c-2.7,0-7.1,0-14.3,0c-1.6,0-2.8,0-3.7,0c-0.9,0-1.5,0.1-1.8,0.1
		c-0.3,0-0.3-0.1-0.3-0.3v-1c0-0.3,0.1-0.3,0.4-0.3h1.5c2,0,2.1-0.3,2.1-1.8v-10.2v-4.2c0-3.5-0.1-8.9-0.2-9.5
		c-0.2-1.2-0.6-1.5-1.9-1.5h-1.6c-0.2,0-0.3-0.1-0.3-0.3V118c0-0.2,0-0.3,0.3-0.3c0.9,0,2.5,0.2,6,0.1h1.2c1.9,0,11.8-0.1,13.7-0.1
		c0.7,0,1.5,0,1.7,0s0.3,0.1,0.3,0.3c0.2,0.6,1.8,6.4,2,6.8c0.1,0.3,0,0.4-0.1,0.5l-0.8,0.3c-0.1,0-0.3,0-0.4-0.2
		c-0.2-0.3-3.7-4.2-4.7-4.8c-0.9-0.5-2.1-1.1-3.3-1.1l-6.5-0.2l-0.1,12.4c1.3,0,4.4-0.1,4.9-0.2c0.9-0.2,1.5-0.5,2-1.5
		c0.3-0.6,0.7-1.6,0.7-2.4c0-0.3,0.2-0.3,0.3-0.3l1.1,0.1c0.2,0,0.3,0.1,0.3,0.3c-0.1,0.7-0.1,3.5-0.1,4.6c0,1.7,0.2,3.8,0.3,4.7
		c0,0.2-0.1,0.3-0.3,0.3l-0.9,0.2c-0.2,0-0.3,0-0.3-0.3c-0.2-0.7-0.5-1.6-0.7-2.1c-0.4-0.9-1.2-1.5-2.1-1.5c-1.5-0.2-3.6-0.3-5-0.3
		L-99.5,135.8z"/>
	<path d="M-61.9,118c0-0.3,0.1-0.3,0.3-0.3c0.3,0,2.3,0.1,5.1,0.1c3.6,0,4.7-0.1,5.1-0.1c0.3,0,0.3,0.1,0.3,0.3v1.1
		c0,0.2-0.1,0.3-0.3,0.3h-1c-1,0-2.2,0.4-3.1,2c-1.4,2.3-4,9-5.2,11.8c-0.9,1.9-6,14.4-6.4,15.4c-0.2,0.3-0.5,0.6-0.9,0.6
		c-0.5,0-0.7-0.5-0.9-1c-1.5-3.7-5.1-13.5-6.5-17.5c-1.1-3.1-3-8.6-3.5-9.8c-0.4-0.9-0.9-1.4-1.8-1.4h-1c-0.2,0-0.3-0.1-0.3-0.4v-1
		c0-0.3,0.1-0.3,0.3-0.3c0.4,0,1.9,0.1,6.4,0.1c4,0,6-0.1,6.4-0.1s0.4,0.1,0.4,0.3v0.9c0,0.3-0.1,0.4-0.3,0.4h-2.1
		c-1.1,0-1.8,0.4-1.8,1.1c0,0.3,0,0.9,0.1,1.5c0.3,1.5,1.9,6.6,2.8,9.1c0.6,1.6,2.9,8.4,3.6,10.8h0.1v-0.1c1-2.4,3.8-9.5,4.2-10.8
		c0.7-2,3.4-8.5,3.4-10.3c0-0.5-0.4-1.2-1.6-1.2h-1.2c-0.2,0-0.3-0.2-0.3-0.4V118z"/>
	<path d="M-42.4,135.8c0,2.3,0.1,6.5,0.1,7.3c0,2.2,0.8,3.1,1.7,3.4c0.7,0.2,1.7,0.3,3.4,0.3c0.8,0,2.8-0.1,3.6-0.2
		c0.8-0.1,2.4-0.5,3.5-1.5c0.8-0.7,3.2-3.5,4-4.6c0.2-0.2,0.3-0.3,0.5-0.2l0.7,0.4c0.1,0.1,0.2,0.2,0.1,0.4l-2.1,6.4
		c-0.1,0.4-0.4,0.6-0.9,0.6c-0.2,0-1.2,0-3.8-0.1c-2.7,0-7.1,0-14.3,0c-1.6,0-2.8,0-3.7,0c-0.9,0-1.5,0.1-1.8,0.1
		c-0.3,0-0.3-0.1-0.3-0.3v-1c0-0.3,0.1-0.3,0.4-0.3h1.5c2,0,2.2-0.3,2.2-1.8v-10.2v-4.2c0-3.5-0.1-8.9-0.2-9.5
		c-0.2-1.2-0.6-1.5-1.9-1.5h-1.6c-0.2,0-0.3-0.1-0.3-0.3V118c0-0.2,0-0.3,0.3-0.3c0.9,0,2.5,0.2,6,0.1h1.2c1.9,0,11.8-0.1,13.7-0.1
		c0.7,0,1.5,0,1.7,0s0.3,0.1,0.3,0.3c0.2,0.6,1.8,6.4,2,6.8c0.1,0.3,0,0.4-0.1,0.5l-0.8,0.3c-0.1,0-0.3,0-0.4-0.2
		c-0.2-0.3-3.7-4.2-4.7-4.8c-0.9-0.5-2.1-1.1-3.3-1.1l-6.5-0.2l-0.1,12.4c1.3,0,4.4-0.1,4.9-0.2c0.9-0.2,1.5-0.5,2-1.5
		c0.3-0.6,0.7-1.6,0.7-2.4c0-0.3,0.2-0.3,0.3-0.3l1.1,0.1c0.2,0,0.3,0.1,0.3,0.3c-0.1,0.7-0.1,3.5-0.1,4.6c0,1.7,0.2,3.8,0.3,4.7
		c0,0.2-0.1,0.3-0.3,0.3l-0.9,0.2c-0.2,0-0.3,0-0.3-0.3c-0.2-0.7-0.5-1.6-0.7-2.1c-0.4-0.9-1.2-1.5-2.2-1.5c-1.5-0.2-3.6-0.3-5-0.3
		L-42.4,135.8z"/>
	<path d="M-18.6,128.8c0,7.3,0.3,13.3,0.4,14.7c0.1,2.2,0.6,3.2,2.1,3.2h1.1c0.3,0,0.3,0.2,0.3,0.4v1c0,0.3,0,0.3-0.3,0.3
		c-0.4,0-3-0.1-4.6-0.1c-1.1,0-4,0.1-4.5,0.1c-0.2,0-0.3-0.1-0.3-0.4v-1.1c0-0.1,0.1-0.3,0.3-0.3h1.5c1.1,0,1.7-0.9,1.9-3.6
		c0-0.8,0.3-6.8,0.3-13.7V124c0-2.6-1.5-4.6-3.4-4.6H-25c-0.2,0-0.3-0.1-0.3-0.3v-1.2c0-0.2,0.1-0.3,0.3-0.3c0.2,0,0.6,0,1.3,0.1
		s1.9,0,3.8,0c0.7,0,1.4,0,1.9-0.1c0.6,0,0.9,0,1.2,0c0.5,0,0.8,0.1,1,0.4c0.4,0.4,8.9,11,9.7,12.2c0.6,0.7,7.3,9,8,9.9h0.2v-4.5
		c0-3.8,0-5.9-0.1-8.1C2,126,1.8,121.8,1.6,121c-0.3-1-1.2-1.6-2.3-1.6h-1.4c-0.3,0-0.3-0.2-0.3-0.4v-1c0-0.3,0-0.3,0.3-0.3
		c0.5,0,1.9,0.1,4.8,0.1c2.6,0,3.6-0.1,4.1-0.1c0.3,0,0.4,0.2,0.4,0.3v1c0,0.3-0.1,0.4-0.3,0.4H5.9c-0.9,0-1.3,0.7-1.4,2.3
		c-0.2,2.9-0.6,10.1-0.6,14.5v11.4c0,0.6,0,1.2-0.5,1.2c-0.6,0-1.1-0.3-1.5-0.7c-0.3-0.4-2.7-3.1-5.3-6.3c-3-3.7-6.4-7.7-6.9-8.4
		c-0.6-0.6-7.5-9.2-8-9.8h-0.3V128.8z"/>
	<path d="M19.6,119.6h-1.2c-1.4,0-4.5,0-6.3,0.6c-1.4,0.6-3,3.4-3.8,4.9c-0.1,0.2-0.3,0.4-0.5,0.3L7,125.1c-0.2-0.1-0.2-0.2-0.2-0.4
		c0.4-1.6,1.9-7.3,2.1-7.9c0.1-0.6,0.3-0.8,0.5-0.8c0.3,0,0.4,0.2,0.7,0.4c0.9,0.9,1.7,1.1,2.9,1.1c2.3,0.1,4.1,0.3,8.3,0.3h2.3
		c4.7,0,6.5-0.2,8.5-0.3c0.8,0,2.5-0.6,3.1-1.1c0.3-0.3,0.5-0.4,0.8-0.4s0.3,0.2,0.4,0.7c0.1,0.8,0.9,6.1,1.3,8.2
		c0,0.3,0,0.3-0.2,0.4l-0.9,0.3c-0.2,0-0.3-0.1-0.4-0.3c-0.6-1.2-2.2-4-3.4-4.8c-1.2-0.7-5.1-0.8-6.6-0.8h-1.2v22.9
		c0,3.3,0.4,4.1,1.5,4.1h2.5c0.2,0,0.3,0.2,0.3,0.4v0.9c0,0.3-0.1,0.4-0.4,0.4c-0.4,0-1.8-0.1-6.5-0.1c-4.4,0-6.2,0.1-6.8,0.1
		c-0.3,0-0.3-0.1-0.3-0.4v-1c0-0.3,0.1-0.3,0.3-0.3h2.5c0.9,0,1.4-0.5,1.4-1.2c0.1-1.1,0.1-14.3,0.1-15.1V119.6z"/>
</g>
</svg>
