<?xml version="1.0" encoding="utf-8"?>
<!-- Generator: Adobe Illustrator 19.0.0, SVG Export Plug-In . SVG Version: 6.00 Build 0)  -->
<svg version="1.1" xmlns="http://www.w3.org/2000/svg" xmlns:xlink="http://www.w3.org/1999/xlink" x="0px" y="0px"
	 viewBox="0 0 14.6 13.4" style="enable-background:new 0 0 14.6 13.4;" xml:space="preserve">
<style type="text/css">
	.st0{fill:#717171;}
</style>
<g id="圖層_2">
</g>
<g id="圖層_1">
	<path id="XMLID_3_" class="st0" d="M14.2,4.1c-0.6-1.9-2.6-3.5-4.7-3C8.6,1.3,7.9,1.9,7.3,2.7c0,0,0,0,0,0c0,0,0,0,0,0
		C6.7,1.9,5.9,1.3,5,1.1c-2.1-0.5-4,1.1-4.7,3c-0.4,1.4,0,2.8,0.9,3.9c1.4,1.8,3.3,3.5,5.9,5.1c0,0,0.1,0,0.1,0c0,0,0,0,0,0
		c0,0,0,0,0,0c0,0,0.1,0,0.1,0c2.6-1.6,4.5-3.3,5.9-5.1C14.2,6.8,14.6,5.5,14.2,4.1z"/>
</g>
</svg>
