<?xml version="1.0" encoding="utf-8"?>
<!-- Generator: Adobe Illustrator 19.0.0, SVG Export Plug-In . SVG Version: 6.00 Build 0)  -->
<svg version="1.1" xmlns="http://www.w3.org/2000/svg" xmlns:xlink="http://www.w3.org/1999/xlink" x="0px" y="0px"
	 viewBox="0 0 18.3 18.4" style="enable-background:new 0 0 18.3 18.4;" xml:space="preserve">
<style type="text/css">
	.st0{fill:#FFFFFF;}
	.st1{fill:none;stroke:#FFFFFF;stroke-linecap:round;stroke-linejoin:round;stroke-miterlimit:10;}
	.st2{fill:none;stroke:#FFFFFF;stroke-width:1.5;stroke-linecap:round;stroke-linejoin:round;stroke-miterlimit:10;}
</style>
<g id="圖層_2">
</g>
<g id="圖層_1">
	<path id="XMLID_492_" class="st0" d="M13.8,1.2H3.4C3,1.5,1,2.4,1,4v4.4h3.9c0.3-2,2.1-3.6,4.2-3.6c2.1,0,3.9,1.5,4.2,3.6h3.8V4
		C17.1,2.4,16.1,0.8,13.8,1.2z M16.5,5.4c0,0.5-0.4,0.9-0.9,0.9h-2.1c-0.5,0-0.9-0.4-0.9-0.9V3.3c0-0.5,0.4-0.9,0.9-0.9h2.1
		c0.5,0,0.9,0.4,0.9,0.9V5.4z"/>
	<circle id="XMLID_436_" class="st1" cx="9.2" cy="9.3" r="4.3"/>
	<path id="XMLID_223_" class="st2" d="M14.9,17.3H3.4c-1.2,0-2.3-1-2.3-2.3V3.4c0-1.2,1-2.3,2.3-2.3h11.6c1.2,0,2.3,1,2.3,2.3V15
		C17.2,16.2,16.2,17.3,14.9,17.3z"/>
</g>
</svg>
