<?xml version="1.0" encoding="utf-8"?>
<!-- Generator: Adobe Illustrator 19.0.0, SVG Export Plug-In . SVG Version: 6.00 Build 0)  -->
<svg version="1.1" id="圖層_1" xmlns="http://www.w3.org/2000/svg" xmlns:xlink="http://www.w3.org/1999/xlink" x="0px" y="0px"
	 viewBox="0 0 217 32.7" style="enable-background:new 0 0 217 32.7;" xml:space="preserve">
<g id="XMLID_145_">
	<path id="XMLID_146_" d="M11.4,17.9c0,0.4,0.1,10.5,0.1,11c0,1.4,0.7,1.6,1.8,1.6h1.8c0.2,0,0.4,0.1,0.4,0.3v1.1
		c0,0.3-0.2,0.4-0.4,0.4c-0.5,0-2.3-0.1-6.4-0.1c-4.4,0-6.3,0.1-6.8,0.1c-0.3,0-0.4-0.1-0.4-0.3v-1.2c0-0.2,0.1-0.3,0.4-0.3h1.8
		c0.9,0,1.8-0.1,2-1.3c0.1-0.6,0.2-10.1,0.2-12.5v-3.1c0-1.1-0.1-8.9-0.1-9.5C5.5,3.2,5.1,2.7,3.9,2.7H1.6c-0.3,0-0.4-0.1-0.4-0.3
		V1.3C1.2,1.1,1.3,1,1.5,1C2,1,4.3,1.1,8.6,1.1c4.2,0,5.6-0.1,6.2-0.1c0.3,0,0.4,0.2,0.4,0.4v1c0,0.3-0.2,0.4-0.4,0.4h-1.7
		c-1,0-1.7,0.4-1.7,1.2c0,0.4-0.1,10.1-0.1,10.6V17.9z"/>
	<path id="XMLID_148_" d="M24.6,12.3c0,7.5,0.4,13.6,0.4,15c0.1,2.2,0.6,3.2,2.2,3.2h1.1c0.4,0,0.4,0.2,0.4,0.4v1
		c0,0.3,0,0.4-0.4,0.4c-0.4,0-3.1-0.1-4.7-0.1c-1.1,0-4.1,0.1-4.6,0.1c-0.2,0-0.3-0.1-0.3-0.4v-1.1c0-0.1,0.1-0.3,0.3-0.3h1.5
		c1.1,0,1.8-1,2-3.6c0-0.8,0.3-6.9,0.3-13.9V7.4c0-2.6-1.5-4.6-3.4-4.6H18c-0.2,0-0.3-0.1-0.3-0.3V1.2C17.7,1.1,17.8,1,18,1
		c0.2,0,0.6,0,1.4,0.1c0.8,0,2,0,3.9,0c0.7,0,1.4,0,1.9-0.1c0.6,0,1,0,1.2,0c0.5,0,0.8,0.1,1.1,0.4c0.4,0.4,9,11.2,9.9,12.5
		c0.6,0.7,7.5,9.2,8.2,10.1h0.2v-4.6c0-3.9,0-6.1-0.1-8.2c-0.1-1.7-0.3-6-0.5-6.7c-0.3-1.1-1.3-1.7-2.3-1.7h-1.4
		c-0.3,0-0.3-0.2-0.3-0.4v-1c0-0.3,0-0.4,0.4-0.4c0.5,0,1.9,0.1,4.9,0.1C49,1.1,50.1,1,50.6,1C51,1,51,1.1,51,1.3v1
		c0,0.3-0.1,0.4-0.3,0.4h-1.2c-0.9,0-1.3,0.7-1.4,2.3c-0.2,3-0.7,10.3-0.7,14.8v11.6c0,0.6,0,1.2-0.5,1.2c-0.6,0-1.1-0.4-1.5-0.7
		c-0.4-0.4-2.7-3.2-5.4-6.4c-3.1-3.8-6.5-7.9-7-8.6c-0.6-0.6-7.6-9.4-8.2-10h-0.3V12.3z"/>
	<path id="XMLID_150_" d="M56.9,22.4c0.2,0,0.3,0.1,0.3,0.4c0.1,1.4,0.4,3.1,1.7,5c1.3,2.1,3.6,3.2,5.8,3.2c2.4,0,5.7-1.5,5.7-5.1
		c0-4-1.8-5.4-6.5-7.1c-1.4-0.5-4.3-1.8-6.4-3.7c-1.5-1.4-2.2-3.6-2.2-6.3c0-2.5,1-4.5,3.1-6.1c1.8-1.5,3.7-2.1,6.2-2.1
		c2.9,0,4.6,0.7,5.5,1.1c0.4,0.2,0.7,0.1,0.9-0.1l0.6-0.6c0.2-0.2,0.4-0.3,0.6-0.3s0.4,0.3,0.4,0.7c0,0.7,0.7,6.8,0.7,7.3
		c0,0.2-0.1,0.3-0.3,0.3L72.3,9c-0.2,0-0.4,0-0.4-0.3c-0.4-1.2-1.1-3-2.7-4.6c-1.1-1.2-2.5-1.8-4.6-1.8c-3.5,0-4.9,2.8-4.9,4.4
		c0,1.5,0.2,2.8,1.2,3.9c1.1,1.1,3.6,2.2,5.4,2.7c2.5,0.8,4.6,1.7,6.3,3.4c1.4,1.5,2.2,3.3,2.2,6.3c0,5.4-3.5,9.7-9.3,9.7
		c-3.6,0-5.7-0.8-7.5-2.1c-0.5-0.4-0.8-0.5-1.1-0.5s-0.4,0.4-0.7,0.8s-0.4,0.5-0.8,0.5c-0.4,0-0.5-0.3-0.5-0.7
		c0.1-0.5,0.7-7.6,0.8-8.2c0-0.3,0.1-0.4,0.3-0.4L56.9,22.4z"/>
	<path id="XMLID_152_" d="M82.3,11.7c0-2.9,0-7.5,0-8c-0.1-0.7-0.6-1-1.5-1h-2.3c-0.2,0-0.3-0.1-0.3-0.3V1.3c0-0.3,0.1-0.4,0.3-0.4
		c0.5,0,2.1,0.1,6.5,0.1c0.8,0,3.3-0.1,4.8-0.1c5.3,0,7.8,0.5,10.3,2.2c2,1.5,3.3,3.9,3.3,6.7c0,5.4-4.2,8.9-11.7,8.9
		c-1.5,0-2.8,0-3.9-0.2v1.9c0,2.1,0,8.1,0,8.6c0.1,1,0.6,1.4,1.4,1.4h2.5c0.4,0,0.4,0.2,0.4,0.3v1c0,0.3,0,0.4-0.4,0.4
		c-0.6,0-2-0.1-6.8-0.1c-3.9,0-5.6,0.1-6.1,0.1c-0.4,0-0.4-0.2-0.4-0.3v-1.1c0-0.3,0-0.4,0.3-0.4h1.4c1.5,0,1.8-0.2,2-1.4
		c0-0.4,0.1-7.3,0.1-12.4V11.7z M87.8,17c0.8,0.3,2,0.4,3.2,0.4c1.9,0,4.2-1.5,5.3-3c0.9-1.3,1.1-3,1.1-4.6c0-6-4.8-7.3-6.9-7.3
		c-0.8,0-1.8,0-2.5,0.3V17z"/>
	<path id="XMLID_155_" d="M115,17.9c0,0.4,0.1,10.5,0.1,11c0,1.4,0.7,1.6,1.8,1.6h1.8c0.2,0,0.4,0.1,0.4,0.3v1.1
		c0,0.3-0.2,0.4-0.4,0.4c-0.5,0-2.3-0.1-6.4-0.1c-4.4,0-6.3,0.1-6.8,0.1c-0.3,0-0.4-0.1-0.4-0.3v-1.2c0-0.2,0.1-0.3,0.4-0.3h1.8
		c0.9,0,1.8-0.1,2-1.3c0.1-0.6,0.2-10.1,0.2-12.5v-3.1c0-1.1-0.1-8.9-0.1-9.5c-0.1-1.1-0.6-1.5-1.8-1.5h-2.3c-0.3,0-0.4-0.1-0.4-0.3
		V1.3c0-0.2,0.1-0.3,0.3-0.3c0.5,0,2.8,0.1,7.1,0.1c4.2,0,5.6-0.1,6.2-0.1c0.3,0,0.4,0.2,0.4,0.4v1c0,0.3-0.2,0.4-0.4,0.4h-1.7
		c-1,0-1.7,0.4-1.7,1.2c0,0.4-0.1,10.1-0.1,10.6V17.9z"/>
	<path id="XMLID_157_" d="M131.7,20.7c0,2.6,0.1,7.5,0.2,8.2c0.1,0.9,0.4,1.7,1.1,1.7h2.2c0.3,0,0.4,0.1,0.4,0.3v1.1
		c0,0.3-0.1,0.4-0.5,0.4c-0.6,0-1.4-0.1-6-0.1c-4.3,0-5.4,0.1-5.8,0.1c-0.3,0-0.4-0.1-0.4-0.4v-1c0-0.2,0.1-0.4,0.3-0.4h1.5
		c1,0,1.7-0.3,1.7-1.4c0.1-4.4,0.1-8.5,0.1-12.6V4.9c0-1.5-0.6-2.2-1.4-2.2h-1.7c-0.2,0-0.3-0.1-0.3-0.3V1.3c0-0.2,0.1-0.3,0.3-0.3
		c0.3,0,1.7,0.1,6,0.1c2.5,0,6.5-0.1,7.8-0.1c3.5,0,6.2,1.2,8,2.8c1.6,1.4,2.4,3.2,2.4,4.9c0,5.5-3.3,7.8-8.2,8.6v0.2
		c1.2,0.4,2,1.2,2.6,2c0.5,0.7,3.2,4.8,3.6,5.4c0.3,0.4,3.1,4.4,3.7,5c0.8,0.7,2.1,0.8,3.1,0.8c0.3,0,0.4,0.1,0.4,0.3v0.9
		c0,0.3-0.1,0.4-0.4,0.4c-0.4,0-1.5-0.1-4.3-0.1c-1.2,0-2.9,0.1-3.9,0.1c-0.5-0.4-1.4-1.6-1.9-2.5c-0.8-1.2-2.5-4.4-2.9-5.1
		c-0.4-0.8-1.7-2.8-2.4-3.8c-1.1-1.5-2.1-2.7-3.9-2.7c-0.2,0-0.9,0-1.4,0.1V20.7z M131.8,16.7c0.6,0.1,1.1,0.2,1.7,0.2
		c6.8,0,8.2-5.5,8.2-7.5c0-2-0.8-3.9-1.9-4.9c-1.6-1.4-3.6-1.9-5.8-1.9c-0.7,0-1.2,0-1.6,0.3c-0.4,0.2-0.5,0.7-0.5,1.3L131.8,16.7z"
		/>
	<path id="XMLID_160_" d="M163.5,19.4c0,2.4,0.1,6.7,0.1,7.5c0,2.3,0.8,3.2,1.8,3.4c0.7,0.2,1.8,0.4,3.4,0.4c0.8,0,2.8-0.1,3.7-0.2
		c0.8-0.1,2.5-0.5,3.6-1.5c0.8-0.7,3.2-3.6,4.1-4.6c0.2-0.2,0.3-0.3,0.5-0.2l0.7,0.4c0.1,0.1,0.2,0.2,0.1,0.4l-2.1,6.6
		c-0.1,0.4-0.4,0.7-1,0.7c-0.2,0-1.2,0-3.9-0.1c-2.8,0-7.3,0-14.6,0c-1.6,0-2.8,0-3.7,0c-0.9,0-1.5,0.1-1.9,0.1
		c-0.3,0-0.4-0.1-0.4-0.4v-1.1c0-0.3,0.1-0.4,0.4-0.4h1.5c2,0,2.2-0.3,2.2-1.9V18.2v-4.3c0-3.6-0.1-9-0.2-9.6
		c-0.2-1.2-0.6-1.5-1.9-1.5h-1.7c-0.2,0-0.3-0.1-0.3-0.3V1.3c0-0.2,0-0.3,0.3-0.3c1,0,2.5,0.2,6.1,0.1h1.2c1.9,0,12-0.1,13.9-0.1
		c0.7,0,1.5,0,1.8,0s0.3,0.1,0.4,0.3c0.2,0.6,1.8,6.5,2,7c0.1,0.3,0,0.4-0.1,0.5L178.8,9c-0.1,0-0.3,0-0.4-0.2
		c-0.2-0.3-3.8-4.3-4.8-4.9c-0.9-0.5-2.1-1.1-3.3-1.1l-6.7-0.2l-0.1,12.7c1.3,0,4.5-0.1,5-0.2c1-0.2,1.5-0.5,2-1.6
		c0.3-0.6,0.7-1.7,0.7-2.5c0-0.3,0.2-0.4,0.4-0.4l1.1,0.1c0.2,0,0.3,0.1,0.3,0.4c-0.1,0.7-0.1,3.6-0.1,4.7c0,1.8,0.2,3.9,0.3,4.8
		c0,0.2-0.1,0.3-0.4,0.3l-1,0.2c-0.2,0-0.3,0-0.4-0.3c-0.2-0.7-0.5-1.7-0.7-2.2c-0.4-0.9-1.2-1.5-2.2-1.6c-1.6-0.2-3.7-0.3-5.1-0.3
		L163.5,19.4z"/>
	<path id="XMLID_162_" d="M188,12c0-1.1-0.2-7.4-0.3-8c-0.1-1.1-0.7-1.2-1.6-1.2h-2.4c-0.2,0-0.4-0.1-0.4-0.3V1.2
		c0-0.2,0.2-0.3,0.4-0.3c1.3,0,3.6,0.1,6.6,0.1c2.2,0,4.4-0.1,6.6-0.1c5.9,0,10.6,0.6,14.6,4c2.9,2.4,4.9,6.1,4.9,11.1
		c0,5-1.4,8.3-4.3,11.5c-4.3,4.6-11.1,4.7-14.1,4.7c-1.7,0-6.1-0.1-8.3-0.1c-3.9,0-5.6,0.1-6.2,0.1c-0.2,0-0.3-0.1-0.3-0.4v-1.1
		c0-0.2,0.1-0.3,0.4-0.3h2.5c0.9,0,1.3-0.4,1.4-1.1c0.1-0.9,0.3-10.8,0.3-14.1V12z M193.5,16.3c0,0.5,0.1,8,0.1,10.7
		c0,0.9,0.2,1.6,0.8,2.5c0.5,0.8,2.2,1.2,3.9,1.2c3.4,0,6.9-1.5,9.1-4.4c1.8-2.4,3.2-6,3.2-10c0-3.5-1.5-7.3-3.5-9.6
		c-2.4-2.5-6.2-4.1-9.8-4.1c-1,0-2.1,0-2.8,0.4c-0.6,0.4-0.8,1.1-0.8,1.9c-0.1,1.8-0.1,7.5-0.1,8.2V16.3z"/>
</g>
</svg>
