<?xml version="1.0" encoding="utf-8"?>
<!-- Generator: Adobe Illustrator 19.0.0, SVG Export Plug-In . SVG Version: 6.00 Build 0)  -->
<svg version="1.1" id="logo" xmlns="http://www.w3.org/2000/svg" xmlns:xlink="http://www.w3.org/1999/xlink" x="0px" y="0px"
	 viewBox="0 0 292 59" style="enable-background:new 0 0 292 59;" xml:space="preserve">
<g id="XMLID_3_">
	<path id="XMLID_30_" d="M194.4,15h-0.9v-1h-2v1.4h-0.9V3.8h3.7V15z M193.5,13.2V4.7h-2v8.5H193.5z M204.7,16.1h-7.6v1.1h-0.9V7.4
		c-0.3,0.5-0.6,0.8-0.9,1l-0.6-0.7c1.1-1.2,2.2-3.1,3.1-5.5l0.8,0.3c-0.2,0.7-0.6,1.7-1.3,2.9h2.9c-0.1-0.5-0.4-1.3-0.9-2.6l0.8-0.2
		c0.4,0.8,0.7,1.8,1,2.9h3.2v0.8H201v2.3h3.2v0.9H201v2.4h3.2v0.9H201v2.5h3.7V16.1z M200.1,8.6V6.3h-3v2.3H200.1z M200.1,11.9V9.5
		h-3v2.4H200.1z M200.1,15.2v-2.5h-3v2.5H200.1z"/>
	<path id="XMLID_22_" d="M212.5,6.3l-0.6,0.1c-0.1,2.7-0.5,4.8-1.1,6.3c0.5,0.5,1,1.1,1.6,1.8l-0.5,0.7c-0.5-0.6-1-1.1-1.5-1.6
		c-0.6,1-1.4,2.2-2.7,3.6l-0.7-0.7c1.3-1.2,2.2-2.4,2.7-3.6c-0.7-0.7-1.5-1.3-2.3-1.9c0.3-1.1,0.7-2.6,1-4.2c-0.5,0-1,0.1-1.4,0.1
		V6.1c0.4,0,0.9,0,1.5-0.1c0.2-1.2,0.4-2.4,0.5-3.7l0.8,0.1c-0.1,1.3-0.3,2.4-0.5,3.4c0.4,0,1-0.1,1.6-0.2c0-0.3,0-0.8,0-1.5h0.8
		c0,0.5,0,1,0,1.4c0.2,0,0.4-0.1,0.6-0.1V6.3z M211,6.6c-0.7,0.1-1.3,0.2-1.7,0.2c-0.3,1.5-0.6,2.8-0.9,4c0.4,0.3,1,0.8,1.6,1.4
		C210.6,10.6,210.9,8.7,211,6.6z M221.8,8.6c-0.4,1.3-0.9,1.9-1.6,1.9c-0.6,0-1.1-0.3-1.6-1c-0.5-0.7-0.9-1.6-1.3-2.7H214v2.7
		c1.1-0.2,2.1-0.5,3-0.9l0.2,0.8c-1.3,0.5-2.6,0.8-4,1.1l-0.3-0.8c0.2-0.2,0.3-0.4,0.3-0.6V3.8c2.7-0.2,5.2-0.6,7.4-1.3l0.5,0.8
		c-1,0.3-2.1,0.6-3.3,0.8c0,0.8,0.1,1.4,0.2,1.9h3.6v0.8h-3.3c0.2,0.7,0.4,1.2,0.7,1.7c0.3,0.5,0.5,0.8,0.7,1
		c0.2,0.2,0.3,0.2,0.5,0.2c0.2,0,0.3-0.1,0.4-0.3c0.1-0.2,0.3-0.6,0.6-1.4L221.8,8.6z M220.8,17.2H220v-0.9h-5.7v0.9h-0.9V11h7.4
		V17.2z M217.1,5.9c-0.1-0.7-0.2-1.3-0.2-1.7c-0.9,0.1-1.9,0.3-2.9,0.4v1.3H217.1z M220,13.2v-1.4h-5.7v1.4H220z M220,15.5V14h-5.7
		v1.5H220z"/>
	<path id="XMLID_11_" d="M229.2,5H224V4.2h2.5c-0.1-0.3-0.3-0.9-0.7-1.6l0.8-0.3c0.3,0.6,0.6,1.2,0.8,1.9h1.8V5z M229,7.5h-4.7V6.6
		h4.7V7.5z M229,9.9h-4.7V9.1h4.7V9.9z M228.8,16.9H228v-0.9h-2.4v1.3h-0.9v-5.6h4.2V16.9z M228,15.1v-2.6h-2.4v2.6H228z
		 M231.5,11.6c-0.3,1.8-0.7,3.3-1.2,4.5l-0.8-0.3c0.5-1.2,0.9-2.6,1.1-4.4L231.5,11.6z M238.7,5.2h-4v2.7h3.7v0.8h-8.2V7.9h3.7V5.2
		h-4V4.4h4V2.4h0.9v1.9h4V5.2z M236.4,14c0,1-0.1,1.7-0.2,2.1c-0.1,0.4-0.3,0.6-0.6,0.7c-0.3,0.1-0.8,0.2-1.6,0.2
		c-0.7,0-1.2-0.1-1.4-0.4c-0.2-0.2-0.3-0.5-0.3-0.9v-4.4h0.9v4.5c0,0.2,0.1,0.3,0.2,0.3c0.1,0,0.5,0.1,1.1,0.1c0.4,0,0.6,0,0.7-0.1
		c0.1-0.1,0.2-0.3,0.3-0.6c0.1-0.3,0.1-0.9,0.1-1.7L236.4,14z M235.6,11l-0.5,0.7c-0.8-0.7-1.7-1.3-2.7-1.8l0.5-0.7
		C234,9.9,234.9,10.5,235.6,11z M238.7,15.4l-0.8,0.4c-0.4-1.5-1-2.9-1.7-4.3l0.8-0.4C237.8,12.5,238.4,13.9,238.7,15.4z"/>
	<g id="XMLID_1_">
		<path id="XMLID_50_" d="M258.3,50.8l-3.5-7c-1.1-2.2-2.8-3.4-4.8-3.5c2.7-0.4,4.9-1.5,6.7-3.2c1.8-1.8,2.6-3.8,2.6-6.2
			c0-2.6-1.1-5.1-3.3-6.9c-2.2-1.9-4.9-3-7.9-3h-19v1.4c3,0,5,1.6,5,4.7v25.7c0,2.5-1.1,4-3.2,4.4c-2.4-0.6-4.5-2.7-6.3-6.4l-3.5-7
			c-1.1-2.2-2.7-3.4-4.8-3.5c2.7-0.4,4.9-1.5,6.7-3.2c1.8-1.8,2.6-3.8,2.6-6.2c0-2.6-1.1-5.1-3.3-6.9c-2.2-1.9-4.9-3-7.9-3H195v1.4
			c4,0,5,1.6,5,4.7v25.7c0,2-0.6,3.3-1.9,4c-1.4-0.6-2.4-1.9-3.2-3.7L181.7,21h-0.9l6.9-18l-0.8-0.2l-15.3,40.7l-3.7,9.8
			c-0.6,1.6-1.3,2.7-2.4,3.3c-1.1-0.8-1.4-2-1.4-3.9V27c0-3.1,1-4.7,4-4.7v-1l-10.5,0l-11.9,29.2l-11.8-26.7
			c-0.4-0.8-0.6-1.7-0.6-2.5l-12.1,0v1c3,0,5,1.6,5,4.7v25.7c0,3.2-2,4.8-5,4.8V58h10v-0.4c-3,0-4-1.6-4-4.8V25.4L141.7,58h1.9
			L157,25.4v27.3c0,3.1-1,4.7-5,4.7V58h10.3h5.8h3.8v-0.7c-3,0-3.9-1.4-2.9-4.1l2.6-7.2h13.1l2.9,7.2c1.1,2.7,0.3,4.1-2.7,4.1V58
			h10.5h4.8H211v-0.6c-3,0-4-1.5-4-4.6V40h0.6c1.7,0,3.1,0.6,4.1,1.3c1.1,0.7,2,1.8,2.5,3l3.2,7.1c1.3,2.9,1.9,5.6,1.9,6.6h9.8h2.8
			h13v-0.6c-3,0-5-1.5-5-4.6V40h1.4c1.7,0,3.1,0.6,4.1,1.3c1.1,0.7,2,1.8,2.5,3l3.2,7.1c1.3,2.9,1.9,5.6,1.9,6.6H266v-0.6
			C263,57.4,260.5,55.2,258.3,50.8z M172.2,45c0.3-1,2.3-5.9,6-15.6c3.7,9.3,5.8,14.6,6.3,15.6H172.2z M209,39h-2V23h2
			c2.9,0,5.2,0.6,7,2.2c1.8,1.6,2.7,3.5,2.7,5.9c0,2.4-0.9,4.2-2.7,5.8C214.2,38.4,211.9,39,209,39z M242.8,39H240V23h2.8
			c2.9,0,5.2,0.6,7,2.2c1.8,1.6,2.7,3.5,2.7,5.9c0,2.4-0.9,4.2-2.7,5.8C247.9,38.4,245.6,39,242.8,39z"/>
		<path id="XMLID_53_" d="M283,21v1.4c3,0,3,1.6,0.8,4.7l-7.7,10.9l-6.8-10.8c-2-3.1-1.3-4.7,1.7-4.7V21h-16v1.4
			c3,0,4.3,1.6,6.2,4.7l7,11.2c1.1,1.8,2,2.9,2.1,3.4c0.3,0.9,0.7,2.5,0.7,4.8v6.4c0,3.1-2,4.6-5,4.6V58h16v-0.6c-3,0-5-1.5-5-4.6
			V41.2c0-1.2,0-2,0.1-2.2c0.2-0.5,0.3-0.8,0.6-1.1l7.3-10.7c2.1-3.1,4.5-4.7,7-4.8V21H283z"/>
		<path id="XMLID_54_" d="M39,42H22v1.3c4,0.8,5,2.7,5,5.9v1.3c0,2.2-0.6,3.9-2,5.2c-1.4,1.3-3.3,1.9-5.8,1.9
			c-2.6,0-4.8-0.8-6.6-2.4c-1.9-1.6-3.2-3.6-3.9-6.1c-0.8-2.6-1.2-5.6-1.2-8.9c0-4.9,1.2-9.1,3.5-12.6c2.3-3.6,5.4-5.4,9.1-5.4
			c6.6,0,10.7,3.4,12.4,10.1l0.9-0.3l-0.6-11h-1c-0.1,2-1.3,2.1-3.6,1.3c-3.2-1.1-5.9-1.5-7.9-1.6c-4,0-7.6,0.9-10.7,2.7
			c-3.1,1.8-5.4,4.1-7.1,7.1c-1.7,3-2.5,6.3-2.5,9.7c0,5.4,1.8,9.9,5.6,13.5c3.6,3.6,8.2,5.3,13.8,5.2c3.1-0.1,6-0.7,8.5-1.7
			c2.3-0.9,4.1-2.2,6.1-3.7v-4.4c0-3.2,2-5.2,5-5.9V42z"/>
		<path id="XMLID_55_" d="M58.1,57.4c-5.6,0-8.1-2.1-8.1-6.2V39h4.3c3.6,0,5.4,2,5.4,6H61V32h-1.3c0,4-1.8,6-5.4,6H50V22h8.9
			c5.5,0,8.5,2.9,8.8,8.1l1-0.2L68.1,21H38v1.4c4-0.1,5,1.5,5,4.7v25.7c0,3-1,4.5-5,4.6V58h32.4l0.6-10.4l-0.8,0
			C69.9,54.1,65.9,57.4,58.1,57.4z"/>
		<path id="XMLID_56_" d="M71.8,21l-0.6,9l1,0c0.4-5.2,3.1-8,8.2-8H86v30.8c0,3.1-1,4.6-4,4.6V58h16v-0.6c-4,0-5-1.5-5-4.6V22h5.8
			c5.1,0,7.9,2.8,8.2,8.1l1-0.1l-0.6-9H71.8z"/>
	</g>
</g>
</svg>
