<?xml version="1.0" encoding="utf-8"?>
<!-- Generator: Adobe Illustrator 19.0.0, SVG Export Plug-In . SVG Version: 6.00 Build 0)  -->
<svg version="1.1" id="圖層_1" xmlns="http://www.w3.org/2000/svg" xmlns:xlink="http://www.w3.org/1999/xlink" x="0px" y="0px"
	 viewBox="-285.8 289.9 14.3 16.3" style="enable-background:new -285.8 289.9 14.3 16.3;" xml:space="preserve">
<style type="text/css">
	.st0{fill:#FFFFFF;}
</style>
<g id="圖層_2">
</g>
<g id="圖層_1_2_">
	<g id="Shape_1_">
		<g id="XMLID_1_">
			<path id="XMLID_2_" class="st0" d="M-278.1,290.3c-4.6,0-7.1,3.4-7.1,6.1c0,1.8,0.7,3.3,2,3.8c0.3,0.1,0.4,0,0.4-0.3
				c0-0.3,0.1-0.6,0.3-0.8c0.1-0.3,0-0.4-0.1-0.6c-0.4-0.4-0.6-1.1-0.6-2c0-2.6,1.9-4.8,4.9-4.8c2.7,0,4.1,1.6,4.1,3.8
				c0,2.9-1.2,5.2-3.1,5.2c-1.1,0-1.9-0.8-1.5-1.9c0.3-1.2,0.8-2.6,0.8-3.5c0-0.8-0.4-1.5-1.2-1.5c-1.2,0-2,1.1-2,2.6
				c0,0.9,0.4,1.5,0.4,1.5s-1.2,4.6-1.2,5.4c-0.1,0.7-0.3,1.5-0.1,2.2c0.4,0.1,0.8,0.4,1.2,0.4c0.4-0.6,0.8-1.4,0.9-2.1
				c0.1-0.4,0.7-2.7,0.7-2.7c0.4,0.7,1.4,1.2,2.4,1.2c3.1,0,5.3-2.9,5.3-6.8C-272,292.9-274.4,290.3-278.1,290.3z"/>
		</g>
	</g>
</g>
</svg>
