<?xml version="1.0" encoding="utf-8"?>
<!-- Generator: Adobe Illustrator 19.0.0, SVG Export Plug-In . SVG Version: 6.00 Build 0)  -->
<svg version="1.1" id="圖層_1" xmlns="http://www.w3.org/2000/svg" xmlns:xlink="http://www.w3.org/1999/xlink" x="0px" y="0px"
	 viewBox="-109 115.9 174.1 33.3" style="enable-background:new -109 115.9 174.1 33.3;" xml:space="preserve">
<g>
	<path d="M-100.3,137.1c0,2.6,0.1,7.4,0.2,8c0.1,0.9,0.4,1.6,1.1,1.6h2.1c0.3,0,0.3,0.1,0.3,0.3v1c0,0.3-0.1,0.4-0.5,0.4
		c-0.6,0-1.4-0.1-5.9-0.1c-4.2,0-5.2,0.1-5.7,0.1c-0.3,0-0.3-0.1-0.3-0.4v-1c0-0.2,0.1-0.3,0.3-0.3h1.5c0.9,0,1.6-0.3,1.6-1.4
		c0.1-4.3,0.1-8.3,0.1-12.4v-11.3c0-1.5-0.6-2.1-1.4-2.1h-1.7c-0.2,0-0.3-0.1-0.3-0.3v-1.2c0-0.2,0.1-0.3,0.3-0.3
		c0.3,0,1.7,0.1,5.9,0.1c2.4,0,6.4-0.1,7.7-0.1c3.4,0,6.1,1.2,7.8,2.7c1.5,1.4,2.3,3.2,2.3,4.8c0,5.4-3.3,7.7-8,8.4v0.2
		c1.2,0.4,2,1.2,2.6,2c0.5,0.7,3.2,4.7,3.5,5.2c0.3,0.4,3,4.3,3.7,4.9c0.8,0.7,2,0.8,3.1,0.8c0.3,0,0.3,0.1,0.3,0.3v0.9
		c0,0.3-0.1,0.4-0.3,0.4c-0.3,0-1.5-0.1-4.2-0.1c-1.2,0-2.8,0.1-3.8,0.1c-0.5-0.4-1.3-1.5-1.9-2.5c-0.8-1.2-2.5-4.3-2.8-5
		c-0.4-0.8-1.6-2.8-2.3-3.7c-1.1-1.5-2.1-2.7-3.9-2.7c-0.2,0-0.9,0-1.4,0.1V137.1z M-100.2,133.2c0.6,0.1,1.1,0.2,1.6,0.2
		c6.7,0,8.1-5.4,8.1-7.4c0-2-0.8-3.8-1.9-4.8c-1.5-1.4-3.5-1.8-5.7-1.8c-0.7,0-1.2,0-1.5,0.3c-0.3,0.2-0.5,0.7-0.5,1.2L-100.2,133.2
		z"/>
	<path d="M-70.8,135.9c0,2.3,0.1,6.5,0.1,7.3c0,2.2,0.8,3.1,1.7,3.4c0.7,0.2,1.7,0.3,3.4,0.3c0.8,0,2.8-0.1,3.6-0.2
		c0.8-0.1,2.4-0.5,3.5-1.5c0.8-0.7,3.2-3.5,4-4.6c0.2-0.2,0.3-0.3,0.5-0.2l0.7,0.4c0.1,0.1,0.2,0.2,0.1,0.4l-2.1,6.5
		c-0.1,0.4-0.4,0.6-0.9,0.6c-0.2,0-1.2,0-3.8-0.1c-2.7,0-7.1,0-14.3,0c-1.6,0-2.8,0-3.7,0c-0.9,0-1.5,0.1-1.8,0.1
		c-0.3,0-0.3-0.1-0.3-0.3v-1c0-0.3,0.1-0.3,0.4-0.3h1.5c2,0,2.2-0.3,2.2-1.8v-10.2v-4.2c0-3.5-0.1-8.9-0.2-9.5
		c-0.2-1.2-0.6-1.5-1.9-1.5h-1.6c-0.2,0-0.3-0.1-0.3-0.3v-1.1c0-0.2,0-0.3,0.3-0.3c0.9,0,2.5,0.2,6,0.1h1.2c1.9,0,11.8-0.1,13.7-0.1
		c0.7,0,1.5,0,1.7,0s0.3,0.1,0.3,0.3c0.2,0.6,1.8,6.4,2,6.8c0.1,0.3,0,0.4-0.1,0.5l-0.8,0.3c-0.1,0-0.3,0-0.4-0.2
		c-0.2-0.3-3.7-4.2-4.7-4.8c-0.9-0.5-2.1-1.1-3.3-1.1l-6.5-0.2l-0.1,12.4c1.3,0,4.4-0.1,4.9-0.2c0.9-0.2,1.5-0.5,2-1.5
		c0.3-0.6,0.7-1.6,0.7-2.4c0-0.3,0.2-0.3,0.3-0.3l1.1,0.1c0.2,0,0.3,0.1,0.3,0.3c-0.1,0.7-0.1,3.5-0.1,4.6c0,1.7,0.2,3.8,0.3,4.7
		c0,0.2-0.1,0.3-0.3,0.3l-0.9,0.2c-0.2,0-0.3,0-0.3-0.3c-0.2-0.7-0.5-1.6-0.7-2.1c-0.4-0.9-1.2-1.5-2.2-1.5c-1.5-0.2-3.6-0.3-5-0.3
		L-70.8,135.9z"/>
	<path d="M-48.8,128.3c0-2.8,0-7.4,0-7.9c-0.1-0.7-0.6-0.9-1.5-0.9h-2.2c-0.2,0-0.3-0.1-0.3-0.3v-1.1c0-0.3,0.1-0.3,0.3-0.3
		c0.5,0,2.1,0.1,6.4,0.1c0.8,0,3.3-0.1,4.7-0.1c5.2,0,7.7,0.5,10.1,2.2c2,1.5,3.3,3.9,3.3,6.5c0,5.3-4.1,8.7-11.4,8.7
		c-1.5,0-2.8,0-3.9-0.2v1.9c0,2.1,0,7.9,0,8.5c0.1,0.9,0.6,1.4,1.3,1.4h2.4c0.3,0,0.3,0.2,0.3,0.3v1c0,0.3,0,0.4-0.3,0.4
		c-0.6,0-2-0.1-6.6-0.1c-3.8,0-5.5,0.1-5.9,0.1c-0.3,0-0.3-0.2-0.3-0.3v-1.1c0-0.3,0-0.3,0.3-0.3h1.4c1.5,0,1.8-0.2,1.9-1.3
		c0-0.4,0.1-7.1,0.1-12.1V128.3z M-43.4,133.5c0.8,0.3,2,0.3,3.1,0.3c1.9,0,4.1-1.5,5.2-2.9c0.9-1.3,1-2.9,1-4.5
		c0-5.8-4.7-7.2-6.8-7.2c-0.8,0-1.8,0-2.5,0.3V133.5z"/>
	<path d="M-1,120.7c3.2,2.6,5.8,6.9,5.8,12.7c0,3.2-0.9,6.5-3.2,9.5c-2.8,3.4-6.4,6.1-12.9,6.1c-2.6,0-6.3-0.8-9.7-2.8
		c-3.1-1.8-6.3-6.5-6.3-12.7c0-2.6,0.7-6.7,4-10.7c3.8-4.6,8.4-5.5,12.1-5.5C-8,117.3-4.5,117.9-1,120.7z M-17.5,121.6
		c-2.6,2.5-3.9,7-3.9,10.4c0,11.2,6.9,15.1,10.5,15.1c8.7,0,10.1-9.6,10.1-13.2c0-9.4-6.4-14.7-10.5-14.7
		C-12.1,119.2-14.6,118.7-17.5,121.6z"/>
	<path d="M16.1,137.1c0,2.6,0.1,7.4,0.2,8c0.1,0.9,0.4,1.6,1.1,1.6h2.2c0.3,0,0.3,0.1,0.3,0.3v1c0,0.3-0.1,0.4-0.5,0.4
		c-0.6,0-1.4-0.1-5.9-0.1c-4.2,0-5.2,0.1-5.7,0.1c-0.3,0-0.3-0.1-0.3-0.4v-1c0-0.2,0.1-0.3,0.3-0.3h1.5c0.9,0,1.6-0.3,1.6-1.4
		c0.1-4.3,0.1-8.3,0.1-12.4v-11.3c0-1.5-0.6-2.1-1.4-2.1H7.9c-0.2,0-0.3-0.1-0.3-0.3v-1.2c0-0.2,0.1-0.3,0.3-0.3
		c0.3,0,1.7,0.1,5.9,0.1c2.4,0,6.4-0.1,7.7-0.1c3.4,0,6.1,1.2,7.8,2.7c1.5,1.4,2.3,3.2,2.3,4.8c0,5.4-3.3,7.7-8,8.4v0.2
		c1.2,0.4,2,1.2,2.6,2c0.5,0.7,3.2,4.7,3.5,5.2c0.3,0.4,3,4.3,3.7,4.9c0.8,0.7,2,0.8,3.1,0.8c0.3,0,0.3,0.1,0.3,0.3v0.9
		c0,0.3-0.1,0.4-0.3,0.4c-0.3,0-1.5-0.1-4.2-0.1c-1.2,0-2.8,0.1-3.8,0.1c-0.5-0.4-1.3-1.5-1.9-2.5c-0.8-1.2-2.5-4.3-2.8-5
		c-0.4-0.8-1.6-2.8-2.3-3.7c-1.1-1.5-2.1-2.7-3.9-2.7c-0.2,0-0.9,0-1.4,0.1V137.1z M16.2,133.2c0.6,0.1,1.1,0.2,1.6,0.2
		c6.7,0,8.1-5.4,8.1-7.4c0-2-0.8-3.8-1.9-4.8c-1.5-1.4-3.5-1.8-5.7-1.8c-0.7,0-1.2,0-1.5,0.3c-0.3,0.2-0.5,0.7-0.5,1.2L16.2,133.2z"
		/>
	<path d="M46.9,119.7h-1.2c-1.4,0-4.5,0-6.3,0.6c-1.4,0.6-3,3.4-3.8,4.9c-0.1,0.2-0.3,0.4-0.5,0.3l-0.9-0.3
		c-0.2-0.1-0.2-0.2-0.2-0.4c0.4-1.6,1.9-7.3,2.1-7.9c0.1-0.6,0.3-0.8,0.5-0.8c0.3,0,0.4,0.2,0.7,0.4c0.9,0.9,1.7,1.1,2.9,1.1
		c2.3,0.1,4.1,0.3,8.3,0.3h2.3c4.7,0,6.5-0.2,8.5-0.3c0.8,0,2.5-0.6,3.1-1.1c0.3-0.3,0.5-0.4,0.8-0.4s0.3,0.2,0.4,0.7
		c0.1,0.8,0.9,6.1,1.3,8.2c0,0.3,0,0.3-0.2,0.4l-0.9,0.3c-0.2,0-0.3-0.1-0.4-0.3c-0.6-1.2-2.2-4-3.4-4.8c-1.2-0.7-5.1-0.8-6.6-0.8
		h-1.2v22.9c0,3.3,0.4,4.1,1.5,4.1h2.5c0.2,0,0.3,0.2,0.3,0.4v0.9c0,0.3-0.1,0.4-0.4,0.4c-0.4,0-1.8-0.1-6.4-0.1
		c-4.4,0-6.2,0.1-6.8,0.1c-0.3,0-0.3-0.1-0.3-0.4v-1c0-0.3,0.1-0.3,0.3-0.3h2.5c0.9,0,1.4-0.5,1.4-1.2c0.1-1.1,0.1-14.3,0.1-15.1
		V119.7z"/>
</g>
</svg>
