<?xml version="1.0" encoding="utf-8"?>
<!-- Generator: Adobe Illustrator 19.0.0, SVG Export Plug-In . SVG Version: 6.00 Build 0)  -->
<svg version="1.1" id="圖層_1" xmlns="http://www.w3.org/2000/svg" xmlns:xlink="http://www.w3.org/1999/xlink" x="0px" y="0px"
	 viewBox="-108.8 115.9 381.9 33.3" style="enable-background:new -108.8 115.9 381.9 33.3;" xml:space="preserve">
<g>
	<path d="M-106.7,138.7c0.2,0,0.3,0.1,0.3,0.3c0.1,1.4,0.4,3,1.6,4.9c1.3,2.1,3.5,3.1,5.7,3.1c2.3,0,5.6-1.5,5.6-5
		c0-4-1.8-5.2-6.4-7c-1.4-0.5-4.2-1.7-6.3-3.6c-1.5-1.4-2.1-3.5-2.1-6.1c0-2.4,0.9-4.4,3-6c1.7-1.5,3.6-2.1,6.1-2.1
		c2.8,0,4.6,0.7,5.4,1c0.4,0.2,0.7,0.1,0.9-0.1l0.6-0.6c0.2-0.2,0.3-0.3,0.6-0.3s0.3,0.3,0.3,0.7c0,0.7,0.7,6.7,0.7,7.1
		c0,0.2-0.1,0.3-0.3,0.3l-0.7,0.2c-0.2,0-0.3,0-0.4-0.3c-0.4-1.2-1.1-2.9-2.7-4.6c-1.1-1.2-2.5-1.8-4.5-1.8c-3.4,0-4.8,2.8-4.8,4.3
		c0,1.5,0.2,2.8,1.2,3.9c1.1,1.1,3.5,2.1,5.2,2.7c2.5,0.8,4.6,1.6,6.2,3.4c1.4,1.5,2.2,3.3,2.2,6.1c0,5.2-3.4,9.5-9.1,9.5
		c-3.5,0-5.6-0.8-7.3-2.1c-0.5-0.3-0.8-0.5-1-0.5c-0.3,0-0.4,0.3-0.7,0.8c-0.3,0.4-0.4,0.5-0.8,0.5c-0.3,0-0.5-0.3-0.5-0.7
		c0.1-0.5,0.7-7.5,0.8-8c0-0.3,0.1-0.3,0.3-0.3L-106.7,138.7z"/>
	<path d="M-77.8,135.8c0,2.3,0.1,6.5,0.1,7.3c0,2.2,0.8,3.1,1.7,3.4c0.7,0.2,1.7,0.3,3.4,0.3c0.8,0,2.8-0.1,3.6-0.2
		c0.8-0.1,2.4-0.5,3.5-1.5c0.8-0.7,3.2-3.5,4-4.6c0.2-0.2,0.3-0.3,0.5-0.2l0.7,0.4c0.1,0.1,0.2,0.2,0.1,0.4l-2.1,6.4
		c-0.1,0.4-0.4,0.6-0.9,0.6c-0.2,0-1.2,0-3.8-0.1c-2.7,0-7.1,0-14.3,0c-1.6,0-2.8,0-3.7,0c-0.9,0-1.5,0.1-1.8,0.1
		c-0.3,0-0.3-0.1-0.3-0.3v-1c0-0.3,0.1-0.3,0.4-0.3h1.5c2,0,2.1-0.3,2.1-1.8v-10.2v-4.2c0-3.5-0.1-8.9-0.2-9.5
		c-0.2-1.2-0.6-1.5-1.9-1.5h-1.6c-0.2,0-0.3-0.1-0.3-0.3V118c0-0.2,0-0.3,0.3-0.3c0.9,0,2.5,0.2,6,0.1h1.2c1.9,0,11.8-0.1,13.7-0.1
		c0.7,0,1.5,0,1.7,0s0.3,0.1,0.3,0.3c0.2,0.6,1.8,6.4,2,6.8c0.1,0.3,0,0.4-0.1,0.5l-0.8,0.3c-0.1,0-0.3,0-0.4-0.2
		c-0.2-0.3-3.7-4.2-4.7-4.8c-0.9-0.5-2.1-1.1-3.3-1.1l-6.5-0.2l-0.1,12.4c1.3,0,4.4-0.1,4.9-0.2c0.9-0.2,1.5-0.5,2-1.5
		c0.3-0.6,0.7-1.6,0.7-2.4c0-0.3,0.2-0.3,0.3-0.3l1.1,0.1c0.2,0,0.3,0.1,0.3,0.3c-0.1,0.7-0.1,3.5-0.1,4.6c0,1.7,0.2,3.8,0.3,4.7
		c0,0.2-0.1,0.3-0.3,0.3l-0.9,0.2c-0.2,0-0.3,0-0.3-0.3c-0.2-0.7-0.5-1.6-0.7-2.1c-0.4-0.9-1.2-1.5-2.2-1.5c-1.5-0.2-3.6-0.3-5-0.3
		L-77.8,135.8z"/>
	<path d="M-52.2,136.4c-0.3,1-2.5,7.1-2.7,8.3c-0.1,0.3-0.1,0.7-0.1,0.9c0,0.6,0.7,1,1.5,1h1.8c0.3,0,0.4,0.1,0.4,0.2v1.1
		c0,0.3-0.1,0.4-0.3,0.4c-0.6,0-2.4-0.1-5.4-0.1c-3.2,0-4.1,0.1-4.7,0.1c-0.3,0-0.3-0.3-0.3-0.6V147c0-0.3,0.1-0.3,0.3-0.3h1.3
		c1.2,0,2-0.6,2.8-1.9c0.4-0.8,3.5-8.5,4.8-12.1c0.3-0.9,3.8-10.1,4.2-11.3c0.1-0.4,0.3-1.2,0.1-1.5c-0.1-0.1-0.3-0.4-0.3-0.5
		c0-0.2,0.1-0.3,0.4-0.4c1.4-0.3,3.7-1.6,4.3-2.1c0.3-0.3,0.4-0.4,0.6-0.4c0.3,0,0.4,0.5,0.5,0.8c0.8,2.7,4.1,12.3,4.9,15
		c1,3.4,3.8,11.4,4.4,12.5c0.8,1.5,1.9,2,2.8,2h1.4c0.3,0,0.3,0.1,0.3,0.3v0.9c0,0.3-0.1,0.5-0.4,0.5c-0.8,0-1.6-0.1-6.4-0.1
		c-3.6,0-5.1,0.1-6,0.1c-0.3,0-0.4-0.3-0.4-0.5V147c0-0.3,0.1-0.3,0.3-0.3h1.1c1.2,0,1.5-0.4,1.3-1.6c-0.3-1.5-2.1-7.1-2.6-8.6
		H-52.2z M-42.6,134.7c-0.4-1.2-3.4-11.1-3.6-11.9c-0.2-0.5-0.3-0.8-0.4-0.8c-0.3,0-0.4,0.2-0.6,0.6c-0.2,0.6-4,11.1-4.3,12.1H-42.6
		z"/>
	<path d="M-20.2,137c0,2.6,0.1,7.4,0.2,8c0.1,0.9,0.4,1.6,1.1,1.6h2.1c0.3,0,0.3,0.1,0.3,0.3v1c0,0.3-0.1,0.4-0.5,0.4
		c-0.6,0-1.4-0.1-5.9-0.1c-4.2,0-5.2,0.1-5.7,0.1c-0.3,0-0.3-0.1-0.3-0.4v-1c0-0.2,0.1-0.3,0.3-0.3h1.5c0.9,0,1.6-0.3,1.6-1.4
		c0.1-4.3,0.1-8.3,0.1-12.4v-11.3c0-1.5-0.6-2.1-1.4-2.1h-1.7c-0.2,0-0.3-0.1-0.3-0.3V118c0-0.2,0.1-0.3,0.3-0.3
		c0.3,0,1.7,0.1,5.9,0.1c2.4,0,6.4-0.1,7.7-0.1c3.4,0,6.1,1.2,7.8,2.7c1.5,1.4,2.3,3.2,2.3,4.8c0,5.4-3.3,7.7-8,8.4v0.2
		c1.2,0.4,2,1.2,2.6,2c0.5,0.7,3.2,4.7,3.5,5.2c0.3,0.4,3,4.3,3.7,4.9c0.8,0.7,2,0.8,3.1,0.8c0.3,0,0.3,0.1,0.3,0.3v0.9
		c0,0.3-0.1,0.4-0.3,0.4c-0.3,0-1.5-0.1-4.2-0.1c-1.2,0-2.8,0.1-3.8,0.1c-0.5-0.4-1.3-1.5-1.9-2.5c-0.8-1.2-2.5-4.3-2.8-5
		c-0.4-0.8-1.6-2.8-2.3-3.7c-1.1-1.5-2.1-2.7-3.9-2.7c-0.2,0-0.9,0-1.4,0.1V137z M-20.1,133.1c0.6,0.1,1.1,0.2,1.6,0.2
		c6.7,0,8.1-5.4,8.1-7.4c0-2-0.8-3.8-1.9-4.8c-1.5-1.4-3.5-1.8-5.7-1.8c-0.7,0-1.2,0-1.5,0.3s-0.5,0.7-0.5,1.2L-20.1,133.1z"/>
	<path d="M29,141.2c0.1,0.1,0.2,0.3,0.1,0.4c-2.6,3.7-6.7,7.2-12.8,7.2c-5.5,0-8.6-1.6-11.3-4c-3.2-2.8-4.6-7.8-4.6-11.6
		c0-4.2,1.4-8.3,4.4-11.5c2.3-2.5,6-4.6,11.2-4.6c4,0,7.1,1.2,8.7,2.1c0.6,0.3,0.8,0.3,0.9,0l0.3-1.1c0.1-0.3,0.2-0.3,0.7-0.3
		s0.6,0.1,0.6,0.7c0,0.8,0.9,7.7,1,8.9c0,0.3,0,0.4-0.2,0.4l-0.8,0.3c-0.2,0.1-0.3-0.1-0.5-0.4c-0.5-1.5-1.5-3.7-3.4-5.6
		c-1.9-1.8-4.1-3.2-7.5-3.2c-6.9,0-9.7,6.2-9.7,12.4c0,2.7,0.8,7.7,4,11.2c2.8,3,5.3,3.4,7.4,3.4c4.7,0,8.5-2.4,10.3-5
		c0.2-0.3,0.4-0.4,0.5-0.3L29,141.2z"/>
	<path d="M39.9,133.3c-0.5,0-0.6,0.2-0.6,0.6v1.8c0,1.5,0.1,6.5,0.2,9.5c0,1,0.5,1.5,1.5,1.5h1.5c0.3,0,0.4,0.1,0.4,0.3v1
		c0,0.3-0.1,0.4-0.4,0.4c-0.8,0-2.2-0.1-5.8-0.1c-4.2,0-5.5,0.1-6.4,0.1c-0.3,0-0.4-0.2-0.4-0.4v-1c0-0.3,0.1-0.3,0.4-0.3h2.2
		c1,0,1.2-1,1.2-2c0-2.1,0.1-7,0.1-9.7v-5.5c0-1.3-0.1-6.6-0.1-7.3c0-2.1-0.3-2.8-1.6-2.8h-1.9c-0.3,0-0.4-0.2-0.4-0.4v-0.9
		c0-0.2,0.1-0.4,0.4-0.4c0.8,0,2.2,0.1,6.4,0.1c3.9,0,5.4-0.1,6.2-0.1c0.3,0,0.4,0.2,0.4,0.4v0.9c0,0.3-0.1,0.4-0.4,0.4h-1.5
		c-1.5,0-1.7,0.7-1.8,2.4c0,0.6-0.2,6.3-0.2,7.4v1.7c0,0.4,0.1,0.6,0.5,0.6H54c0.7,0,0.9-0.1,0.9-0.6v-1.3c0-1.5-0.2-7.6-0.2-8
		c0-1.4-0.2-2.1-1.2-2.1h-2c-0.3,0-0.3-0.1-0.3-0.4v-1c0-0.2,0-0.3,0.3-0.3c0.8,0,2.7,0.1,6.1,0.1c3.3,0,5-0.1,5.7-0.1
		c0.4,0,0.5,0.2,0.5,0.4v0.9c0,0.3-0.1,0.4-0.5,0.4h-1.5c-1.3,0-1.4,0.7-1.4,2.2c0,0.6-0.1,6.5-0.1,7.8v4.6c0,1.9,0.1,8,0.1,10.4
		c0,1.5,0.4,2.2,1.7,2.2h1.7c0.3,0,0.3,0.1,0.3,0.3v1c0,0.3-0.1,0.4-0.4,0.4c-0.7,0-2.2-0.1-5.8-0.1c-4,0-5.4,0.1-6.6,0.1
		c-0.3,0-0.3-0.2-0.3-0.4v-1c0-0.2,0-0.3,0.3-0.3h2.3c1,0,1.1-0.8,1.1-1.9c0.1-2.1,0.2-8.9,0.2-9.7v-1.2c0-0.4-0.3-0.5-0.9-0.5H39.9
		z"/>
	<path d="M96.5,137c0,2.6,0.1,7.4,0.2,8c0.1,0.9,0.4,1.6,1.1,1.6h2.1c0.3,0,0.3,0.1,0.3,0.3v1c0,0.3-0.1,0.4-0.5,0.4
		c-0.6,0-1.4-0.1-5.9-0.1c-4.2,0-5.2,0.1-5.7,0.1c-0.3,0-0.3-0.1-0.3-0.4v-1c0-0.2,0.1-0.3,0.3-0.3h1.5c0.9,0,1.6-0.3,1.6-1.4
		c0.1-4.3,0.1-8.3,0.1-12.4v-11.3c0-1.5-0.6-2.1-1.4-2.1h-1.7c-0.2,0-0.3-0.1-0.3-0.3V118c0-0.2,0.1-0.3,0.3-0.3
		c0.3,0,1.7,0.1,5.9,0.1c2.4,0,6.4-0.1,7.7-0.1c3.4,0,6.1,1.2,7.8,2.7c1.5,1.4,2.3,3.2,2.3,4.8c0,5.4-3.3,7.7-8,8.4v0.2
		c1.2,0.4,2,1.2,2.6,2c0.5,0.7,3.2,4.7,3.5,5.2c0.3,0.4,3,4.3,3.7,4.9c0.8,0.7,2,0.8,3.1,0.8c0.3,0,0.3,0.1,0.3,0.3v0.9
		c0,0.3-0.1,0.4-0.3,0.4c-0.3,0-1.5-0.1-4.2-0.1c-1.2,0-2.8,0.1-3.8,0.1c-0.5-0.4-1.3-1.5-1.9-2.5c-0.8-1.2-2.5-4.3-2.8-5
		c-0.4-0.8-1.6-2.8-2.3-3.7c-1.1-1.5-2.1-2.7-3.9-2.7c-0.2,0-0.9,0-1.4,0.1V137z M96.6,133.1c0.6,0.1,1.1,0.2,1.6,0.2
		c6.7,0,8.1-5.4,8.1-7.4c0-2-0.8-3.8-1.9-4.8c-1.5-1.4-3.5-1.8-5.7-1.8c-0.7,0-1.2,0-1.5,0.3c-0.3,0.2-0.5,0.7-0.5,1.2L96.6,133.1z"
		/>
	<path d="M126,135.8c0,2.3,0.1,6.5,0.1,7.3c0,2.2,0.8,3.1,1.7,3.4c0.7,0.2,1.7,0.3,3.4,0.3c0.8,0,2.8-0.1,3.6-0.2
		c0.8-0.1,2.4-0.5,3.5-1.5c0.8-0.7,3.2-3.5,4-4.6c0.2-0.2,0.3-0.3,0.5-0.2l0.7,0.4c0.1,0.1,0.2,0.2,0.1,0.4l-2.1,6.4
		c-0.1,0.4-0.4,0.6-0.9,0.6c-0.2,0-1.2,0-3.8-0.1c-2.7,0-7.1,0-14.3,0c-1.6,0-2.8,0-3.7,0c-0.9,0-1.5,0.1-1.8,0.1
		c-0.3,0-0.3-0.1-0.3-0.3v-1c0-0.3,0.1-0.3,0.4-0.3h1.5c2,0,2.1-0.3,2.1-1.8v-10.2v-4.2c0-3.5-0.1-8.9-0.2-9.5
		c-0.2-1.2-0.6-1.5-1.9-1.5h-1.6c-0.2,0-0.3-0.1-0.3-0.3V118c0-0.2,0-0.3,0.3-0.3c0.9,0,2.5,0.2,6,0.1h1.2c1.9,0,11.8-0.1,13.7-0.1
		c0.7,0,1.5,0,1.7,0s0.3,0.1,0.3,0.3c0.2,0.6,1.8,6.4,2,6.8c0.1,0.3,0,0.4-0.1,0.5l-0.8,0.3c-0.1,0-0.3,0-0.4-0.2
		c-0.2-0.3-3.7-4.2-4.7-4.8c-0.9-0.5-2.1-1.1-3.3-1.1l-6.5-0.2l-0.1,12.4c1.3,0,4.4-0.1,4.9-0.2c0.9-0.2,1.5-0.5,2-1.5
		c0.3-0.6,0.7-1.6,0.7-2.4c0-0.3,0.2-0.3,0.3-0.3l1.1,0.1c0.2,0,0.3,0.1,0.3,0.3c-0.1,0.7-0.1,3.5-0.1,4.6c0,1.7,0.2,3.8,0.3,4.7
		c0,0.2-0.1,0.3-0.3,0.3l-0.9,0.2c-0.2,0-0.3,0-0.3-0.3c-0.2-0.7-0.5-1.6-0.7-2.1c-0.4-0.9-1.2-1.5-2.1-1.5c-1.5-0.2-3.6-0.3-5-0.3
		L126,135.8z"/>
	<path d="M146.8,138.7c0.2,0,0.3,0.1,0.3,0.3c0.1,1.4,0.4,3,1.6,4.9c1.3,2.1,3.5,3.1,5.7,3.1c2.3,0,5.6-1.5,5.6-5c0-4-1.8-5.2-6.4-7
		c-1.4-0.5-4.2-1.7-6.3-3.6c-1.5-1.4-2.1-3.5-2.1-6.1c0-2.4,0.9-4.4,3-6c1.7-1.5,3.6-2.1,6.1-2.1c2.8,0,4.6,0.7,5.4,1
		c0.4,0.2,0.7,0.1,0.9-0.1l0.6-0.6c0.2-0.2,0.3-0.3,0.6-0.3s0.3,0.3,0.3,0.7c0,0.7,0.7,6.7,0.7,7.1c0,0.2-0.1,0.3-0.3,0.3l-0.7,0.2
		c-0.2,0-0.3,0-0.4-0.3c-0.4-1.2-1.1-2.9-2.7-4.6c-1.1-1.2-2.5-1.8-4.5-1.8c-3.4,0-4.8,2.8-4.8,4.3c0,1.5,0.2,2.8,1.2,3.9
		c1.1,1.1,3.5,2.1,5.2,2.7c2.5,0.8,4.6,1.6,6.2,3.4c1.4,1.5,2.2,3.3,2.2,6.1c0,5.2-3.4,9.5-9.1,9.5c-3.5,0-5.6-0.8-7.3-2.1
		c-0.5-0.3-0.8-0.5-1-0.5s-0.4,0.3-0.7,0.8c-0.3,0.4-0.4,0.5-0.8,0.5s-0.5-0.3-0.5-0.7c0.1-0.5,0.7-7.5,0.8-8c0-0.3,0.1-0.3,0.3-0.3
		L146.8,138.7z"/>
	<path d="M168.8,121.6c0-1.5-0.3-2.1-1.5-2.1h-2c-0.3,0-0.3-0.1-0.3-0.4v-1c0-0.3,0.1-0.3,0.4-0.3c0.4,0,2.5,0.1,6.6,0.1
		c3.6,0,5.7-0.1,6.2-0.1c0.3,0,0.3,0.1,0.3,0.3v1.1c0,0.3-0.1,0.3-0.3,0.3h-1.8c-1.3,0-2.1,0.8-2.1,1.7c0,0.5-0.1,3.1-0.1,5.6v5.3
		c0,2.2,0,5.2,0.1,6.6c0.1,2,0.5,4,1.5,5.3c1.5,2,3.8,2.7,5.8,2.7c2,0,4.4-0.8,5.8-2.1c1.6-1.6,2.5-4.1,2.5-7.3v-7.7
		c0-3.4-0.3-7.2-0.5-8.2c-0.1-1.1-0.8-1.9-1.8-1.9h-1.5c-0.3,0-0.3-0.1-0.3-0.3V118c0-0.3,0.1-0.3,0.3-0.3c0.4,0,2.4,0.1,5.2,0.1
		c2.7,0,4-0.1,4.4-0.1c0.4,0,0.4,0.1,0.4,0.3v1c0,0.3,0,0.4-0.3,0.4h-1.5c-1.5,0-1.7,1.2-1.8,1.7c-0.1,0.5-0.1,6.5-0.1,7.1
		c0,0.6-0.1,8.1-0.3,9.8c-0.3,3.5-1.3,6.2-3.6,8.3c-1.8,1.6-4.6,2.7-7.8,2.7c-2.1,0-4.6-0.3-6.2-1c-2.5-1-4.2-3-5.1-5.8
		c-0.6-1.9-0.8-4.7-0.8-10.4V121.6z"/>
	<path d="M222.7,139.4c0.1,0.1,0.1,0.2,0.1,0.4c-0.2,0.3-1.9,7.4-2.1,8.6c-1.1,0-13.5-0.1-17.9-0.1c-3.9,0-5.4,0.1-5.9,0.1
		c-0.3,0-0.3-0.1-0.3-0.4v-1c0-0.3,0-0.3,0.3-0.3h1.7c1.5,0,1.8-0.6,1.8-1.2c0-0.8,0.2-11.5,0.2-14.1V129c0-2.8-0.1-7.3-0.2-8
		c-0.1-1.1-0.3-1.5-1.4-1.5h-1.8c-0.3,0-0.3-0.3-0.3-0.4v-1c0-0.3,0.1-0.3,0.3-0.3c0.4,0,2,0.1,5.9,0.1c4.6,0,6.5-0.1,6.8-0.1
		s0.4,0.2,0.4,0.4v1c0,0.2-0.1,0.3-0.4,0.3h-2.3c-1.3,0-1.5,0.4-1.5,1.6c0,0.6-0.2,7.1-0.2,10.1v3.7c0,0.8,0,10.1,0.2,11.9h2.4
		c2.4,0,5.5,0,7.2-0.2c2.4-0.3,5.2-5.5,5.8-7.1c0.2-0.2,0.3-0.3,0.5-0.2L222.7,139.4z"/>
	<path d="M234.4,119.6h-1.2c-1.4,0-4.5,0-6.3,0.6c-1.4,0.6-3,3.4-3.8,4.9c-0.1,0.2-0.3,0.4-0.5,0.3l-0.9-0.3
		c-0.2-0.1-0.2-0.2-0.2-0.4c0.4-1.6,1.9-7.3,2.1-7.9c0.1-0.6,0.3-0.8,0.5-0.8c0.3,0,0.4,0.2,0.7,0.4c0.9,0.9,1.7,1.1,2.9,1.1
		c2.3,0.1,4.1,0.3,8.3,0.3h2.3c4.7,0,6.5-0.2,8.5-0.3c0.8,0,2.5-0.6,3.1-1.1c0.3-0.3,0.5-0.4,0.8-0.4s0.3,0.2,0.4,0.7
		c0.1,0.8,0.9,6.1,1.3,8.2c0,0.3,0,0.3-0.2,0.4l-0.9,0.3c-0.2,0-0.3-0.1-0.4-0.3c-0.6-1.2-2.2-4-3.4-4.8c-1.2-0.7-5.1-0.8-6.6-0.8
		h-1.2v22.9c0,3.3,0.4,4.1,1.5,4.1h2.5c0.2,0,0.3,0.2,0.3,0.4v0.9c0,0.3-0.1,0.4-0.4,0.4c-0.4,0-1.8-0.1-6.5-0.1
		c-4.4,0-6.2,0.1-6.8,0.1c-0.3,0-0.3-0.1-0.3-0.4v-1c0-0.3,0.1-0.3,0.3-0.3h2.5c0.9,0,1.4-0.5,1.4-1.2c0.1-1.1,0.1-14.3,0.1-15.1
		V119.6z"/>
	<path d="M255.6,138.7c0.2,0,0.3,0.1,0.3,0.3c0.1,1.4,0.4,3,1.6,4.9c1.3,2.1,3.5,3.1,5.7,3.1c2.3,0,5.6-1.5,5.6-5c0-4-1.8-5.2-6.4-7
		c-1.4-0.5-4.2-1.7-6.3-3.6c-1.5-1.4-2.2-3.5-2.2-6.1c0-2.4,0.9-4.4,3-6c1.7-1.5,3.6-2.1,6.1-2.1c2.8,0,4.6,0.7,5.4,1
		c0.4,0.2,0.7,0.1,0.9-0.1l0.6-0.6c0.2-0.2,0.3-0.3,0.6-0.3s0.3,0.3,0.3,0.7c0,0.7,0.7,6.7,0.7,7.1c0,0.2-0.1,0.3-0.3,0.3l-0.7,0.2
		c-0.2,0-0.3,0-0.4-0.3c-0.4-1.2-1.1-2.9-2.7-4.6c-1.1-1.2-2.5-1.8-4.5-1.8c-3.4,0-4.8,2.8-4.8,4.3c0,1.5,0.2,2.8,1.2,3.9
		c1.1,1.1,3.5,2.1,5.2,2.7c2.5,0.8,4.6,1.6,6.2,3.4c1.4,1.5,2.2,3.3,2.2,6.1c0,5.2-3.4,9.5-9.1,9.5c-3.5,0-5.6-0.8-7.3-2.1
		c-0.5-0.3-0.8-0.5-1-0.5s-0.4,0.3-0.7,0.8c-0.3,0.4-0.4,0.5-0.8,0.5s-0.5-0.3-0.5-0.7c0.1-0.5,0.7-7.5,0.8-8c0-0.3,0.1-0.3,0.3-0.3
		L255.6,138.7z"/>
</g>
</svg>
