<?xml version="1.0" encoding="utf-8"?>
<!-- Generator: Adobe Illustrator 19.0.0, SVG Export Plug-In . SVG Version: 6.00 Build 0)  -->
<svg version="1.1" id="圖層_1" xmlns="http://www.w3.org/2000/svg" xmlns:xlink="http://www.w3.org/1999/xlink" x="0px" y="0px"
	 viewBox="-109 115.9 209.5 33.3" style="enable-background:new -109 115.9 209.5 33.3;" xml:space="preserve">
<g>
	<path d="M-88.5,117.9c0-0.3,0.1-0.3,0.3-0.3c0.3,0,2.3,0.1,5.1,0.1c3.6,0,4.7-0.1,5.1-0.1c0.3,0,0.3,0.1,0.3,0.3v1.1
		c0,0.2-0.1,0.3-0.3,0.3h-1c-1,0-2.1,0.4-3.1,2c-1.4,2.3-4,9-5.2,11.8c-0.9,1.9-6,14.4-6.4,15.4c-0.2,0.3-0.5,0.6-0.9,0.6
		c-0.5,0-0.7-0.5-0.9-1c-1.5-3.7-5.1-13.5-6.5-17.5c-1.1-3.1-3-8.6-3.5-9.8c-0.4-0.9-0.9-1.4-1.8-1.4h-1c-0.2,0-0.3-0.1-0.3-0.4v-1
		c0-0.3,0.1-0.3,0.3-0.3c0.4,0,1.9,0.1,6.4,0.1c4,0,6-0.1,6.4-0.1c0.3,0,0.4,0.1,0.4,0.3v0.9c0,0.3-0.1,0.4-0.3,0.4h-2.1
		c-1.1,0-1.8,0.4-1.8,1.1c0,0.3,0,0.9,0.1,1.5c0.3,1.5,1.9,6.6,2.8,9.1c0.6,1.6,2.9,8.4,3.6,10.8h0.1v-0.1c1-2.4,3.8-9.5,4.2-10.8
		c0.7-2,3.4-8.5,3.4-10.3c0-0.5-0.4-1.2-1.6-1.2h-1.2c-0.2,0-0.3-0.2-0.3-0.4V117.9z"/>
	<path d="M-69,135.7c0,2.3,0.1,6.5,0.1,7.3c0,2.2,0.8,3.1,1.7,3.4c0.7,0.2,1.7,0.3,3.4,0.3c0.8,0,2.8-0.1,3.6-0.2
		c0.8-0.1,2.4-0.5,3.5-1.5c0.8-0.7,3.2-3.5,4-4.6c0.2-0.2,0.3-0.3,0.5-0.2l0.7,0.4c0.1,0.1,0.2,0.2,0.1,0.4l-2.1,6.4
		c-0.1,0.4-0.4,0.6-0.9,0.6c-0.2,0-1.2,0-3.8-0.1c-2.7,0-7.1,0-14.3,0c-1.6,0-2.8,0-3.7,0c-0.9,0-1.5,0.1-1.8,0.1
		c-0.3,0-0.3-0.1-0.3-0.3v-1c0-0.3,0.1-0.3,0.4-0.3h1.5c2,0,2.1-0.3,2.1-1.8v-10.2v-4.2c0-3.5-0.1-8.9-0.2-9.5
		c-0.2-1.2-0.6-1.5-1.9-1.5h-1.6c-0.2,0-0.3-0.1-0.3-0.3v-1.1c0-0.2,0-0.3,0.3-0.3c0.9,0,2.5,0.2,6,0.1h1.2c1.9,0,11.8-0.1,13.7-0.1
		c0.7,0,1.5,0,1.7,0s0.3,0.1,0.3,0.3c0.2,0.6,1.8,6.4,2,6.8c0.1,0.3,0,0.4-0.1,0.5l-0.8,0.3c-0.1,0-0.3,0-0.4-0.2
		c-0.2-0.3-3.7-4.2-4.7-4.8c-0.9-0.5-2.1-1.1-3.3-1.1l-6.5-0.2l-0.1,12.4c1.3,0,4.4-0.1,4.9-0.2c0.9-0.2,1.5-0.5,2-1.5
		c0.3-0.6,0.7-1.6,0.7-2.4c0-0.3,0.2-0.3,0.3-0.3l1.1,0.1c0.2,0,0.3,0.1,0.3,0.3c-0.1,0.7-0.1,3.5-0.1,4.6c0,1.7,0.2,3.8,0.3,4.7
		c0,0.2-0.1,0.3-0.3,0.3l-0.9,0.2c-0.2,0-0.3,0-0.3-0.3c-0.2-0.7-0.5-1.6-0.7-2.1c-0.4-0.9-1.2-1.5-2.1-1.5c-1.5-0.2-3.6-0.3-5-0.3
		L-69,135.7z"/>
	<path d="M-45.2,128.7c0,7.3,0.3,13.3,0.4,14.7c0.1,2.2,0.6,3.2,2.1,3.2h1.1c0.3,0,0.3,0.2,0.3,0.4v1c0,0.3,0,0.3-0.3,0.3
		c-0.4,0-3-0.1-4.6-0.1c-1.1,0-4,0.1-4.5,0.1c-0.2,0-0.3-0.1-0.3-0.4v-1.1c0-0.1,0.1-0.3,0.3-0.3h1.5c1.1,0,1.7-0.9,1.9-3.6
		c0-0.8,0.3-6.8,0.3-13.7v-5.5c0-2.6-1.5-4.6-3.4-4.6h-1.4c-0.2,0-0.3-0.1-0.3-0.3v-1.2c0-0.2,0.1-0.3,0.3-0.3c0.2,0,0.6,0,1.3,0.1
		s1.9,0,3.8,0c0.7,0,1.4,0,1.9-0.1c0.6,0,0.9,0,1.2,0c0.5,0,0.8,0.1,1,0.4c0.4,0.4,8.9,11,9.7,12.2c0.6,0.7,7.3,9,8,9.9h0.2v-4.5
		c0-3.8,0-5.9-0.1-8.1c-0.1-1.6-0.3-5.8-0.5-6.6c-0.3-1-1.2-1.6-2.3-1.6h-1.4c-0.3,0-0.3-0.2-0.3-0.4v-1c0-0.3,0-0.3,0.3-0.3
		c0.5,0,1.9,0.1,4.8,0.1c2.6,0,3.6-0.1,4.1-0.1c0.3,0,0.4,0.2,0.4,0.3v1c0,0.3-0.1,0.4-0.3,0.4h-1.2c-0.9,0-1.3,0.7-1.4,2.3
		c-0.2,2.9-0.6,10.1-0.6,14.5v11.4c0,0.6,0,1.2-0.5,1.2c-0.6,0-1.1-0.3-1.5-0.7c-0.3-0.4-2.7-3.1-5.3-6.3c-3-3.7-6.4-7.7-6.9-8.4
		c-0.6-0.6-7.5-9.2-8-9.8h-0.3V128.7z"/>
	<path d="M-13.8,128.4c0-1.1-0.2-7.2-0.3-7.9c-0.1-1-0.7-1.2-1.5-1.2h-2.3c-0.2,0-0.3-0.1-0.3-0.3v-1.2c0-0.2,0.2-0.3,0.4-0.3
		c1.2,0,3.5,0.1,6.5,0.1c2.2,0,4.3-0.1,6.4-0.1c5.8,0,10.4,0.6,14.4,3.9c2.8,2.3,4.8,5.9,4.8,10.9c0,4.9-1.4,8.2-4.2,11.3
		c-4.2,4.6-10.9,4.6-13.8,4.6c-1.6,0-6-0.1-8.2-0.1c-3.8,0-5.5,0.1-6.1,0.1c-0.2,0-0.3-0.1-0.3-0.4v-1.1c0-0.2,0.1-0.3,0.3-0.3h2.5
		c0.9,0,1.3-0.3,1.4-1.1c0.1-0.9,0.3-10.6,0.3-13.8V128.4z M-8.4,132.6c0,0.5,0.1,7.8,0.1,10.5c0,0.9,0.2,1.5,0.8,2.4
		c0.5,0.8,2.2,1.2,3.8,1.2c3.4,0,6.8-1.5,8.9-4.3c1.8-2.3,3.1-5.8,3.1-9.8c0-3.4-1.5-7.1-3.4-9.4c-2.3-2.5-6.1-4-9.6-4
		c-0.9,0-2.1,0-2.8,0.4c-0.6,0.3-0.8,1-0.8,1.9c-0.1,1.8-0.1,7.4-0.1,8.1V132.6z"/>
	<path d="M43.2,120.5c3.2,2.6,5.8,6.9,5.8,12.7c0,3.2-0.9,6.5-3.2,9.5c-2.8,3.4-6.4,6.1-12.9,6.1c-2.6,0-6.3-0.8-9.7-2.8
		c-3.1-1.8-6.3-6.5-6.3-12.7c0-2.6,0.7-6.7,4-10.7c3.8-4.6,8.4-5.5,12.1-5.5C36.3,117.1,39.7,117.7,43.2,120.5z M26.7,121.4
		c-2.6,2.5-3.9,7-3.9,10.4c0,11.2,6.9,15.1,10.5,15.1c8.7,0,10.1-9.6,10.1-13.2c0-9.4-6.4-14.7-10.5-14.7
		C32.1,119,29.6,118.5,26.7,121.4z"/>
	<path d="M60.3,136.9c0,2.6,0.1,7.4,0.2,8c0.1,0.9,0.4,1.6,1.1,1.6h2.2c0.3,0,0.3,0.1,0.3,0.3v1c0,0.3-0.1,0.4-0.5,0.4
		c-0.6,0-1.4-0.1-5.9-0.1c-4.2,0-5.2,0.1-5.7,0.1c-0.3,0-0.3-0.1-0.3-0.4v-1c0-0.2,0.1-0.3,0.3-0.3h1.5c0.9,0,1.6-0.3,1.6-1.4
		c0.1-4.3,0.1-8.3,0.1-12.4v-11.3c0-1.5-0.6-2.1-1.4-2.1h-1.7c-0.2,0-0.3-0.1-0.3-0.3v-1.2c0-0.2,0.1-0.3,0.3-0.3
		c0.3,0,1.7,0.1,5.9,0.1c2.4,0,6.4-0.1,7.7-0.1c3.4,0,6.1,1.2,7.8,2.7c1.5,1.4,2.3,3.2,2.3,4.8c0,5.4-3.3,7.7-8,8.4v0.2
		c1.2,0.4,2,1.2,2.6,2c0.5,0.7,3.2,4.7,3.5,5.2c0.3,0.4,3,4.3,3.7,4.9c0.8,0.7,2,0.8,3.1,0.8c0.3,0,0.3,0.1,0.3,0.3v0.9
		c0,0.3-0.1,0.4-0.3,0.4c-0.3,0-1.5-0.1-4.2-0.1c-1.2,0-2.8,0.1-3.8,0.1c-0.5-0.4-1.3-1.5-1.9-2.5c-0.8-1.2-2.5-4.3-2.8-5
		c-0.4-0.8-1.6-2.8-2.3-3.7c-1.1-1.5-2.1-2.7-3.9-2.7c-0.2,0-0.9,0-1.4,0.1V136.9z M60.4,133c0.6,0.1,1.1,0.2,1.6,0.2
		c6.7,0,8.1-5.4,8.1-7.4c0-2-0.8-3.8-1.9-4.8c-1.5-1.4-3.5-1.8-5.7-1.8c-0.7,0-1.2,0-1.5,0.3c-0.3,0.2-0.5,0.7-0.5,1.2L60.4,133z"/>
	<path d="M82.9,138.6c0.2,0,0.3,0.1,0.3,0.3c0.1,1.4,0.4,3,1.6,4.9c1.3,2.1,3.5,3.1,5.7,3.1c2.3,0,5.6-1.5,5.6-5c0-4-1.8-5.2-6.4-7
		c-1.4-0.5-4.2-1.7-6.3-3.6c-1.5-1.4-2.2-3.5-2.2-6.1c0-2.4,0.9-4.4,3-6c1.7-1.5,3.6-2.1,6.1-2.1c2.8,0,4.6,0.7,5.4,1
		c0.4,0.2,0.7,0.1,0.9-0.1l0.6-0.6c0.2-0.2,0.3-0.3,0.6-0.3s0.3,0.3,0.3,0.7c0,0.7,0.7,6.7,0.7,7.1c0,0.2-0.1,0.3-0.3,0.3l-0.7,0.2
		c-0.2,0-0.3,0-0.4-0.3c-0.4-1.2-1.1-2.9-2.7-4.6c-1.1-1.2-2.5-1.8-4.5-1.8c-3.4,0-4.8,2.8-4.8,4.3c0,1.5,0.2,2.8,1.2,3.9
		c1.1,1.1,3.5,2.1,5.2,2.7c2.5,0.8,4.6,1.6,6.2,3.4c1.4,1.5,2.2,3.3,2.2,6.1c0,5.2-3.4,9.5-9.1,9.5c-3.5,0-5.6-0.8-7.3-2.1
		c-0.5-0.3-0.8-0.5-1-0.5c-0.3,0-0.4,0.3-0.7,0.8c-0.3,0.4-0.4,0.5-0.8,0.5s-0.5-0.3-0.5-0.7c0.1-0.5,0.7-7.5,0.8-8
		c0-0.3,0.1-0.3,0.3-0.3L82.9,138.6z"/>
</g>
</svg>
