<?xml version="1.0" encoding="utf-8"?>
<!-- Generator: Adobe Illustrator 19.0.0, SVG Export Plug-In . SVG Version: 6.00 Build 0)  -->
<svg version="1.1" id="圖層_1" xmlns="http://www.w3.org/2000/svg" xmlns:xlink="http://www.w3.org/1999/xlink" x="0px" y="0px"
	 viewBox="0 0 282.6 30" style="enable-background:new 0 0 282.6 30;" xml:space="preserve">
<style type="text/css">
	.st0{fill:#030000;}
	.st1{fill:#EE3E2A;}
</style>
<path id="XMLID_386_" class="st0" d="M97.1,7.5c-0.8-3.9-4.1-4.6-6.3-4.6c-4,0-7.3,3-7.3,8.9c0,5.3,1.9,9.3,7.4,9.3
	c2,0,5.4-0.9,6.4-6.1h2.9c-1.2,8.4-8.1,8.8-9.8,8.8c-5.1,0-10.1-3.3-10.1-11.9c0-6.9,3.9-11.7,10.4-11.7c5.8,0,8.8,3.6,9.2,7.3H97.1
	z"/>
<path id="XMLID_385_" class="st0" d="M116.8,23.2h-2.7V12.5c0-2.2-0.6-3.6-3.2-3.6c-2.2,0-4.5,1.3-4.5,5.4v8.9h-2.7V0.8h2.7V9h0.1
	c0.8-1,2.1-2.6,4.8-2.6c2.5,0,5.7,1,5.7,5.7V23.2z"/>
<path id="XMLID_384_" class="st0" d="M131.5,23.2v-2.4l-0.1-0.1c-1.2,1.9-2.6,2.9-5.2,2.9c-2.4,0-5.3-1.2-5.3-5V6.9h2.7v10.8
	c0,2.7,1.4,3.6,3.1,3.6c3.5,0,4.5-3.1,4.5-5.4v-9h2.7v16.3H131.5z"/>
<path id="XMLID_383_" class="st0" d="M151.5,23.2h-2.7v-10c0-2.8-0.8-4.3-3.5-4.3c-1.6,0-4.3,1-4.3,5.4v8.9h-2.7V6.9h2.6v2.3h0.1
	c0.6-0.9,2.1-2.8,4.9-2.8c2.5,0,5.7,1,5.7,5.7V23.2z"/>
<path id="XMLID_380_" class="st0" d="M169,21.8c0,2.3,0,8.2-7.6,8.2c-1.9,0-5.7-0.5-6.2-4.9h2.7c0.5,2.6,3,2.6,3.7,2.6
	c4.7,0,4.6-3.8,4.6-5.7v-0.7h-0.1v0.1c-0.7,1.2-2.1,2.2-4.3,2.2c-5.5,0-7.2-5.2-7.2-9.1c0-4.6,2.5-8.1,6.8-8.1c3,0,4.2,1.8,4.9,2.8
	h0.1V6.9h2.6V21.8z M162,21.3c1.7,0,4.5-1.2,4.5-5.5c0-2.6-0.4-6.9-4.4-6.9c-4.2,0-4.5,4-4.5,6.1C157.6,18.5,159,21.3,162,21.3"/>
<path id="XMLID_379_" class="st0" d="M188.9,7.5c-0.8-3.9-4.1-4.6-6.3-4.6c-4.1,0-7.3,3-7.3,8.9c0,5.3,1.9,9.3,7.4,9.3
	c2,0,5.4-0.9,6.4-6.1h2.9c-1.2,8.4-8.1,8.8-9.8,8.8c-5.1,0-10.1-3.3-10.1-11.9c0-6.9,3.9-11.7,10.4-11.7c5.8,0,8.8,3.6,9.2,7.3
	H188.9z"/>
<path id="XMLID_378_" class="st0" d="M208.6,23.2h-2.7V12.5c0-2.2-0.6-3.6-3.2-3.6c-2.2,0-4.5,1.3-4.5,5.4v8.9h-2.7V0.8h2.7V9h0.1
	c0.8-1,2.1-2.6,4.8-2.6c2.5,0,5.7,1,5.7,5.7V23.2z"/>
<path id="XMLID_375_" class="st0" d="M226.5,18c-0.1,0.8-0.8,3.1-2.9,4.5c-0.7,0.5-1.8,1.1-4.4,1.1c-4.6,0-7.3-3.5-7.3-8.2
	c0-5,2.4-9.1,7.8-9.1c4.7,0,7,3.7,7,9.5h-11.9c0,3.4,1.6,5.4,4.7,5.4c2.6,0,4.1-2,4.2-3.2H226.5z M223.9,13.7
	c-0.2-2.5-1.2-4.9-4.5-4.9c-2.5,0-4.5,2.3-4.5,4.9H223.9z"/>
<path id="XMLID_358_" class="st0" d="M243.2,23.2h-2.7v-10c0-2.8-0.8-4.3-3.5-4.3c-1.6,0-4.3,1-4.3,5.4v8.9H230V6.9h2.6v2.3h0.1
	c0.6-0.9,2.1-2.8,4.9-2.8c2.5,0,5.7,1,5.7,5.7V23.2z"/>
<path id="XMLID_355_" class="st0" d="M260.8,21.8c0,2.3,0,8.2-7.6,8.2c-1.9,0-5.7-0.5-6.2-4.9h2.7c0.5,2.6,3,2.6,3.7,2.6
	c4.7,0,4.6-3.8,4.6-5.7v-0.7H258v0.1c-0.7,1.2-2.1,2.2-4.3,2.2c-5.5,0-7.2-5.2-7.2-9.1c0-4.6,2.5-8.1,6.8-8.1c3,0,4.2,1.8,4.9,2.8
	h0.1V6.9h2.6V21.8z M253.7,21.3c1.7,0,4.5-1.2,4.5-5.5c0-2.6-0.4-6.9-4.4-6.9c-4.2,0-4.5,4-4.5,6.1
	C249.3,18.5,250.8,21.3,253.7,21.3"/>
<path id="XMLID_354_" class="st0" d="M282.6,0.8v14.5c0,4.6-2.9,8.4-9,8.4c-6,0-8.6-3.9-8.6-8V0.8h3v14.1c0,4.9,3,6.2,5.7,6.2
	c2.8,0,5.9-1.3,5.9-6.1V0.8H282.6z"/>
<polygon id="XMLID_353_" class="st1" points="6.3,5.8 0,5.8 0,0 19.6,0 19.6,5.8 13.3,5.8 13.3,22.7 6.3,22.7 "/>
<polygon id="XMLID_352_" class="st1" points="20.7,0 39.8,0 39.8,5.8 27.7,5.8 27.7,8.7 39.8,8.7 39.8,14.1 27.7,14.1 27.7,16.9 
	39.8,16.9 39.8,22.7 20.7,22.7 "/>
<path id="XMLID_349_" class="st1" d="M41,0h11.4C60,0,62.6,5.6,62.6,11.3c0,6.9-3.7,11.3-11.6,11.3H41V0z M48,16.9h2.7
	c4.3,0,5-3.5,5-5.6c0-1.4-0.4-5.4-5.5-5.4H48V16.9z"/>
<polygon id="XMLID_348_" class="st1" points="72.6,14 70.5,10.4 68.4,14 63.3,14 68.2,6.8 63.5,0 68.6,0 70.5,3.4 72.5,0 77.6,0 
	72.9,6.8 77.8,14 "/>
</svg>
