<?xml version="1.0" encoding="utf-8"?>
<!-- Generator: Adobe Illustrator 19.0.0, SVG Export Plug-In . SVG Version: 6.00 Build 0)  -->
<svg version="1.1" id="圖層_1" xmlns="http://www.w3.org/2000/svg" xmlns:xlink="http://www.w3.org/1999/xlink" x="0px" y="0px"
	 viewBox="0 0 150 150" style="enable-background:new 0 0 150 150;" xml:space="preserve">
<style type="text/css">
	.st0{fill:#404040;}
</style>
<path id="XMLID_483_" class="st0" d="M105.7,24.3v28.6c-0.7,0.8-1.5,1.5-2.3,2c-0.9,0.5-1.6,0.8-2.2,0.8c-0.7,0-1.2-0.2-1.5-0.6
	c-0.4-0.5-0.5-1.1-0.5-2V24.3h-7.7v31.5c0,2.3,0.5,3.9,1.4,5.1c0.9,1.1,2.3,1.7,4,1.7c1.5,0,3-0.4,4.5-1.1c1.5-0.8,3-2,4.4-3.6V62
	h7.7V24.3H105.7z M82.2,26.1c-2-1.9-4.7-2.8-7.9-2.8c-3.5,0-6.3,0.9-8.4,2.7c-2,1.7-3.1,4-3.1,7v19.5c0,3.2,1,5.7,3,7.6
	c2,1.9,4.8,2.9,8.1,2.9c3.5,0,6.3-0.9,8.2-2.8c2-1.8,3-4.3,3-7.6V33.2C85.2,30.3,84.1,28,82.2,26.1z M77.3,53.2c0,1-0.3,1.7-0.9,2.3
	c-0.6,0.6-1.4,0.9-2.5,0.9c-1,0-1.8-0.3-2.3-0.9c-0.5-0.5-0.8-1.4-0.8-2.3V32.7c0-0.8,0.3-1.5,0.9-2c0.5-0.5,1.4-0.8,2.3-0.8
	c1,0,1.8,0.2,2.5,0.8c0.6,0.5,0.9,1.1,0.9,2V53.2z M53.4,10.9l-5.4,20.4h-0.6l-5.6-20.4h-8.8l10.4,30.9V62h8.7V40.8l10.1-29.9H53.4z
	 M113.6,100.9c0.5,0.6,0.7,1.7,0.7,3v3.5h-6v-3.5c0-1.4,0.2-2.4,0.7-3c0.5-0.6,1.2-1,2.3-1C112.3,99.9,113.1,100.3,113.6,100.9z
	 M89.8,100.7c-0.5-0.6-1.2-0.9-2.1-0.9c-0.5,0-1,0.1-1.4,0.3c-0.5,0.2-1,0.6-1.4,1.1v21.3c0.5,0.5,1.1,1,1.7,1.2
	c0.5,0.2,1.1,0.4,1.6,0.4c0.9,0,1.5-0.2,1.9-0.8c0.4-0.4,0.6-1.2,0.6-2.3v-17.7C90.6,102.1,90.3,101.3,89.8,100.7z M89.8,100.7
	c-0.5-0.6-1.2-0.9-2.1-0.9c-0.5,0-1,0.1-1.4,0.3c-0.5,0.2-1,0.6-1.4,1.1v21.3c0.5,0.5,1.1,1,1.7,1.2c0.5,0.2,1.1,0.4,1.6,0.4
	c0.9,0,1.5-0.2,1.9-0.8c0.4-0.4,0.6-1.2,0.6-2.3v-17.7C90.6,102.1,90.3,101.3,89.8,100.7z M128.6,74.3H21.4C9.7,74.3,0,84,0,95.8
	v21.9c0,11.8,9.7,21.4,21.4,21.4h107.2c11.7,0,21.4-9.6,21.4-21.4V95.8C150,84,140.3,74.3,128.6,74.3z M50.3,89.4h-8V129h-7.7V89.4
	h-7.9v-6.7h23.7V89.4z M72.8,129h-6.9v-3.8c-1.2,1.4-2.6,2.5-3.9,3.2c-1.4,0.8-2.7,1.1-3.9,1.1c-1.6,0-2.8-0.5-3.6-1.6
	c-0.8-1-1.1-2.5-1.1-4.5V94.7h6.8v26.3c0,0.7,0.2,1.4,0.5,1.7c0.2,0.4,0.8,0.5,1.4,0.5c0.5,0,1.1-0.2,1.9-0.8
	c0.8-0.5,1.5-1.1,2.1-1.8v-26h6.9V129z M97.6,121.9c0,2.4-0.5,4.3-1.6,5.6c-1.1,1.3-2.6,2-4.7,2c-1.4,0-2.5-0.2-3.6-0.7
	c-1.1-0.5-2-1.3-2.9-2.4v2.6h-6.9V82.6h6.9v14.9c0.9-1,1.9-1.8,2.9-2.3c1.1-0.5,2.1-0.8,3.2-0.8c2.1,0,3.8,0.7,4.9,2.2
	c1.1,1.4,1.7,3.5,1.7,6.4V121.9z M121.3,112.7h-13.1v6.4c0,1.8,0.2,3,0.6,3.7c0.4,0.7,1.3,1.1,2.3,1.1c1.1,0,1.9-0.3,2.3-0.9
	c0.5-0.5,0.7-1.9,0.7-3.9v-1.6h7.1v1.7c0,3.6-0.9,6.2-2.7,7.9c-1.7,1.8-4.2,2.7-7.6,2.7c-3.1,0-5.5-0.9-7.3-2.8
	c-1.7-1.9-2.6-4.5-2.6-7.8V104c0-2.9,1-5.4,3-7.3c1.9-1.8,4.4-2.8,7.5-2.8c3.1,0,5.5,0.9,7.2,2.6c1.7,1.7,2.6,4.2,2.6,7.4V112.7z
	 M87.7,99.8c-0.5,0-1,0.1-1.4,0.3c-0.5,0.2-1,0.6-1.4,1.1v21.3c0.5,0.5,1.1,1,1.7,1.2c0.5,0.2,1.1,0.4,1.6,0.4
	c0.9,0,1.5-0.2,1.9-0.8c0.4-0.4,0.6-1.2,0.6-2.3v-17.7c0-1.1-0.2-2-0.8-2.6C89.4,100.1,88.6,99.8,87.7,99.8z M89.8,100.7
	c-0.5-0.6-1.2-0.9-2.1-0.9c-0.5,0-1,0.1-1.4,0.3c-0.5,0.2-1,0.6-1.4,1.1v21.3c0.5,0.5,1.1,1,1.7,1.2c0.5,0.2,1.1,0.4,1.6,0.4
	c0.9,0,1.5-0.2,1.9-0.8c0.4-0.4,0.6-1.2,0.6-2.3v-17.7C90.6,102.1,90.3,101.3,89.8,100.7z M89.8,100.7c-0.5-0.6-1.2-0.9-2.1-0.9
	c-0.5,0-1,0.1-1.4,0.3c-0.5,0.2-1,0.6-1.4,1.1v21.3c0.5,0.5,1.1,1,1.7,1.2c0.5,0.2,1.1,0.4,1.6,0.4c0.9,0,1.5-0.2,1.9-0.8
	c0.4-0.4,0.6-1.2,0.6-2.3v-17.7C90.6,102.1,90.3,101.3,89.8,100.7z"/>
</svg>
