<?xml version="1.0" encoding="utf-8"?>
<!-- Generator: Adobe Illustrator 19.0.0, SVG Export Plug-In . SVG Version: 6.00 Build 0)  -->
<svg version="1.1" id="圖層_1" xmlns="http://www.w3.org/2000/svg" xmlns:xlink="http://www.w3.org/1999/xlink" x="0px" y="0px"
	 viewBox="-23 24 20 20" style="enable-background:new -23 24 20 20;" xml:space="preserve">
<style type="text/css">
	.st0{fill:#404040;}
</style>
<path id="XMLID_568_" class="st0" d="M-7.7,25.4h-10.6c-1.8,0-3.3,1.5-3.3,3.3v3.5v7c0,1.8,1.5,3.3,3.3,3.3h10.6
	c1.8,0,3.3-1.5,3.3-3.3v-7v-3.5C-4.4,26.9-5.9,25.4-7.7,25.4z M-6.8,27.4l0.4,0v0.4v2.5l-2.9,0l0-2.9L-6.8,27.4z M-15.5,32.2
	C-14.9,31.5-14,31-13,31s1.9,0.5,2.5,1.3c0.4,0.5,0.6,1.1,0.6,1.8c0,1.7-1.4,3-3,3s-3-1.4-3-3C-16,33.3-15.8,32.7-15.5,32.2z
	 M-6.1,39.3c0,0.9-0.7,1.6-1.6,1.6h-10.6c-0.9,0-1.6-0.7-1.6-1.6v-7h2.6c-0.2,0.5-0.3,1.1-0.3,1.8c0,2.6,2.1,4.7,4.7,4.7
	c2.6,0,4.7-2.1,4.7-4.7c0-0.6-0.1-1.2-0.3-1.8h2.6V39.3z"/>
</svg>
