<?xml version="1.0" encoding="utf-8"?>
<!-- Generator: Adobe Illustrator 19.0.0, SVG Export Plug-In . SVG Version: 6.00 Build 0)  -->
<svg version="1.1" id="圖層_1" xmlns="http://www.w3.org/2000/svg" xmlns:xlink="http://www.w3.org/1999/xlink" x="0px" y="0px"
	 viewBox="0 0 67 67" style="enable-background:new 0 0 67 67;" xml:space="preserve">
<style type="text/css">
	.st0{fill:#404040;}
</style>
<g id="XMLID_536_">
	<polygon id="XMLID_535_" class="st0" points="5.9,28.8 0.5,28.8 0.5,23.9 17.2,23.9 17.2,28.8 11.8,28.8 11.8,43.1 5.9,43.1 	"/>
	<polygon id="XMLID_534_" class="st0" points="18.1,23.9 34.3,23.9 34.3,28.8 24,28.8 24,31.2 34.3,31.2 34.3,35.8 24,35.8 24,38.2 
		34.3,38.2 34.3,43.1 18.1,43.1 	"/>
	<path id="XMLID_531_" class="st0" d="M35.3,23.9H45c6.4,0,8.7,4.7,8.7,9.6c0,5.9-3.1,9.6-9.8,9.6h-8.6V23.9z M41.2,38.2h2.3
		c3.7,0,4.2-3,4.2-4.8c0-1.2-0.4-4.6-4.7-4.6h-1.9V38.2z"/>
	<polygon id="XMLID_523_" class="st0" points="62.2,35.7 60.4,32.7 58.6,35.7 54.3,35.7 58.4,29.7 54.4,23.9 58.8,23.9 60.4,26.7 
		62,23.9 66.3,23.9 62.4,29.7 66.5,35.7 	"/>
</g>
</svg>
