<?xml version="1.0" encoding="utf-8"?>
<!-- Generator: Adobe Illustrator 19.0.0, SVG Export Plug-In . SVG Version: 6.00 Build 0)  -->
<svg version="1.1" id="圖層_1" xmlns="http://www.w3.org/2000/svg" xmlns:xlink="http://www.w3.org/1999/xlink" x="0px" y="0px"
	 viewBox="0 0 67 67" style="enable-background:new 0 0 67 67;" xml:space="preserve">
<style type="text/css">
	.st0{fill:#404040;}
</style>
<g id="XMLID_526_">
	<path id="XMLID_530_" class="st0" d="M23.6,31v-1.7c0-1,0.8-1.8,1.8-1.8h16.2c1,0,1.8,0.8,1.8,1.8V31l2.3-2.3
		c0.1-0.1,0.1-0.2,0.1-0.4c0-0.1-0.1-0.3-0.2-0.3l-11-8.6C34,19,33,19,32.4,19.5l-11,8.6c-0.1,0.1-0.2,0.2-0.2,0.3
		c0,0.1,0,0.3,0.1,0.4L23.6,31z"/>
	<path id="XMLID_529_" class="st0" d="M47.9,30.2c-0.2-0.1-0.4,0-0.5,0.1L35.2,42.4c-0.5,0.5-1.1,0.7-1.7,0.7
		c-0.7,0-1.3-0.3-1.7-0.7L19.7,30.3c-0.1-0.1-0.3-0.2-0.5-0.1c-0.2,0.1-0.3,0.2-0.3,0.4V46c0,1.1,0.9,2,2,2h25.4c1.1,0,2-0.9,2-2
		V30.6C48.2,30.4,48,30.2,47.9,30.2z"/>
	<path id="XMLID_528_" class="st0" d="M38.9,30.3H28.1c-0.5,0-1,0.4-1,1c0,0.5,0.4,1,1,1h10.8c0.5,0,1-0.4,1-1
		C39.9,30.7,39.5,30.3,38.9,30.3z"/>
	<path id="XMLID_527_" class="st0" d="M38.9,34.2H28.1c-0.5,0-1,0.4-1,1c0,0.5,0.4,1,1,1h10.8c0.5,0,1-0.4,1-1
		C39.9,34.6,39.5,34.2,38.9,34.2z"/>
</g>
</svg>
