<?xml version="1.0" encoding="utf-8"?>
<!-- Generator: Adobe Illustrator 19.0.0, SVG Export Plug-In . SVG Version: 6.00 Build 0)  -->
<svg version="1.1" id="圖層_1" xmlns="http://www.w3.org/2000/svg" xmlns:xlink="http://www.w3.org/1999/xlink" x="0px" y="0px"
	 viewBox="0 0 67 67" style="enable-background:new 0 0 67 67;" xml:space="preserve">
<style type="text/css">
	.st0{fill:#404040;}
</style>
<g id="XMLID_524_">
	<path id="XMLID_522_" class="st0" d="M30.7,23.7h-8.6c-0.7,0-1.2,0.5-1.2,1.2c0,0.7,0.5,1.2,1.2,1.2h8.6c0.7,0,1.2-0.5,1.2-1.2
		C31.9,24.2,31.4,23.7,30.7,23.7z"/>
	<path id="XMLID_521_" class="st0" d="M30.7,32.2h-5.8c-0.7,0-1.2,0.5-1.2,1.2c0,0.7,0.5,1.2,1.2,1.2h5.8c0.7,0,1.2-0.5,1.2-1.2
		C31.9,32.8,31.4,32.2,30.7,32.2z"/>
	<path id="XMLID_520_" class="st0" d="M30.7,28H19.9c-0.7,0-1.2,0.5-1.2,1.2c0,0.7,0.5,1.2,1.2,1.2h10.8c0.7,0,1.2-0.5,1.2-1.2
		C31.9,28.5,31.4,28,30.7,28z"/>
	<path id="XMLID_519_" class="st0" d="M30.7,36.5H19.9c-0.7,0-1.2,0.5-1.2,1.2c0,0.7,0.5,1.2,1.2,1.2h10.8c0.7,0,1.2-0.5,1.2-1.2
		C31.9,37,31.4,36.5,30.7,36.5z"/>
	<path id="XMLID_518_" class="st0" d="M30.7,40.8H19.9c-0.7,0-1.2,0.5-1.2,1.2c0,0.7,0.5,1.2,1.2,1.2h10.8c0.7,0,1.2-0.5,1.2-1.2
		C31.9,41.3,31.4,40.8,30.7,40.8z"/>
	<path id="XMLID_517_" class="st0" d="M46.5,23.5H35.9c-1,0-1.8,0.8-1.8,1.8v16.3c0,1,0.8,1.8,1.8,1.8h10.6c1,0,1.8-0.8,1.8-1.8
		V25.3C48.3,24.3,47.4,23.5,46.5,23.5z"/>
</g>
</svg>
