<?xml version="1.0" encoding="utf-8"?>
<!-- Generator: Adobe Illustrator 19.0.0, SVG Export Plug-In . SVG Version: 6.00 Build 0)  -->
<svg version="1.1" id="圖層_1" xmlns="http://www.w3.org/2000/svg" xmlns:xlink="http://www.w3.org/1999/xlink" x="0px" y="0px"
	 viewBox="0 0 67 67" style="enable-background:new 0 0 67 67;" xml:space="preserve">
<style type="text/css">
	.st0{fill:#404040;}
</style>
<g id="XMLID_455_">
	<path id="XMLID_456_" class="st0" d="M33.5,20.7c-8.1,0-14.8,5.2-14.8,11.6c0,3,1.5,5.8,3.9,7.9c-0.1,2-0.5,4.7-2,6.1
		c2.8,0,5.7-1.9,7.4-3.2c1.7,0.5,3.5,0.8,5.4,0.8c8.1,0,14.8-5.2,14.8-11.6S41.6,20.7,33.5,20.7z M27.2,35.5c-1.2,0-2.1-0.9-2.1-2.1
		c0-1.2,0.9-2.1,2.1-2.1c1.2,0,2.1,0.9,2.1,2.1C29.3,34.5,28.3,35.5,27.2,35.5z M33.5,35.5c-1.2,0-2.1-0.9-2.1-2.1
		c0-1.2,0.9-2.1,2.1-2.1s2.1,0.9,2.1,2.1C35.6,34.5,34.7,35.5,33.5,35.5z M39.8,35.5c-1.2,0-2.1-0.9-2.1-2.1c0-1.2,0.9-2.1,2.1-2.1
		c1.2,0,2.1,0.9,2.1,2.1C41.9,34.5,41,35.5,39.8,35.5z"/>
</g>
</svg>
