<?xml version="1.0" encoding="utf-8"?>
<!-- Generator: Adobe Illustrator 19.0.0, SVG Export Plug-In . SVG Version: 6.00 Build 0)  -->
<svg version="1.1" id="圖層_1" xmlns="http://www.w3.org/2000/svg" xmlns:xlink="http://www.w3.org/1999/xlink" x="0px" y="0px"
	 viewBox="0 0 25 25" style="enable-background:new 0 0 25 25;" xml:space="preserve">
<style type="text/css">
	.st0{fill:#537BBC;}
	.st1{fill:#FFFFFF;}
</style>
<g id="XMLID_628_">
	<path id="XMLID_627_" class="st0" d="M12.5,25C19.4,25,25,19.4,25,12.5C25,5.6,19.4,0,12.5,0C5.6,0,0,5.6,0,12.5
		C0,19.4,5.6,25,12.5,25"/>
	<path id="XMLID_626_" class="st1" d="M10.2,10.4h1.3V9.1c0-0.6,0-1.4,0.4-1.9c0.4-0.6,1-0.9,2-0.9c1.6,0,2.3,0.2,2.3,0.2l-0.3,1.9
		c0,0-0.5-0.2-1-0.2c-0.5,0-1,0.2-1,0.7v1.5H16l-0.1,1.9h-1.9v6.5h-2.4v-6.5h-1.3V10.4z"/>
</g>
</svg>
