<?xml version="1.0" encoding="utf-8"?>
<!-- Generator: Adobe Illustrator 19.0.0, SVG Export Plug-In . SVG Version: 6.00 Build 0)  -->
<svg version="1.1" id="圖層_1" xmlns="http://www.w3.org/2000/svg" xmlns:xlink="http://www.w3.org/1999/xlink" x="0px" y="0px"
	 viewBox="0 0 25 25" style="enable-background:new 0 0 25 25;" xml:space="preserve">
<style type="text/css">
	.st0{fill:#E4E0DC;}
	.st1{fill:#4B4B4B;}
</style>
<g id="XMLID_630_">
	<path id="XMLID_597_" class="st0" d="M12.5,25C19.4,25,25,19.4,25,12.5C25,5.6,19.4,0,12.5,0C5.6,0,0,5.6,0,12.5
		C0,19.4,5.6,25,12.5,25"/>
	<path id="XMLID_592_" class="st1" d="M16.3,6.3H8.7c-1.3,0-2.4,1.1-2.4,2.4v2.6v5.1c0,1.3,1.1,2.4,2.4,2.4h7.7
		c1.3,0,2.4-1.1,2.4-2.4v-5.1V8.7C18.8,7.3,17.7,6.3,16.3,6.3z M17,7.7l0.3,0V8v1.8l-2.1,0l0-2.1L17,7.7z M10.7,11.2
		c0.4-0.6,1-0.9,1.8-0.9c0.7,0,1.4,0.4,1.8,0.9c0.3,0.4,0.4,0.8,0.4,1.3c0,1.2-1,2.2-2.2,2.2s-2.2-1-2.2-2.2
		C10.3,12,10.5,11.6,10.7,11.2z M17.5,16.3c0,0.7-0.5,1.2-1.2,1.2H8.7c-0.7,0-1.2-0.5-1.2-1.2v-5.1h1.9c-0.2,0.4-0.3,0.8-0.3,1.3
		c0,1.9,1.5,3.4,3.4,3.4c1.9,0,3.4-1.5,3.4-3.4c0-0.5-0.1-0.9-0.3-1.3h1.9V16.3z"/>
</g>
</svg>
