<?xml version="1.0" encoding="utf-8"?>
<!-- Generator: Adobe Illustrator 19.0.0, SVG Export Plug-In . SVG Version: 6.00 Build 0)  -->
<svg version="1.1" id="圖層_1" xmlns="http://www.w3.org/2000/svg" xmlns:xlink="http://www.w3.org/1999/xlink" x="0px" y="0px"
	 viewBox="0 0 13 13" style="enable-background:new 0 0 13 13;" xml:space="preserve">
<style type="text/css">
	.st0{fill:#404040;}
</style>
<g id="XMLID_461_">
	<path id="XMLID_465_" class="st0" d="M6.5,2.6c-2.6,0-4.9,1.6-6,3.8c0,0.1,0,0.1,0,0.2c1,2.3,3.3,3.8,6,3.8s4.9-1.6,6-3.8
		c0-0.1,0-0.1,0-0.2C11.4,4.1,9.1,2.6,6.5,2.6z M6.5,9.2C5,9.2,3.8,8,3.8,6.5C3.8,5,5,3.8,6.5,3.8C8,3.8,9.2,5,9.2,6.5
		S8,9.2,6.5,9.2z"/>
	<circle id="XMLID_462_" class="st0" cx="6.5" cy="6.5" r="1.7"/>
</g>
</svg>
