<?xml version="1.0" encoding="utf-8"?>
<!-- Generator: Adobe Illustrator 19.0.0, SVG Export Plug-In . SVG Version: 6.00 Build 0)  -->
<svg version="1.1" id="圖層_1" xmlns="http://www.w3.org/2000/svg" xmlns:xlink="http://www.w3.org/1999/xlink" x="0px" y="0px"
	 viewBox="0 0 25 25" style="enable-background:new 0 0 25 25;" xml:space="preserve">
<style type="text/css">
	.st0{fill:#404040;}
</style>
<g id="icon_25_">
	<g id="XMLID_433_">
		<path id="XMLID_434_" class="st0" d="M21.1,17.4c-1.2,0-2.5,0.7-3,1.8L7,13.5c0.3-0.6,0.4-1.1,0.4-1.7c0-0.3,0-0.6-0.1-0.8
			l10.8-5.4c0.7,1.1,1.8,1.8,3,1.8c2.1,0,3.7-1.7,3.7-3.7S23.2,0,21.1,0s-3.7,1.7-3.7,3.7c0,0.4,0.1,0.8,0.1,1.1L6.9,10.2
			C6.4,9.1,5.1,8.3,3.7,8.3C1.7,8.3,0,9.9,0,12s1.7,3.7,3.7,3.7c1.1,0,2.1-0.6,2.8-1.2l11.2,5.7c-0.1,0.4-0.1,0.7-0.1,1.1
			c0,2.1,1.7,3.7,3.7,3.7s3.7-1.7,3.7-3.7C24.9,18.9,23.2,17.4,21.1,17.4z"/>
	</g>
</g>
</svg>
