<?xml version="1.0" encoding="utf-8"?>
<!-- Generator: Adobe Illustrator 19.0.0, SVG Export Plug-In . SVG Version: 6.00 Build 0)  -->
<svg version="1.1" id="圖層_1" xmlns="http://www.w3.org/2000/svg" xmlns:xlink="http://www.w3.org/1999/xlink" x="0px" y="0px"
	 viewBox="0 0 25 25" style="enable-background:new 0 0 25 25;" xml:space="preserve">
<style type="text/css">
	.st0{fill:#404040;}
</style>
<g id="XMLID_644_">
	<path id="XMLID_639_" class="st0" d="M12.5,12.7c-0.6-0.7-0.2-1.7,0.3-2.2c0.5-0.5,1.3-1.1,1.7-1.5c0.4-0.4,1.3-1.2,1.3-3.7
		c0,0,0.2-2.3-2.3-4.1h2L17.6,0h-7c0,0-4.2-0.1-6.2,2.4C2.4,5,2.5,8.2,4.6,10c2.2,1.8,4.8,1.3,4.8,1.3S9,12.1,9.1,12.8
		c0.1,0.7,0.8,1.7,1,1.9c0,0-4.8,0-7.1,2.1c-2.3,2.1-2.6,6.2,2,7.6c4.6,1.4,10.6-0.1,11.9-4.6c0,0,0.5-1.8-0.4-3.4
		C15.6,15,13.1,13.4,12.5,12.7z M7.4,9c-1.5-2-2.6-5.9,0-7.6c0,0,1.9-1.2,3.6,0.5c1.7,1.7,2.2,4.6,1.9,6c-0.3,1.5-1.1,1.8-1.5,2
		C11,10.3,8.9,11.1,7.4,9z M14.8,20c-0.1,0.8-0.2,2.5-3,3.3c-2.8,0.8-7.7-0.5-7.5-3.8c0,0,0-1.4,0.9-2.2c0.9-0.8,2.2-1.6,6.1-1.6
		c0,0,1.3,1,2.1,1.6C14.2,18,14.8,19.3,14.8,20z"/>
	<polygon id="XMLID_638_" class="st0" points="21.2,10.6 21.2,8.1 19.7,8.1 19.7,10.6 17.2,10.6 17.2,12.1 19.7,12.1 19.7,14.6 
		21.2,14.6 21.2,12.1 23.7,12.1 23.7,10.6 	"/>
</g>
</svg>
