<?xml version="1.0" encoding="utf-8"?>
<!-- Generator: Adobe Illustrator 19.0.0, SVG Export Plug-In . SVG Version: 6.00 Build 0)  -->
<svg version="1.1" id="圖層_1" xmlns="http://www.w3.org/2000/svg" xmlns:xlink="http://www.w3.org/1999/xlink" x="0px" y="0px"
	 viewBox="0 0 22 22" style="enable-background:new 0 0 22 22;" xml:space="preserve">
<style type="text/css">
	.st0{fill:#404040;}
</style>
<g id="XMLID_649_">
	<g id="_x31_5_38_">
		<g id="XMLID_655_">
			<path id="XMLID_647_" class="st0" d="M5.4,5.2h0.3c0.5,0,0.9-0.4,0.9-0.9V2V1.1c0-0.5-0.4-0.9-0.9-0.9H5.4
				c-0.5,0-0.9,0.4-0.9,0.9V2v2.4C4.5,4.8,4.9,5.2,5.4,5.2z"/>
			<path id="XMLID_646_" class="st0" d="M16.5,5.2h0.3c0.5,0,0.9-0.4,0.9-0.9V1.7V1.1c0-0.5-0.4-0.9-0.9-0.9h-0.3
				c-0.5,0-0.9,0.4-0.9,0.9v0.7v2.6C15.6,4.8,16,5.2,16.5,5.2z"/>
			<path id="XMLID_672_" class="st0" d="M20.6,2h-2.2v2.6c0,0.9-0.7,1.3-1.6,1.3h-0.3c-0.9,0-1.6-0.7-1.6-1.6V2H7.3v2.4
				c0,0.9-0.7,1.6-1.6,1.6H5.4c-0.9,0-1.6-0.7-1.6-1.6V2H1.4C0.6,2,0,2.6,0,3.4v17c0,0.8,0.6,1.4,1.4,1.4h19.2
				c0.8,0,1.4-0.6,1.4-1.4v-17C22,2.6,21.4,2,20.6,2z M20.6,20.4H1.4l0-12.8h19.2L20.6,20.4C20.6,20.4,20.6,20.4,20.6,20.4z"/>
			<path id="XMLID_319_" class="st0" d="M11.7,11.9h2.5c0.1,0,0.2-0.1,0.2-0.2V9.5c0-0.1-0.1-0.2-0.2-0.2h-2.5
				c-0.1,0-0.2,0.1-0.2,0.2v2.2C11.5,11.8,11.6,11.9,11.7,11.9z"/>
			<path id="XMLID_318_" class="st0" d="M15.9,11.9h2.5c0.1,0,0.2-0.1,0.2-0.2V9.5c0-0.1-0.1-0.2-0.2-0.2h-2.5
				c-0.1,0-0.2,0.1-0.2,0.2v2.2C15.7,11.8,15.8,11.9,15.9,11.9z"/>
			<path id="XMLID_274_" class="st0" d="M3.5,15.4H6c0.1,0,0.2-0.1,0.2-0.2v-2.2c0-0.1-0.1-0.2-0.2-0.2H3.5c-0.1,0-0.2,0.1-0.2,0.2
				v2.2C3.3,15.4,3.4,15.4,3.5,15.4z"/>
			<path id="XMLID_272_" class="st0" d="M7.6,15.4h2.5c0.1,0,0.2-0.1,0.2-0.2v-2.2c0-0.1-0.1-0.2-0.2-0.2H7.6
				c-0.1,0-0.2,0.1-0.2,0.2v2.2C7.4,15.4,7.5,15.4,7.6,15.4z"/>
			<path id="XMLID_259_" class="st0" d="M11.7,15.4h2.5c0.1,0,0.2-0.1,0.2-0.2v-2.2c0-0.1-0.1-0.2-0.2-0.2h-2.5
				c-0.1,0-0.2,0.1-0.2,0.2v2.2C11.5,15.4,11.6,15.4,11.7,15.4z"/>
			<path id="XMLID_258_" class="st0" d="M15.9,15.4h2.5c0.1,0,0.2-0.1,0.2-0.2v-2.2c0-0.1-0.1-0.2-0.2-0.2h-2.5
				c-0.1,0-0.2,0.1-0.2,0.2v2.2C15.7,15.4,15.8,15.4,15.9,15.4z"/>
			<path id="XMLID_257_" class="st0" d="M6,16.5H3.5c-0.1,0-0.2,0.1-0.2,0.2v2.2c0,0.1,0.1,0.2,0.2,0.2H6c0.1,0,0.2-0.1,0.2-0.2
				v-2.2C6.2,16.6,6.1,16.5,6,16.5z"/>
			<path id="XMLID_255_" class="st0" d="M10.1,16.5H7.6c-0.1,0-0.2,0.1-0.2,0.2v2.2c0,0.1,0.1,0.2,0.2,0.2h2.5
				c0.1,0,0.2-0.1,0.2-0.2v-2.2C10.3,16.6,10.2,16.5,10.1,16.5z"/>
			<path id="XMLID_48_" class="st0" d="M14.3,16.5h-2.5c-0.1,0-0.2,0.1-0.2,0.2v2.2c0,0.1,0.1,0.2,0.2,0.2h2.5
				c0.1,0,0.2-0.1,0.2-0.2v-2.2C14.4,16.6,14.4,16.5,14.3,16.5z"/>
			<path id="XMLID_47_" class="st0" d="M18.4,16.5h-2.5c-0.1,0-0.2,0.1-0.2,0.2v2.2c0,0.1,0.1,0.2,0.2,0.2h2.5
				c0.1,0,0.2-0.1,0.2-0.2v-2.2C18.6,16.6,18.5,16.5,18.4,16.5z"/>
		</g>
	</g>
</g>
</svg>
