<?xml version="1.0" encoding="utf-8"?>
<!-- Generator: Adobe Illustrator 19.0.0, SVG Export Plug-In . SVG Version: 6.00 Build 0)  -->
<svg version="1.1" id="圖層_1" xmlns="http://www.w3.org/2000/svg" xmlns:xlink="http://www.w3.org/1999/xlink" x="0px" y="0px"
	 viewBox="0 0 30 30" style="enable-background:new 0 0 30 30;" xml:space="preserve">
<style type="text/css">
	.st0{fill:#404040;}
</style>
<g id="XMLID_705_">
	<g id="XMLID_709_">
		<g id="XMLID_713_">
			<polygon id="XMLID_826_" class="st0" points="29,28.3 1,28.3 1,8.4 8.1,8.4 8.1,9.5 2.2,9.5 2.2,27.2 27.8,27.2 27.8,9.5 
				21.8,9.5 21.8,8.4 29,8.4 			"/>
		</g>
		<g id="XMLID_712_">
			<polygon id="XMLID_825_" class="st0" points="15,23.2 1.2,9.4 2,8.6 15,21.6 28,8.6 28.8,9.4 			"/>
		</g>
		<g id="XMLID_711_">
			
				<rect id="XMLID_824_" x="5.7" y="16.3" transform="matrix(-0.7071 -0.7071 0.7071 -0.7071 -5.5407 43.7236)" class="st0" width="1.2" height="13.3"/>
		</g>
		<g id="XMLID_710_">
			
				<rect id="XMLID_783_" x="17" y="22.4" transform="matrix(-0.7071 -0.7071 0.7071 -0.7071 24.1167 56.02)" class="st0" width="13.3" height="1.2"/>
		</g>
	</g>
	<g id="XMLID_706_">
		<g id="XMLID_708_">
			<path id="XMLID_702_" class="st0" d="M13.2,12.7c-0.9,0-1.5-0.4-1.9-1c-0.6-0.8-0.7-1.7-0.5-2.7c0.4-1.5,1.9-2.9,3.1-3.4
				c1.9-0.9,3.5-0.5,3.6-0.4L18,5.4l-0.7,4.1c-0.1,0.2-0.2,0.4-0.3,0.7C16.2,11.6,14.7,12.7,13.2,12.7
				C13.4,12.7,13.3,12.7,13.2,12.7z M16.4,6.3c-0.5,0-1.2,0.1-2,0.5c-1,0.5-2.1,1.5-2.5,2.7c-0.2,0.6-0.1,1.2,0.3,1.7
				c0.3,0.4,0.8,0.5,1.2,0.5c0.9-0.1,2.1-0.7,2.8-2c0.1-0.1,0.1-0.3,0.2-0.4l0.5-2.9C16.6,6.3,16.5,6.3,16.4,6.3z"/>
		</g>
		<g id="XMLID_707_">
			<path id="XMLID_700_" class="st0" d="M14.7,16.3c-1.1,0-2.2-0.3-3.3-0.8c-2.2-1.2-3.5-3.2-3.5-5.6c0-6.5,4.9-8.3,7.5-8.3
				c2.1,0,4,0.9,5.3,2.3s1.6,3.4,1.2,5.6c-0.4,2.1-1.3,2.9-2,3.1c-0.9,0.3-1.8,0.1-2.6-0.6c-0.9-0.8-1.2-1.9-1.1-2.9l1.2,0.3
				c-0.2,0.8,0.2,1.4,0.7,1.8c0.5,0.4,1,0.6,1.4,0.4c0.6-0.2,1.1-1,1.2-2.2c0.3-1.9,0-3.5-1-4.6c-1-1.2-2.6-1.8-4.3-1.8
				c-2.2,0-6.3,1.5-6.3,7.2c0,2.7,1.7,4,2.8,4.5c1.8,0.9,4.1,0.9,5.3-0.1l0.7,1C17.1,16,16,16.3,14.7,16.3z"/>
		</g>
	</g>
</g>
</svg>
