<?xml version="1.0" encoding="utf-8"?>
<!-- Generator: Adobe Illustrator 19.0.0, SVG Export Plug-In . SVG Version: 6.00 Build 0)  -->
<svg version="1.1" id="圖層_1" xmlns="http://www.w3.org/2000/svg" xmlns:xlink="http://www.w3.org/1999/xlink" x="0px" y="0px"
	 viewBox="0 0 30 30" style="enable-background:new 0 0 30 30;" xml:space="preserve">
<style type="text/css">
	.st0{fill:#404040;}
</style>
<g id="XMLID_688_">
	<g id="XMLID_692_">
		<path id="XMLID_777_" class="st0" d="M15,16.6c-3.9,0-7-3.2-7-7c0-3.9,3.2-7,7-7c3.9,0,7,3.2,7,7S18.9,16.6,15,16.6z M15,3.7
			c-3.2,0-5.8,2.6-5.8,5.8s2.6,5.8,5.8,5.8s5.8-2.6,5.8-5.8S18.2,3.7,15,3.7z"/>
	</g>
	<g id="XMLID_689_">
		<g id="XMLID_691_">
			<path id="XMLID_774_" class="st0" d="M15.7,27.4H2.5v-4c0-3.4,3.2-6.3,7.3-6.5h0.4L15.7,27.4z M3.7,26.2h9.9l-4.1-8
				c-3.3,0.3-5.8,2.6-5.8,5.2C3.7,23.4,3.7,26.2,3.7,26.2z"/>
		</g>
		<g id="XMLID_690_">
			<path id="XMLID_768_" class="st0" d="M27.5,27.4H14.3l5.5-10.5h0.4c4.1,0.2,7.3,3.1,7.3,6.5V27.4z M16.3,26.2h9.9v-2.8
				c0-2.7-2.5-4.9-5.8-5.2L16.3,26.2z"/>
		</g>
	</g>
</g>
</svg>
