<?xml version="1.0" encoding="utf-8"?>
<!-- Generator: Adobe Illustrator 19.0.0, SVG Export Plug-In . SVG Version: 6.00 Build 0)  -->
<svg version="1.1" id="圖層_1" xmlns="http://www.w3.org/2000/svg" xmlns:xlink="http://www.w3.org/1999/xlink" x="0px" y="0px"
	 viewBox="0 0 80 87" style="enable-background:new 0 0 80 87;" xml:space="preserve">
<style type="text/css">
	.st0{fill:#696969;}
	.st1{fill:#FFFFFF;}
</style>
<g id="XMLID_1002_">
	<rect id="XMLID_1029_" class="st0" width="80" height="87"/>
	<path id="XMLID_1017_" class="st1" d="M48.3,30.1H31.7c-2.8,0-5.2,2.4-5.2,5.2v5.5v11c0,2.8,2.4,5.2,5.2,5.2h16.6
		c2.8,0,5.2-2.4,5.2-5.2v-11v-5.5C53.5,32.4,51.1,30.1,48.3,30.1z M49.7,33.2h0.6v0.6v3.9h-4.6v-4.6H49.7z M36.1,40.8
		c0.9-1.1,2.4-1.9,3.9-1.9s3,0.8,3.9,2c0.6,0.8,0.9,1.7,0.9,2.8c0,2.7-2.2,4.7-4.7,4.7c-2.5,0-4.7-2.2-4.7-4.7
		C35.3,42.5,35.6,41.5,36.1,40.8z M51.1,51.9c0,1.4-1.4,2.5-2.8,2.5H31.7c-1.4,0-2.5-1.1-2.5-2.5v-11h4.1c-0.3,0.8-0.5,1.7-0.5,2.8
		c0,4.1,3.3,7.4,7.4,7.4s7.4-3.3,7.4-7.4c0-0.9-0.2-1.9-0.5-2.8h4.1V51.9L51.1,51.9z"/>
</g>
</svg>
