<?xml version="1.0" encoding="utf-8"?>
<!-- Generator: Adobe Illustrator 19.0.0, SVG Export Plug-In . SVG Version: 6.00 Build 0)  -->
<svg version="1.1" id="圖層_1" xmlns="http://www.w3.org/2000/svg" xmlns:xlink="http://www.w3.org/1999/xlink" x="0px" y="0px"
	 viewBox="0 0 18 14" style="enable-background:new 0 0 18 14;" xml:space="preserve">
<style type="text/css">
	.st0{fill:#404040;}
</style>
<g id="XMLID_917_">
	<g id="XMLID_924_">
		<g id="XMLID_925_">
			<path id="XMLID_926_" class="st0" d="M17.5,1.3H0.5C0.2,1.3,0,1.1,0,0.8s0.2-0.5,0.5-0.5h16.9c0.3,0,0.5,0.2,0.5,0.5
				S17.8,1.3,17.5,1.3z"/>
		</g>
	</g>
	<g id="XMLID_921_">
		<g id="XMLID_922_">
			<path id="XMLID_923_" class="st0" d="M17.5,7.5H0.5C0.2,7.5,0,7.3,0,7c0-0.3,0.2-0.5,0.5-0.5h16.9C17.8,6.5,18,6.7,18,7
				C18,7.3,17.8,7.5,17.5,7.5z"/>
		</g>
	</g>
	<g id="XMLID_918_">
		<g id="XMLID_919_">
			<path id="XMLID_920_" class="st0" d="M17.5,13.7H0.5c-0.3,0-0.5-0.2-0.5-0.5c0-0.3,0.2-0.5,0.5-0.5h16.9c0.3,0,0.5,0.2,0.5,0.5
				C18,13.5,17.8,13.7,17.5,13.7z"/>
		</g>
	</g>
</g>
</svg>
