<?xml version="1.0" encoding="utf-8"?>
<!-- Generator: Adobe Illustrator 19.0.0, SVG Export Plug-In . SVG Version: 6.00 Build 0)  -->
<svg version="1.1" id="圖層_1" xmlns="http://www.w3.org/2000/svg" xmlns:xlink="http://www.w3.org/1999/xlink" x="0px" y="0px"
	 viewBox="0 0 210 72" style="enable-background:new 0 0 210 72;" xml:space="preserve">
<style type="text/css">
	.st0{fill:#EE3F2B;}
	.st1{fill:#FFFFFF;}
	.st2{fill:#EE3E2A;}
</style>
<g id="XMLID_1_">
	<polygon id="XMLID_69_" class="st0" points="2.3,67.4 0.7,65 2.2,65 3.1,66.3 4,65 5.5,65 3.9,67.3 5.7,70 4.2,70 3.1,68.4 2.1,70 
		0.5,70 	"/>
	<path id="XMLID_68_" class="st1" d="M18.6,36.1c-0.9-4.1-4.2-4.8-6.5-4.8c-4.2,0-7.6,3.1-7.6,9.2c0,5.4,1.9,9.6,7.6,9.6
		c2,0,5.5-1,6.6-6.3h3c-1.3,8.7-8.4,9.1-10.1,9.1c-5.2,0-10.4-3.4-10.4-12.3c0-7.1,4.1-12,10.8-12c5.9,0,9,3.7,9.5,7.6H18.6z"/>
	<path id="XMLID_67_" class="st1" d="M39,52.3h-2.8v-11c0-2.3-0.6-3.8-3.3-3.8c-2.3,0-4.7,1.3-4.7,5.6v9.2h-2.8V29.2h2.8v8.5h0.1
		c0.8-1.1,2.2-2.7,4.9-2.7c2.6,0,5.9,1.1,5.9,5.8V52.3z"/>
	<path id="XMLID_66_" class="st1" d="M54.1,52.3v-2.4L54,49.8c-1.2,2-2.6,3-5.3,3c-2.5,0-5.5-1.2-5.5-5.2V35.5h2.8v11.2
		c0,2.8,1.4,3.7,3.2,3.7c3.6,0,4.6-3.1,4.6-5.6v-9.3h2.8v16.8H54.1z"/>
	<path id="XMLID_65_" class="st1" d="M74.7,52.3h-2.8V41.9c0-2.9-0.8-4.4-3.6-4.4c-1.6,0-4.4,1-4.4,5.6v9.2H61V35.5h2.7v2.4h0.1
		c0.6-0.9,2.2-2.9,5.1-2.9c2.6,0,5.9,1.1,5.9,5.8V52.3z"/>
	<path class="st1" d="M92.8,50.9c0,2.4,0,8.4-7.8,8.4c-2,0-5.9-0.5-6.4-5h2.8c0.5,2.7,3.1,2.7,3.8,2.7c4.9,0,4.8-3.9,4.8-5.9v-0.7
		h-0.1v0.1c-0.7,1.2-2.2,2.2-4.5,2.2c-5.7,0-7.4-5.4-7.4-9.4c0-4.7,2.5-8.4,7-8.4c3.1,0,4.3,1.9,5,2.9h0.1v-2.4h2.7V50.9z
		 M85.5,50.3c1.8,0,4.6-1.2,4.6-5.7c0-2.7-0.4-7.1-4.5-7.1c-4.4,0-4.6,4.1-4.6,6.3C81,47.5,82.4,50.3,85.5,50.3"/>
	<path id="XMLID_62_" class="st1" d="M113.3,36.1c-0.9-4.1-4.2-4.8-6.5-4.8c-4.2,0-7.6,3.1-7.6,9.2c0,5.4,1.9,9.6,7.6,9.6
		c2,0,5.5-1,6.6-6.3h3c-1.3,8.7-8.4,9.1-10.1,9.1c-5.2,0-10.4-3.4-10.4-12.3c0-7.1,4.1-12,10.8-12c5.9,0,9,3.7,9.5,7.6H113.3z"/>
	<path id="XMLID_61_" class="st1" d="M133.6,52.3h-2.8v-11c0-2.3-0.6-3.8-3.3-3.8c-2.3,0-4.7,1.3-4.7,5.6v9.2h-2.8V29.2h2.8v8.5h0.1
		c0.8-1.1,2.2-2.7,4.9-2.7c2.6,0,5.9,1.1,5.9,5.8V52.3z"/>
	<path class="st1" d="M152.1,47c-0.1,0.8-0.9,3.2-3,4.6c-0.8,0.5-1.9,1.2-4.6,1.2c-4.7,0-7.5-3.6-7.5-8.4c0-5.2,2.5-9.4,8.1-9.4
		c4.9,0,7.2,3.9,7.2,9.8H140c0,3.5,1.6,5.5,4.9,5.5c2.7,0,4.2-2.1,4.3-3.3H152.1z M149.4,42.5c-0.2-2.6-1.3-5-4.7-5
		c-2.6,0-4.7,2.4-4.7,5H149.4z"/>
	<path id="XMLID_58_" class="st1" d="M169.4,52.3h-2.8V41.9c0-2.9-0.8-4.4-3.6-4.4c-1.6,0-4.4,1-4.4,5.6v9.2h-2.8V35.5h2.7v2.4h0.1
		c0.6-0.9,2.2-2.9,5.1-2.9c2.6,0,5.9,1.1,5.9,5.8V52.3z"/>
	<path class="st1" d="M187.5,50.9c0,2.4,0,8.4-7.8,8.4c-2,0-5.9-0.5-6.4-5h2.8c0.5,2.7,3.1,2.7,3.8,2.7c4.9,0,4.8-3.9,4.8-5.9v-0.7
		h-0.1v0.1c-0.7,1.2-2.2,2.2-4.5,2.2c-5.7,0-7.4-5.4-7.4-9.4c0-4.7,2.5-8.4,7-8.4c3.1,0,4.3,1.9,5,2.9h0.1v-2.4h2.7V50.9z
		 M180.2,50.3c1.8,0,4.6-1.2,4.6-5.7c0-2.7-0.4-7.1-4.5-7.1c-4.4,0-4.6,4.1-4.6,6.3C175.7,47.5,177.1,50.3,180.2,50.3"/>
	<path id="XMLID_55_" class="st1" d="M210,29.2v15c0,4.7-3,8.7-9.3,8.7c-6.2,0-8.9-4-8.9-8.3V29.2h3.1v14.5c0,5,3.1,6.4,5.8,6.4
		c2.9,0,6.1-1.3,6.1-6.3V29.2H210z"/>
	<path class="st1" d="M12.3,67H7.4v-1h4.9V67z M12.3,69.1H7.4v-1h4.9V69.1z"/>
	<path class="st1" d="M16.1,64.2h-1.4v-1.1h1.4V64.2z M14.7,65h1.4v5h-1.4V65z"/>
	<path id="XMLID_50_" class="st1" d="M16.9,65h1.3v0.7h0c0.4-0.6,1-0.8,1.5-0.8c1.5,0,1.8,0.8,1.8,2.1V70h-1.4v-2.8
		c0-0.8-0.2-1.2-0.9-1.2c-0.7,0-1.1,0.4-1.1,1.4V70h-1.4V65z"/>
	<path class="st1" d="M26.1,69.4L26.1,69.4c-0.3,0.5-0.9,0.8-1.5,0.8c-1.5,0-2.3-1.3-2.3-2.7c0-1.4,0.7-2.6,2.2-2.6
		c0.6,0,1.2,0.3,1.5,0.7h0h0v-2.5h1.4V70h-1.3V69.4z M24.9,65.9c-0.9,0-1.2,0.8-1.2,1.6c0,0.8,0.4,1.6,1.2,1.6
		c0.9,0,1.2-0.8,1.2-1.6C26.1,66.7,25.8,65.9,24.9,65.9"/>
	<path class="st1" d="M29.4,67.8c0,0.9,0.5,1.3,1.2,1.3c0.6,0,1-0.3,1.1-0.7H33c-0.4,1.2-1.2,1.7-2.4,1.7c-1.6,0-2.6-1.1-2.6-2.6
		c0-1.5,1-2.7,2.6-2.7c1.7,0,2.5,1.4,2.4,3H29.4z M31.7,66.9c-0.1-0.7-0.4-1.1-1.1-1.1c-0.9,0-1.1,0.7-1.1,1.1H31.7z"/>
	<path class="st1" d="M33.7,65H35v0.6h0c0.3-0.5,0.9-0.8,1.5-0.8c1.6,0,2.3,1.3,2.3,2.7c0,1.3-0.7,2.6-2.2,2.6
		c-0.6,0-1.2-0.3-1.5-0.8h0v2.4h-1.4V65z M37.4,67.5c0-0.8-0.3-1.6-1.2-1.6c-0.9,0-1.2,0.8-1.2,1.6c0,0.8,0.3,1.6,1.2,1.6
		C37.1,69.1,37.4,68.3,37.4,67.5"/>
	<path class="st1" d="M40.6,67.8c0,0.9,0.5,1.3,1.2,1.3c0.6,0,1-0.3,1.1-0.7h1.2c-0.4,1.2-1.2,1.7-2.4,1.7c-1.6,0-2.6-1.1-2.6-2.6
		c0-1.5,1-2.7,2.6-2.7c1.7,0,2.5,1.4,2.4,3H40.6z M42.8,66.9c-0.1-0.7-0.4-1.1-1.1-1.1c-0.9,0-1.1,0.7-1.1,1.1H42.8z"/>
	<path id="XMLID_41_" class="st1" d="M44.8,65h1.3v0.7h0c0.3-0.6,1-0.8,1.5-0.8c1.5,0,1.8,0.8,1.8,2.1V70h-1.4v-2.8
		c0-0.8-0.2-1.2-0.9-1.2c-0.8,0-1.1,0.4-1.1,1.4V70h-1.4V65z"/>
	<path class="st1" d="M54,69.4L54,69.4c-0.3,0.5-0.9,0.8-1.5,0.8c-1.5,0-2.3-1.3-2.3-2.7c0-1.4,0.8-2.6,2.2-2.6
		c0.6,0,1.2,0.3,1.5,0.7h0h0v-2.5h1.4V70H54V69.4z M52.8,65.9c-0.9,0-1.2,0.8-1.2,1.6c0,0.8,0.4,1.6,1.2,1.6c0.9,0,1.2-0.8,1.2-1.6
		C54,66.7,53.7,65.9,52.8,65.9"/>
	<path class="st1" d="M57.3,67.8c0,0.9,0.5,1.3,1.2,1.3c0.6,0,1-0.3,1.1-0.7h1.2c-0.4,1.2-1.2,1.7-2.4,1.7c-1.6,0-2.6-1.1-2.6-2.6
		c0-1.5,1-2.7,2.6-2.7c1.7,0,2.5,1.4,2.4,3H57.3z M59.5,66.9c-0.1-0.7-0.4-1.1-1.1-1.1c-0.9,0-1.1,0.7-1.1,1.1H59.5z"/>
	<path id="XMLID_36_" class="st1" d="M61.5,65h1.3v0.7h0c0.3-0.6,1-0.8,1.5-0.8c1.5,0,1.8,0.8,1.8,2.1V70h-1.4v-2.8
		c0-0.8-0.2-1.2-0.9-1.2c-0.7,0-1.1,0.4-1.1,1.4V70h-1.4V65z"/>
	<path id="XMLID_35_" class="st1" d="M68.9,65h1v0.9h-1v2.5c0,0.5,0.1,0.6,0.6,0.6c0.1,0,0.3,0,0.4,0V70c-0.2,0-0.5,0-0.8,0
		c-0.8,0-1.6-0.2-1.6-1.2v-3h-0.8V65h0.8v-1.5h1.4V65z"/>
	<rect id="XMLID_34_" x="70.4" y="63.1" class="st1" width="1.4" height="7"/>
	<path id="XMLID_33_" class="st1" d="M75.2,70.6c-0.3,0.8-0.8,1.1-1.7,1.1c-0.3,0-0.6,0-0.8,0v-1.1c0.3,0,0.5,0.1,0.8,0
		c0.5,0,0.6-0.5,0.5-0.9L72.1,65h1.5l1.1,3.4h0l1.1-3.4h1.4L75.2,70.6z"/>
	<path class="st1" d="M82.5,64.8c1.6,0,2.6,1.1,2.6,2.7c0,1.6-1,2.6-2.6,2.6c-1.6,0-2.6-1.1-2.6-2.6C79.9,65.9,80.9,64.8,82.5,64.8
		 M82.5,69.1c0.9,0,1.2-0.8,1.2-1.6c0-0.8-0.3-1.6-1.2-1.6c-0.9,0-1.2,0.8-1.2,1.6C81.3,68.3,81.5,69.1,82.5,69.1"/>
	<path id="XMLID_30_" class="st1" d="M85.6,65h1.3v0.9h0c0.3-0.6,0.9-1.1,1.6-1.1c0.1,0,0.2,0,0.3,0v1.3c-0.1,0-0.3,0-0.5,0
		c-1,0-1.4,0.7-1.4,1.6V70h-1.4V65z"/>
	<path class="st1" d="M94,69.7c0,0.8-0.3,2.2-2.6,2.2c-1,0-2.1-0.5-2.2-1.6h1.4c0.1,0.5,0.5,0.7,1,0.7c0.8,0,1.1-0.5,1.1-1.2v-0.7h0
		c-0.3,0.5-0.9,0.8-1.5,0.8c-1.5,0-2.2-1.1-2.2-2.5c0-1.3,0.8-2.5,2.2-2.5c0.7,0,1.2,0.2,1.5,0.8h0V65H94V69.7z M92.7,67.4
		c0-0.8-0.3-1.5-1.2-1.5c-0.8,0-1.1,0.7-1.1,1.4c0,0.7,0.3,1.5,1.1,1.5C92.3,68.8,92.7,68.1,92.7,67.4"/>
	<path class="st1" d="M94.7,66.5c0.1-1.3,1.2-1.7,2.4-1.7c1,0,2.2,0.2,2.2,1.4v2.6c0,0.5,0,0.9,0.2,1.1H98c0-0.2-0.1-0.3-0.1-0.5
		c-0.4,0.5-1.1,0.6-1.7,0.6c-1,0-1.7-0.5-1.7-1.5c0-1.1,0.9-1.4,1.7-1.5c0.8-0.1,1.6-0.1,1.6-0.7c0-0.6-0.4-0.7-0.9-0.7
		c-0.5,0-0.9,0.2-0.9,0.8H94.7z M97.9,67.5c-0.2,0.2-0.7,0.2-1.1,0.3c-0.4,0.1-0.8,0.2-0.8,0.7c0,0.5,0.4,0.6,0.8,0.6
		c1.1,0,1.1-0.9,1.1-1.2V67.5z"/>
	<path id="XMLID_25_" class="st1" d="M100.1,65h1.3v0.7h0c0.3-0.6,1-0.8,1.5-0.8c1.5,0,1.8,0.8,1.8,2.1V70h-1.4v-2.8
		c0-0.8-0.2-1.2-0.9-1.2c-0.7,0-1.1,0.4-1.1,1.4V70h-1.4V65z"/>
	<path class="st1" d="M106.9,64.2h-1.4v-1.1h1.4V64.2z M105.6,65h1.4v5h-1.4V65z"/>
	<polygon id="XMLID_22_" class="st1" points="107.5,69 110.1,66 107.7,66 107.7,65 112,65 112,66 109.4,69 112.2,69 112.2,70 
		107.5,70 	"/>
	<path class="st1" d="M113.8,67.8c0,0.9,0.5,1.3,1.2,1.3c0.6,0,1-0.3,1.1-0.7h1.2c-0.4,1.2-1.2,1.7-2.4,1.7c-1.6,0-2.6-1.1-2.6-2.6
		c0-1.5,1-2.7,2.6-2.7c1.7,0,2.5,1.4,2.4,3H113.8z M116.1,66.9c-0.1-0.7-0.4-1.1-1.1-1.1c-0.9,0-1.1,0.7-1.1,1.1H116.1z"/>
	<path class="st1" d="M121.7,69.4L121.7,69.4c-0.3,0.5-0.9,0.8-1.5,0.8c-1.5,0-2.3-1.3-2.3-2.7c0-1.4,0.7-2.6,2.2-2.6
		c0.6,0,1.2,0.3,1.5,0.7h0h0v-2.5h1.4V70h-1.3V69.4z M120.5,65.9c-0.9,0-1.2,0.8-1.2,1.6c0,0.8,0.4,1.6,1.2,1.6
		c0.9,0,1.2-0.8,1.2-1.6C121.7,66.7,121.4,65.9,120.5,65.9"/>
	<polygon id="XMLID_17_" class="st1" points="128,64.3 126,64.3 126,63.1 131.7,63.1 131.7,64.3 129.6,64.3 129.6,70 128,70 	"/>
	<polygon id="XMLID_16_" class="st1" points="132.3,63.1 137.5,63.1 137.5,64.3 133.8,64.3 133.8,65.8 137.2,65.8 137.2,67 
		133.8,67 133.8,68.7 137.5,68.7 137.5,70 132.3,70 	"/>
	<path class="st1" d="M138.2,63.1h3c1.8,0,3.2,1.1,3.2,3.4c0,2-1,3.5-3.2,3.5h-3V63.1z M139.7,68.7h1.4c0.9,0,1.7-0.5,1.7-2.1
		c0-1.4-0.5-2.3-2-2.3h-1.1V68.7z"/>
	<path class="st1" d="M148.7,67.8c0,0.9,0.5,1.3,1.2,1.3c0.6,0,1-0.3,1.1-0.7h1.2c-0.4,1.2-1.2,1.7-2.4,1.7c-1.6,0-2.6-1.1-2.6-2.6
		c0-1.5,1-2.7,2.6-2.7c1.7,0,2.5,1.4,2.4,3H148.7z M150.9,66.9c-0.1-0.7-0.4-1.1-1.1-1.1c-0.9,0-1.1,0.7-1.1,1.1H150.9z"/>
	<polygon id="XMLID_11_" class="st1" points="155.5,70 154,70 152.3,65 153.7,65 154.8,68.4 154.8,68.4 155.9,65 157.2,65 	"/>
	<path class="st1" d="M158.6,67.8c0,0.9,0.5,1.3,1.2,1.3c0.6,0,1-0.3,1.1-0.7h1.2c-0.4,1.2-1.2,1.7-2.4,1.7c-1.6,0-2.6-1.1-2.6-2.6
		c0-1.5,1-2.7,2.6-2.7c1.7,0,2.5,1.4,2.4,3H158.6z M160.8,66.9c-0.1-0.7-0.4-1.1-1.1-1.1c-0.9,0-1.1,0.7-1.1,1.1H160.8z"/>
	<path id="XMLID_8_" class="st1" d="M162.8,65h1.3v0.7h0c0.3-0.6,1-0.8,1.5-0.8c1.5,0,1.8,0.8,1.8,2.1V70h-1.4v-2.8
		c0-0.8-0.2-1.2-0.9-1.2c-0.8,0-1.1,0.4-1.1,1.4V70h-1.4V65z"/>
	<path id="XMLID_7_" class="st1" d="M170.2,65h1v0.9h-1v2.5c0,0.5,0.1,0.6,0.6,0.6c0.1,0,0.3,0,0.4,0V70c-0.2,0-0.5,0-0.8,0
		c-0.8,0-1.6-0.2-1.6-1.2v-3h-0.8V65h0.8v-1.5h1.4V65z"/>
	<polygon id="XMLID_6_" class="st2" points="6.5,6.1 0,6.1 0,0.1 20.1,0.1 20.1,6.1 13.6,6.1 13.6,23.3 6.5,23.3 	"/>
	<polygon id="XMLID_5_" class="st2" points="21.2,0.1 40.7,0.1 40.7,6.1 28.3,6.1 28.3,8.9 40.7,8.9 40.7,14.5 28.3,14.5 28.3,17.3 
		40.7,17.3 40.7,23.3 21.2,23.3 	"/>
	<path class="st2" d="M41.9,0.1h11.7c7.7,0,10.4,5.7,10.4,11.5c0,7.1-3.8,11.6-11.8,11.6H41.9V0.1z M49,17.3h2.8
		c4.4,0,5.1-3.6,5.1-5.8c0-1.5-0.5-5.5-5.6-5.5H49V17.3z"/>
	<polygon id="XMLID_2_" class="st2" points="74.3,14.4 72.1,10.7 70,14.4 64.8,14.4 69.7,7.1 65,0.1 70.2,0.1 72.1,3.5 74.1,0.1 
		79.3,0.1 74.6,7.1 79.5,14.4 	"/>
</g>
</svg>
