<?xml version="1.0" encoding="utf-8"?>
<!-- Generator: Adobe Illustrator 19.0.0, SVG Export Plug-In . SVG Version: 6.00 Build 0)  -->
<svg version="1.1" id="圖層_1" xmlns="http://www.w3.org/2000/svg" xmlns:xlink="http://www.w3.org/1999/xlink" x="0px" y="0px"
	 viewBox="0 0 19 7" style="enable-background:new 0 0 19 7;" xml:space="preserve">
<style type="text/css">
	.st0{fill:#404040;}
</style>
<g id="XMLID_977_">
	<g id="XMLID_980_">
		<g id="XMLID_981_">
			<path id="XMLID_997_" class="st0" d="M18.3,6.7c-0.1,0-0.2,0-0.3-0.1L9.2,1.6C8.8,1.4,8.7,0.9,8.9,0.6c0.2-0.3,0.6-0.4,0.9-0.3
				l8.8,5.1c0.3,0.2,0.4,0.6,0.3,0.9C18.8,6.6,18.5,6.7,18.3,6.7z"/>
		</g>
	</g>
	<g id="XMLID_978_">
		<g id="XMLID_979_">
			<path id="XMLID_996_" class="st0" d="M0.7,6.7c-0.2,0-0.5-0.1-0.6-0.3C-0.1,6.1,0,5.6,0.3,5.4l8.8-5.1c0.3-0.2,0.8-0.1,0.9,0.3
				c0.2,0.3,0.1,0.8-0.3,0.9L1,6.6C0.9,6.7,0.8,6.7,0.7,6.7z"/>
		</g>
	</g>
</g>
</svg>
